<?xml version="1.0" encoding="UTF-8"?>
<svg id="Ebene_1" data-name="Ebene 1" xmlns="http://www.w3.org/2000/svg" viewBox="0 0 884.74 1351.38">
  <defs>
    <style>
      .cls-1 {
        fill: #070707;
      }

      .cls-2 {
        fill: #5d5c5b;
      }

      .cls-3 {
        fill: #e6e7e2;
      }

      .cls-4 {
        fill: #5f5f5d;
      }

      .cls-5 {
        fill: #5f5f5c;
      }

      .cls-6 {
        fill: #050505;
      }

      .cls-7 {
        fill: #010101;
      }

      .cls-8 {
        fill: #030302;
      }

      .cls-9 {
        fill: #eaeae6;
      }

      .cls-10 {
        fill: #f8f7ef;
      }

      .cls-11 {
        fill: #e7e7e3;
      }

      .cls-12 {
        fill: #030303;
      }

      .cls-13 {
        fill: #5e5e5b;
      }

      .cls-14 {
        fill: #050404;
      }

      .cls-15 {
        fill: #030403;
      }

      .cls-16 {
        fill: #bab9b6;
      }

      .cls-17 {
        fill: #f1f0ec;
      }

      .cls-18 {
        fill: #020302;
      }

      .cls-19 {
        fill: #efefeb;
      }

      .cls-20 {
        fill: #b9b8b4;
      }

      .cls-21 {
        fill: #ebebe7;
      }

      .cls-22 {
        fill: #020202;
      }

      .cls-23 {
        fill: #484846;
      }

      .cls-24 {
        fill: #04ad6c;
      }

      .cls-25 {
        fill: #eeede9;
      }

      .cls-26 {
        fill: #afafaa;
      }

      .cls-27 {
        fill: #040403;
      }

      .cls-28 {
        fill: #f5f5ec;
      }

      .cls-29 {
        fill: #020303;
      }

      .cls-30 {
        fill: #f3f3ef;
      }

      .cls-31 {
        fill: #040404;
      }

      .cls-32 {
        fill: #f8f7ee;
      }

      .cls-33 {
        fill: #0d0c0c;
      }

      .cls-34 {
        fill: #ccccc9;
      }

      .cls-35 {
        fill: #f0f0ec;
      }

      .cls-36 {
        fill: #6b6b6a;
      }

      .cls-37 {
        fill: #04cc6c;
      }

      .cls-38 {
        fill: #bab9b5;
      }

      .cls-39 {
        fill: #b8b7b3;
      }

      .cls-40 {
        fill: #020201;
      }

      .cls-41 {
        fill: #080807;
      }

      .cls-42 {
        fill: #e3e3df;
      }

      .cls-43 {
        fill: #e4e4e0;
      }

      .cls-44 {
        fill: #484946;
      }

      .cls-45 {
        fill: #6c6d6c;
      }

      .cls-46 {
        fill: #080908;
      }

      .cls-47 {
        fill: #f6f6ee;
      }

      .cls-48 {
        fill: #afaea9;
      }

      .cls-49 {
        fill: #b9b8b5;
      }
    </style>
  </defs>
  <path class="cls-7" d="M187.72,1261.44c6.74-11.52,32.77-43.88,34.76-52.74,1.44-6.41,2.03-18.83,2.28-25.72,1.61-45.17-13.41-92.65,5.1-135.9,11.53-26.95,37.22-45.16,40.68-75.41.48-4.24-7.64-28.8-8.68-36.87-5.79-45.32,8.17-93.84,25.39-135.33,5.5-13.26,14.39-28.12,18.65-41.35,3.18-9.87,1.78-22.64,2.83-33.17s6.99-27.93,6.99-36.01c0-6.97-5.63-23.33-6.86-32.14s-1.74-18.5-2.28-27.72l-.86-1.14c-27.05-8.56-45.53-29.51-60.54-52.49-7.46,5.87-13.81,12.89-21.74,18.23-6.22,4.19-13.03,7.49-19.71,10.84,11.19,26.29,9.17,57.8-4.85,82.6-7.15,12.65-21.72,24.36-23.16,38.84-.56,5.66-.56,17.2.27,22.75.22,1.48.36,3.37,1.94,4.06,4.95,2.15,15.78,3.07,21.99,4.96,17.91,5.45,30.41,16.14,39.59,32.41,12.25,21.71,15.3,47.13-9.72,60.45,7.04,19.41-3.88,48.17-25.83,51.62-4.61.73-12.43-1.18-14.54-.62-1.62.43-3.12,3.25-4.79,4.3-8.25,5.18-16.4,6.46-25.74,3.86-2.62-.73-7.71-3.82-9.69-3.89-4.7-.15-12.62,4.44-22,3.58-10.8-1-18.51-8.19-26.23-9.77-9.61-1.96-15.53.01-26.26-4.74-15.51-6.87-16.89-15.92-20.94-31.06-9.97-37.3-8.76-71.85-21.06-108.94-23.06-69.55-50-115.17-18.19-190.15,3.71-8.75,18.7-31.45,19.97-37.03,1.52-6.73.25-19.46,1.33-27.67,5.28-40.05,30.21-73.4,60.36-98.64,8.11-70.1,71.45-116.84,141.01-111.97,4.23.3,17.14,3.57,19.77,2.82,1.32-.37,12.33-8.83,15.44-10.63,19.9-11.5,42.35-17.36,64.06-24.43l4.86-20.3c-7.72-6.78-12.85-13.75-15.88-23.71-6.25-20.58-3.57-56.01,24.25-56.77.11-28.31,11.03-57.22,31.85-76.72.13-10.37-7.91-29.57-4.08-39.02,2.06-5.08,18.69-16.89,23.94-20.06C436.82-.75,471.47-3.83,511.91,3.75c5.52,1.03,17.11,1.5,15.62,8.9l-15.39,60.84c27.6,9.82,42.13,44.6,44.59,71.95,10.04-2.02,20.76-6.51,31.11-4.41,5.05,7.09-5.85,25.61-10.08,31.95-1.6,2.39-9.64,11.32-9.79,12.08-.46,2.38,2.63,16.53,2.8,20.85.52,13-1.55,24.77-1,39,.29,7.45-.93,15.06,1.19,22.31,13.03,6.01,26.05,12.1,38.79,18.71,3.21,1.67,11.39,7.66,13.72,8.29,3.7.99,19.73-1.14,25.8-.81,70.67,3.86,126.34,60.02,128.67,130.84,32.96,24.36,52.44,61.58,51.31,103.18,13.38,11.7,25.51,23.85,34.9,39.1,35.29,57.34,15.38,125.76,11.59,188.43-1.36,22.56-.97,45.43-2,68-1.58,34.85,1.43,56.97-34.65,73.35-13.42,6.09-14.72,2.37-26.74,3.17-8.94.6-13.03,6.29-25.43,3.28-3.94-.95-9.52-5.62-11.92-6.12-1.97-.41-8.96,1.15-12.76.79-6.48-.62-12.28-3.88-17.43-7.57-1.97-1.41-4.6-5.23-6.1-5.9-2.55-1.14-5.55-.15-8.25-.75-16.15-3.58-28.21-18.08-25.49-35.02.42-2.65,3.37-7.64,3.38-9.24,0-2.37-4.94-11.29-5.51-16.11-3.38-28.81,24.39-54.15,47.92-65.91l.81-1.78c-5.67-16.23-7.4-31.29-20.83-43.21-13.2-11.72-24.7-17.13-34.43-33.57-14.71-24.85-12.27-51.08-11.74-78.76-12.15-4.57-21.26-14.34-29.34-24.14-3.93,5.93-7.79,12.12-12.53,17.45-3.46,3.89-9.27,7.79-11.99,11.01s-6.87,42.89-8.15,50.85c-1.88,11.65-7.26,28.62-7.85,39.2-.42,7.51,1.87,25.86,3.14,33.84,2.46,15.39,16.2,35.08,22.74,50.26,20.77,48.24,27.3,102.22,13.64,153.36-1.33,4.99-7.52,20.15-7.55,23.48-.04,4.78,4.37,16.37,4.92,23.15.69,8.52.31,17.89-1.53,26.21-.77,3.5-3.8,9.44-4.04,11.78-1,9.89,4.23,34.59,4.74,46.83,1.7,41.46-3.34,83.63-5.02,125.03l1.44,2.55c9.54,6.02,18.61,12.71,27.85,19.15,3.8,2.65,8.8,7.68,12.33,9.67,8.29,4.69,23.31,7.52,33.03,11.97,15.67,7.17,27.86,17.44,31.33,35.17,4.62,3.4,3.4,13.81,1.55,18.97-6.85,19.07-44.5,21.57-61.5,21.48-30.27-.15-60.01-7.63-88.22-17.41l-40.75-5.54c-16.71-3.61-28.29-6.21-31.01-24.48-.62-4.18-1.68-14.14,1.94-16.02-1.76-4.64-1.5-9.68.8-15.1,17.1-38.14,2.57-78.72-21.91-110.12-24.44-37.9-9.4-80.65,6.73-117.88,2.39-7.07.86-13.93-4.6-20.58-25.46-34.62-44.83-74.38-47.32-118.65l-9.04,29.73c-11.48,36.47-26.28,74.16-56.14,98.81-4.55,4.92-19.42,34.88-19.57,40.41l1.44,31.02c3.98,38.7-14.39,68.36-38.3,96.64-11.94,24.85-26.74,55.73-16.53,83.12l-1.54,2.61,2.22,1.25c3.92,15.73,4.67,44.59-11.63,53.55-3.67,18.17-17.33,29.22-34.01,36.1-9.08,3.75-21.17,7.69-30.59,5.1-15.9,1.26-43.93-1.61-59-7-39.52-7.07-25.17-47.1-9.69-70.37l2.69-.63Z"/>
  <path class="cls-26" d="M327.72,1243.44c-.17-4,3.41-5.59,10.75-4.76,64.55-4.37,130.06-2.23,194.04.31l1.21,4.45c-.59,9.19-1.32,23.93,6.5,30,14.55,11.27,46.87,10.19,64.7,14.3,7.21,1.66,14.58,5.24,21.8,7.2,31.79,8.63,71.03,14.57,103.21,5.22,18.59-5.4,25.72-13.57,21.78-33.72,23.59,3.62,89.8,20.71,37.36,44.86-40.36,18.59-105.28,26.53-149.87,31.13-112.32,11.6-236.3,11.18-348.98,3-14.83-1.08-29.65-3.76-44.51-4-.23-1.75,2.26-.94,3.48-.99,2.33-.1,4.68.07,7.01,0l-2.5-1c21.8-1.73,50.18-11.39,59.86-32.65,1.34-2.94,1.91-7.74,3.09-9.66.81-1.32,6.25-4.68,8.05-7.2,7.69-10.75,5.04-33.96,3.01-46.49Z"/>
  <path class="cls-48" d="M187.72,1261.44c-14.97,25.56-31.71,57.16,7,71-5.26,1.08-12.55-1.3-18.01-2.49-17.37-3.8-36.21-8.19-52.35-15.65-9.88-4.57-30.06-14.91-16.66-27.38,12.96-12.07,57.13-22.91,75.21-25.87,1.76-.29,3.16-.96,4.81.39Z"/>
  <path class="cls-20" d="M7.72,618.44c1.71-18.61,7.41-38.38,15.14-55.36,4.06-8.92,16.85-27.01,18.41-34.59,1.89-9.17.93-21.89,2.73-32.27,6.17-35.49,26.34-62.9,52.21-86.79.49,6.39,1.31,12.55,3.39,18.65.52,1.54-.9,2.87,2.1,2.34-3.05-41.16,12.19-77.65,42.99-104.51,43.62-38.05,95.65-33.27,148.01-18.5-7.01-6.38-17.06-10.06-26-13,20.67-17.82,49.07-22.64,73.98-32.51,5.25-3.94,4.74-17.47,6.02-23.49.64-.64,9.7,1.77,11.66,1.94,6.35.53,13.64-4.2,9.34,8.07-.71,7.86-1.82,22.05,2,28,4.27,10.78,40.54,45.47,51.09,52.41,23.34,15.34,88.31,12.04,115.28,5.47,13.17-3.21,23.1-7.05,24.61-22.39.38-3.81-.77-9.5.21-12.79.48-1.62,2.77-2.71,3.64-4.36,3.38-6.44,5.35-14.06,5.17-21.34l53,26.5c3.9-.88,5.91,1.79,9.48,2.51l-1.49-3c64.79-3.84,129.09,40.95,138,106.99-.32,1.28-.41,2.56-.36,3.87.53,12.55.68,25.13.83,37.86,0,.04.23-.29.52-.73l1.99,3.99,3.51-19.99c25.96,18.91,43.56,48.25,46.49,80.51.49,5.34-1.13,13.55.77,18.23,1.73,4.27,12.24,11.5,15.77,15.23,31.18,32.96,41.32,67.29,39.52,112.57l-9.04,89.46c-1.01,2.43-.56,6.82,0,10-.02,2.19.74,5.64-1,7-.67-.11-.47-4.84-.47-4.6-.3,18.9-.15,37.43.47,55.6-.33,11.23-.96,42.79-4.81,51.69-5.01,11.56-31.88,29.15-45.18,27.3l16.01-11.48c8.02-8.21,15.99-13.34,16.04-26.02.01-3.09-.13-8.68-3.05-10.5,2.73,20.58-12.02,33.28-28.34,42.17-10.77,5.87-25.94,13.62-36.67,3.84,2.95-.75,6.04-2.33,8.67-3.84,6.6-3.79,33.33-19.32,33.33-26.67v-14.5c-3.02-.47-1.61.73-2.03,2.43-1,4.07-.81,8.43-2.77,12.27-4.22,8.25-39.63,26.62-48.94,28.06-13.28,2.05-32.23-12.24-35.81-24.71-4.11-14.33,2.67-29.37,18.28-31.8,2.93-.46,13.66-.79,15.68.65,1.43,1.01.71,7.88-.35,9.68-2.96,5-13.66,2.52-11.56,8.44,13.36.6,19.21-4.85,17.41-18.42-.73-5.47-7.55-18.97-14.39-17.59-1.6.32-1.36,1.22-.52,2.5.98,1.5,8.62,7.49,6.99,9.5-10.42-3.05-22.64.84-31.03,7.47l-7.32,10.41c-13.27-6.59-20.72-23.5-16.92-37.66,4.89-18.21,21.65-32.45,36.97-42.03,6.49-4.06,17.91-8.56,23.25-12.75,8.25-6.48-10.08-3.69-12.93-.44-3.85-17.91-8.33-32.86-22-45.51-23.66-21.91-40.62-32.25-44.01-68.49.64-10.13.64-20.13,0-30,.05-1.15-.45-5.01.51-5.01,9.48,3.73,20.91,7.17,31.12,7.88,3.22.23,9.61,1.36,11.37-1.86-21.4-4.6-48.43-12.11-63.51-29-2.35-2.63-9.74-12.78-10.3-15.77-.65-3.39,5.53-22.13,6.52-28.04,1.29-7.69,2-15.71,2.27-23.51,50.6-32.53,38.62-137.34-8.88-165.31-1.62-.95-1.31-2.2-3.08.11,51.42,45.66,58.04,163.98-28.02,172.5-10.54-.67-22.46-.78-33,0-21.86-1.68-41.81-6.7-61.99-15-.6,2.72.83,1.7,1.99,2.47,26.73,17.72,88.64,24.46,118.27,13.29,2.69-1.01,5.14-2.57,7.73-3.76-1.79,32.51-12.32,65.33-40.83,83.66-2.64,29.66-7.76,59.02-13.91,88.09-14.75,11.85-36.42,16.08-54.92,19.08-11.2,1.82-24.05,3.59-35.33,4.17-2.14-.32-10.44-1.27-9,0-3.33,1.85-8.89.99-13,1-9.83-1.2-21.16-1.11-31,0-38-.82-80.77-3.59-116.52-16.98-5.25-1.97-20-8.05-23.85-11.15-1.61-1.3-1.67-1.84-2.38-3.62-2.56-6.53-4.77-20.63-5.97-28.03-.8-4.94-3.66-20.92-3.34-24.65.04-.44,4.55-.11-1-5-9.4-8.28-25.23-14.42-36.47-24.53-5.03-4.52-25.25-26.4-24.32-32.31.22-1.42,11.94-17.33,14.02-21.05,10.41-18.68,17.44-41.29,18.83-62.67,2.32-.63,1.67.55,2.29,1.27,44.26,51.69,96.76,59.28,161.72,45.24,19.37-4.19,42-9.83,55.99-24.5-8.88,4.22-16.78,9.13-26.22,12.27-64.53,21.46-136.86,19.88-183.75-34.81-11.96-13.95-19.36-31.03-34.02-42.98-1.92-1.57-5.92-5.02-8.01-3.99,9.11,11.33,18.1,22.73,25.71,35.15-.67,61.02-38.57,121.81-100.68,134.89-5.26,1.11-11.47.68-16.03,2.97,11.17,3.41,25.76,1.17,36.5-3.47,10.25,25.32,9.07,55.15-5.09,78.88-8.84,14.83-22.01,22.88-23.46,41.54-.51,6.55-.54,22.9,1.24,28.83,1.23,4.11,14.47,5.02,18.81,6.19,25.68,6.9,43.19,20.2,51.44,46.56,5.55,17.74-.29,26.41-12.44,38.95-2.7-7.36-8.12-14.78-15.99-17.06,1.07-6.02,4.03-13.37,4.06-19.45.01-2.3-.11-4.74-3.08-4.49-.78,10.91-14.73,35.48-6.05,44.54,1.27,1.33,2.18,1.71,4.04,1.45-1.23-6.32-3.13-11.5-.98-17.99,19.37,12.25,21.16,47.94-.97,58.54-17.57,8.41-27.09-6.35-41.03-14.04,2.16-1.26,8.53.6,7.99-3.49-11.78,1.97-18.15-2.63-24.97-11.53-1.42-1.86-4.98-9.42-5.52-9.46-5.63-.33,3.96,14.75,4.99,15.99,5.59,6.75,10.58,7.19,16.45,11.55s11.45,11.09,18.05,14.46c-2.66,7.86-14.19,8.86-21.25,7.74-8.04-1.27-43.3-20.78-47.58-27.42-.97-1.5-2.68-7.27-3.66-7.32-1.89-.1-.98,2.86-.84,3.8,2.23,14.15,21.76,20.49,31.33,29.17-17.4,4.23-41.34-6.86-52.42-20.07-1.34-1.59-4.26-7.61-4.6-7.91-3.91-3.45.04,7.99.52,8.99,2.11,4.41,5.56,7.29,8.5,10.99-9.61-2.12-25.89-8.03-29.74-17.75-7.11-17.93-11.76-50.17-14.25-69.75-.8-6.29-.14-14.44-1.25-20.75-8.15-46.43-37.24-90.93-41.76-139.74.52-9.44.52-18.77,0-28Z"/>
  <path class="cls-44" d="M608.71,697.44c.72,8.9.89,18.7,2.02,27.49,3.07,23.87,22.83,50.52,31.01,74.99,2.8,8.39,14.8,56.14,11.77,61.32-.75,1.28-18.59,10.74-21.43,12.06-41.52,19.29-91.27,26.83-136.9,24.18-3.03-.18-12.21-.87-13.3-2.7l-7.15-48.34c12-.53,25.6-3.01,36.68-7.83,21.39-9.31,57.28-47.5,71.15-66.85,2.21-3.08,7.12-11.31.97-5.03-30.89,31.54-55.92,71.85-105.34,73.72-4.71.18-9.39-2-14.01-.15l-18.11,58.17c-59.2,2.59-120.74-8.68-170.86-41-1.32-2.29,12.6-41.75,14.77-47.29,6.27-16,19.98-38.12,23.69-53.31,2.44-9.99,1.68-24.74,3.2-35.8,1.33-9.62,3.73-19.19,5.87-28.64,24.31,13.17,53.01,20.72,80.5,23.99,44.28,5.26,95.69,5.73,139.86-.12,22.12-2.93,46.26-7.64,65.62-18.87Z"/>
  <path class="cls-28" d="M533.72,1243.44l-2.43-3.08c-15.7-1.34-31.38-.51-47.11-.88-48.92-1.14-104.54-3.01-153.05,1.89-1.99.2-2.44.1-3.4,2.07-1.14-7.02-4.92-17.61-4.54-24.05.62-10.56,9.47-37.78,13.52-48.47,7.72-20.35,24.38-32.77,34.2-51.8,16.14-31.26,10.55-56.45,9.77-89.24-.05-1.99,13.76-33.36,15.63-36.36,3.33-5.33,13.22-12.74,17.92-18.08,29.24-33.22,41.24-82.55,53.99-124.02.86,0,1.42,14.79,1.62,16.39,3.49,27.95,12.01,54.75,25.7,79.3,5.68,10.19,26.1,36.06,27.09,44.92.87,7.78-7.13,21.88-9.94,29.89-10.34,29.53-17,54.61-3.84,84.88,7.61,17.5,22.45,31.47,28.37,49.63,3.38,10.36,7.77,32.51,7.03,43.05-.92,13.16-9.54,28.31-10.54,43.96Z"/>
  <path class="cls-20" d="M415.72,902.44c3.38,1.03,10.13.59,15,0,.33,0,.67,0,1,0,4.19.15,8.22.61,12.09,1.37l-.09,2.63c-10.87,30.63-24.07,55.22-47.99,77.51-6.01,5.61-14.34,9.64-18.01,16.99,2.85,1.47,6.04-2.73,8.5-3.5.75-.16.64.97.48,1.47-2.09,6.54-7.5,14.63-9.76,21.24-5,14.56-.17,38.26-1.23,54.77-1.31,20.29-8.28,38.68-19.77,55.23-2.35,3.39-7.66,11.17-10.72,13.28-4.35,3-14,3.53-19.5,4-15.28.45-30.74.11-46-1-17.58-2.24-35.58-7.07-50.78-16.21-3.35-25.96-3.53-53.33,6.02-78.06,11.65-30.17,39.02-46.26,42.21-80.59.53-5.7-5.65-22.74-6.97-30.12-4.83-27.08-1.69-52.31,3.53-79.02l33.02,16.47c23,9.29,47.15,15.24,71.63,19.37l37.34,4.16Z"/>
  <path class="cls-39" d="M542.72,899.44l30.02-4.48c28.8-5.52,57.39-14.36,81.97-30.52.94,20.38-1.22,40.52-6.27,60.22-1.82,7.11-8.57,22.6-8.76,28.31-.21,6.06,4.44,17.58,5.03,24.99,1.65,20.61-4.24,37.83-14.74,55.16l1.25,3.32,9.5-10.99c.41,12.03,2.53,23.97,3.01,36v44c-.02,3.14.83,7.7-1,10-.29,1.96-.62,4.29-1,7-4.89,7.03-44.22,13.47-53.51,13.99-11.35.64-52.33-1.9-59.94-10.04-5.76-6.17-15.75-29.43-17.55-37.95-1.67-14.97-.13-29.24,2-44,1.84-7.45,9.82-32.33,13.53-37.97.3-.46,1.07-1.33,1.46-1.02-.88,2.46,6.54,10.07,5.99,5.54-.87-7.13-5-25.87-7.78-32.23-4.63-10.59-17.55-25.1-24-36-8.02-13.54-15.12-28.77-18.18-44.31l10.99,2c-2.18.27-4.18.6-6,1,14.32-.91,31.1-.76,45.5,0-.14-.84.65-1.29,2.36-1.36,7.81-.04,9.85-.25,6.14-.64Z"/>
  <path class="cls-44" d="M641.72,1128.44c.02,21.7-3.68,43.36-2.48,64.98l45.8,31.2c19.42,8.49,47.96,14.28,57.54,35.46,9.37,20.71,3.79,28.41-16.64,34.07-15.35,4.25-35.89,4.58-51.7,3.27-30.5-2.52-57.56-14.61-88-19-9.35-1.35-38.85-5.14-43.95-13.05-3.4-5.26-1.27-27.9.1-34.79,3.03-15.24,9.23-22.59,8.39-39.69-.69-14.19-4.14-31.17-9.87-44.13-.59-1.34-5.6-9.93-5.17-10.32,35.01,8.34,73.01,7.27,105.99-8Z"/>
  <path class="cls-23" d="M311.72,1293.94c-4.82,34.01-54.67,40.34-81.49,38.49-13.55-.94-48.7-7.1-52.07-22.93-3.58-16.85,15.05-44.8,24.33-58.78,5.46-8.23,23.46-29.16,25.75-36.25,1.31-4.06,2.26-13.91,2.52-18.48,1.09-18.72-.41-38.81-1.03-57.54,33.92,16.4,73.28,17.81,109.99,12.01-9.41,13.9-14.52,31.53-18.72,47.77-1.56,6.03-5.01,17.17-5.22,22.87-.29,7.94,6.19,25.57,6.92,35.86s.74,22.64-4.74,31.2c-.63.99.1,1.79-2.24,1.28,0-4.68-.2-11.71-4.01-14.99-.61,6.1.83,13.61,0,19.5Z"/>
  <path class="cls-2" d="M400.53,227.63c2.12,13.57.91,27.64,3.31,41.19.51,2.9,1.23,8.02,3.87,9.62-1.77-16.76-2.33-33.58-2.94-50.45,8.5-21.72,33.36-6.25,49.12-2.23s34.75,6.83,51.31,5.66c11.33-.8,25.41-5.58,36.07-6.01,7.6-.31,11.73,5.58,12.43,12.54,1.7,16.76,2.97,44.38,2.06,61.03-.28,5.08-1.16,15.25-3.62,19.38-5.4,9.09-25.24,10.97-34.93,12.07-22.11,2.51-72.32,5.32-90.82-6.17-8.81-5.47-42.51-37.59-47.91-46.09-9.67-15.23-5.15-54.02-5.73-73.27-.26-8.61-.26-26.06-2.55-33.45-.49-1.57-3.49-6.15-3.47-6.52.14-2.25,13.03-3.82,14.54-1.56,3.16,15.84,2.82,34.44,7.15,49.85,1.9,6.77,4.79,12.49,12.09,14.41Z"/>
  <path class="cls-38" d="M551.72,147.43l-60,15c1.59-4.86,2.5-10.93,2.58-16.01.02-1.5.5-2.46-1.57-2.98l-3.06,18.94c-29.91-1.62-57.99-14.73-87.13-21.26-17.17-3.85-31.77-10.65-25.81,15.31-7.35.96-13.38,1.93-21,.99,1.25-10.15,1.92-19.65,4.74-29.75,6.52-23.41,19.62-45.03,44.48-51.52,24.83-6.48,37.88,3.66,51.79,22.77,15.17,2.03,30.48,1.27,45.72,1.79,5.26-2.24,5.64-20.22,8.89-21.22,2.91-.9,13.05,7.96,15.4,10.42,15.09,15.78,19.58,37.13,24.98,57.51Z"/>
  <path class="cls-37" d="M519.63,12.52l-19.39,82.93-41.51-.02-10.01-88c23.76-2.64,47.83-1.3,70.91,5.09Z"/>
  <path class="cls-20" d="M520.51,202.64c1.19.83,1.36,5.67,1.24,7.28-1.76,23.68-48.16,18.91-51.83,6.81-1.13-3.73,1.25-7.54.79-11.29-8.49,7.59-3.16,17.09,5.01,21.99-7.61-1.63-15.47-2.49-23.01-4.48-16.66-4.39-39.91-18.43-51.48,2.48-4.78-2.43-8.89-5.35-10.05-10.95l-7.45-50.04c18.22,18.07,40.4,47.36,69.49,44,17.32-2,29.92-26.14,43.01-26.09,9.97.04,9.26,11.21,13.99,16.09,3.46,3.57,8.57,3,10.29,4.2Z"/>
  <path class="cls-24" d="M446.72,8.43l8.99,82.01c-3.41-4.1-6.29-8.55-10.47-12.02-9.29-7.72-20.41-11.16-32.53-9.97-1.85-13.18-4.17-27.75-9.5-40l8.5,39.99c-8.76.55-16.79,4.3-24.99,7.01-2.03-10.62-4.41-22.15-3.34-32.84,1.85-5.87,19.44-16.45,25.31-19.68,4.57-2.51,35.55-17.08,38.02-14.49Z"/>
  <path class="cls-20" d="M369.72,192.44l-.69,39.88c-4.47,2.04-9.91,2.41-16.31,1.12-28.93-7.34-31.45-69.48-3.47-71.01,15.25-.84,19.77,18.24,20.47,30.01Z"/>
  <path class="cls-45" d="M461.72,163.45l-24.6,37.86c-3.06.74-21.65-11.05-22.94-13.9-.88-1.95-.05-2.72.65-4.36,1.32-3.08,15-27.07,16.54-27.51l30.35,7.9Z"/>
  <path class="cls-49" d="M562.72,190.44c-.45,8.56,2.95,16.89,2.01,25.5-.24,2.24-2.97,11.46-4.41,12.58-4.81,3.73-7.57-2.4-10.66-4.52-8.41-5.74-23.1,2.51-32.93,2.42,6.75-5.39,8.78-12.49,8.01-20.99,7.88,2.65,16.12-.63,22.91-4.58l15.08-10.41Z"/>
  <path class="cls-36" d="M560.72,153.44c-2.68,5.92-5.97,11.65-9.19,17.3-5.87,10.25-12.24,20.34-18.86,30.13-4.46,3.68-12.58-3.15-17.94-3.44,2.73-5.61,5.71-11.25,8.83-16.66,2.24-3.88,10.27-18.1,12.72-20.28,3.78-3.38,19.13-4.3,24.45-7.04Z"/>
  <path class="cls-16" d="M726.7,851.49c.31.41-.97,3.19-1,4.45-.14,8.25,2.55,14.76,7.01,21.48-15.4-3.12-25.91-18.54-20.99-33.99,1.62,2.72,14.46,7.38,14.97,8.06Z"/>
  <path class="cls-13" d="M561.72,231.43c.69,16.11,5.1,39.65.48,54.98-.42,1.41-2.05,5.35-3.46,6.02-1.41-15.76-.27-31.73-.97-47.54-.11-2.48-2.42-11.94-2.05-12.45.18-.25,5.6-1.41,6.01-1.01Z"/>
  <path class="cls-34" d="M510.72,1088.44c-3.17-14.94-1.62-29.34,2-44,1.84.96.86,3.52.57,5.05-2.44,12.59-3.29,20.74-1.85,33.75.18,1.61,1.14,4.16-.72,5.2Z"/>
  <path class="cls-21" d="M542.72,899.44c1.28.04,5.05-.82,4.99.99-3.48.22-7.05-.27-10.53-.03-1.29.09-2.62,1.04-2.96,1.04h-45.5v-.99c1.99-.06,4.01.04,6-.01,10.82-.28,21.71.33,32.54.04,5.08-.13,9.82-1.21,15.46-1.04Z"/>
  <path class="cls-25" d="M325.72,1147.44c-14.76,1.25-31.31.87-46-1l46,1Z"/>
  <path class="cls-35" d="M352.72,233.44c3.16-1.76,14.55,2.37,15.86-1.64l1.14-39.36c.78,13.15-.46,27.12-.14,40.36-1.05,3.17-13.46,1.5-16.86.64Z"/>
  <path class="cls-19" d="M867.72,764.44c.18,16.87.5,34.15,0,51-1.66-1.04-1-3.8-1.02-5.49-.21-17,.2-34.01.01-51.01,1.79-1.35,1,4.91,1,5.5Z"/>
  <path class="cls-9" d="M769.72,447.44c-.04,1.17.76,4.2-.99,3.99-.42-11.13.51-22.41.03-33.54-.16-3.6-2.61-8.24-.04-11.46,1.71,12.66,1.45,28.09,1,41Z"/>
  <path class="cls-11" d="M643.72,1105.44v-44c.57,14.35.08,29.56,0,44Z"/>
  <path class="cls-19" d="M629.72,521.44c-10.64,1.05-22.33.82-33,0,1.04-1.66,3.79-1,5.49-1.02,7.33-.08,14.7-.09,22.03,0,1.69.02,4.45-.64,5.49,1.02Z"/>
  <path class="cls-3" d="M367.72,248.44c.23,8.86-1.26,19.77,2,28-.99,2.53-1.51-1.16-1.68-1.81-2.6-10.11-.81-20.82-1.31-31.19,1.81-.06.96,3.72.99,4.99Z"/>
  <path class="cls-17" d="M7.72,646.44c-.82-8.9-.82-19.12,0-28,1.66,1.04,1,3.79,1.02,5.49.08,7.22.75,15.64-1.02,22.51Z"/>
  <path class="cls-42" d="M495.72,714.44c-10.3.03-20.7.22-31,0,1.04-1.66,3.79-1,5.49-1.02,6.66-.07,13.37-.08,20.03,0,1.69.02,4.45-.64,5.49,1.02Z"/>
  <path class="cls-30" d="M691.72,639.44c-.83-8.89-.36-20.95,0-30,1.66,1.04,1,3.79,1.02,5.49.08,7.9.74,16.95-1.02,24.51Z"/>
  <path class="cls-43" d="M415.72,902.44c4.98-.1,10.02-.04,15,0-6.41,2.28-14.25.4-20.99.99.2-1.85,4.56-.96,5.99-.99Z"/>
  <path class="cls-43" d="M431.72,902.44c4.32.04,8.68-.04,13,0,.29.26-.73,3.25-1,3.99-1.3-6.09-8.25-.89-12-4Z"/>
  <path class="cls-42" d="M517.72,713.44c-2.96.15-6.03.05-9,0-2.02-.03-6.96.92-7.99-.99,5.39.57,11.99-1.28,16.99.99Z"/>
  <path class="cls-11" d="M642.72,1115.44c-.12,2.8.72,4.53-1,7v-14.99c1.83.93,1.08,6.14,1,7.99Z"/>
  <path class="cls-19" d="M868.72,747.44c.16,3.29.03,6.7,0,10-2.24-3.6-.47-8.95-.99-12.99,1.68-.26.94,1.88.99,2.99Z"/>
  <path class="cls-22" d="M490.71,367.44c-8.54-6.33-17.85-9.61-27.98-12.51-45.46-12.98-95.45-18.49-140.69-31.36-1.68-.48-2.8.75-2.31-2.13,14.2,1.76,28.17,4.48,42.18,7.31,31.64,6.38,85.52,15.38,113.79,27.21,5.33,2.23,13.17,5.6,15.01,11.48Z"/>
  <path class="cls-22" d="M498.72,543.43c-21.36,6.43-42.04,14.7-59.02,29.5-9.95,8.67-23.39,28.32-37.45,27.53-1.84-.1-11.82-3.2-12.53-4.03-.08-.09-.08-1.88,0-1.98.32-.38,7,2.78,9.48,3,15.63,1.43,26.69-17.11,37.49-26.52,17.87-15.57,38.69-23.85,61.53-29.47l.48,1.97Z"/>
  <path class="cls-22" d="M616.72,325.45c-.31,1.83-2.05,1.68-3.36,2.13-13.18,4.46-27.9,7.34-41.4,11.6-13.81,4.35-29.56,9.29-42.59,15.41-7.51,3.52-14.15,8.38-21.64,11.85,8.8-10.92,23.85-16.8,36.75-21.74,22.99-8.8,47.93-15.37,72.25-19.24Z"/>
  <path class="cls-22" d="M518.73,492.43c10.62-26.49,8.6-58.91-.99-85.51-3.06-8.48-7.88-16.06-11.01-24.48,20.09,23.84,25.92,62.01,20.7,92.21-.27,1.55-5.09,21.57-8.7,17.79Z"/>
  <path class="cls-18" d="M51.72,633.94c.8,9.08,4.98,22.82,8.83,31.17,4.45,9.66,11.52,17.44,17.17,26.32-3.76,3.32-18.37-19.65-19.86-22.63-8.99-18.02-12.52-43.23-5.63-62.36,1.8,1.39-.5,4.67-.5,5.49,0,6.99-.6,15.22,0,22Z"/>
  <path class="cls-8" d="M586.72,640.94c-.68,4.99-5.39,16.4-8.2,20.8-9.62,15.05-35.75,18.69-51.81,13.19-.85-2.2,2.6-1.59,3.54-1.53,8.54.56,13.79,1.46,22.51-.43,26.99-5.85,26.66-20.78,32.25-43.76.25-1.01.29-3.01,1.71-2.78-.44,4.58.6,10.06,0,14.5Z"/>
  <path class="cls-29" d="M601.71,593.44c-3.62-4.5-4.57-10.65-7.57-15.92-11.96-21-31.68-23.42-51.2-32.8-1.19-.57-2.96-.53-3.22-2.27,27,5.14,60.66,19.1,61.99,50.99Z"/>
  <path class="cls-31" d="M506.72,610.45l-8.01,4.47c-16.52,6.66-41.83,8.73-58.99,4.02-5.25-1.44-10.87-3.69-13.99-8.5,5,1.74,8.85,4.03,14.18,5.31,12.58,3.04,30.36,2.4,43.19.54,8.11-1.18,15.65-4.3,23.63-5.85Z"/>
  <path class="cls-12" d="M390.36,495.8c5.46,5.6,6.03,12.19-1.29,16.49-10.24,6.02-36.34.15-37.06-13.5-.8-15.1,29.91-11.65,38.35-2.98Z"/>
  <path class="cls-12" d="M518.48,601.17c-1.06,1.09-3.76,1.32-3.73-.22,0-.53,3.76-7.14,4.48-9.5,6.26-20.5,5.74-39.62-.5-60.01,8.49,9.54,8.85,27.13,8.04,39.55-.44,6.72-3.79,25.51-8.29,30.18Z"/>
  <path class="cls-6" d="M159.73,679.44c4.74-22.26-1.79-43.16-9-64,12.06,12.97,17.5,44.54,11.27,60.78-.49,1.27-.57,2.94-2.27,3.22Z"/>
  <path class="cls-12" d="M786.71,551.43c-1.66.27-1.07-2.42-1.03-3.53.23-6.39,1.55-12.13,1.03-18.95-1.21-15.78-8.35-30.08-13.97-44.52,14.72,17.47,21.52,45.01,13.98,66.99Z"/>
  <path class="cls-12" d="M105.71,533.43c-1.74.24-.94-2.27-.98-3.48-.76-20.24,14.31-44.43,28.99-57.51-5.41,11.63-14.21,21.16-19.7,32.79-4.23,8.96-7.15,18.34-8.3,28.21Z"/>
  <path class="cls-15" d="M840.71,688.43c-1.77.18-1.07-3.39-.97-4.47,2.01-22.17,5.3-30.64,1.05-54.1-.11-.62-1.88-3.54.44-3.4,1.06.06,3.02,7.91,3.43,9.55,4.16,16.92,2.86,36.38-3.94,52.42Z"/>
  <path class="cls-8" d="M586.37,604.09c-13.21,12.71-37.64,15.48-53.64,6.85,5.2-.85,10.26,1.26,15.45,1.55,17.53,1,30.32-4.34,43.05-16.04.7,1.73-3.64,6.47-4.86,7.64Z"/>
  <path class="cls-12" d="M661.5,479.68c21.72-2.59.62,30.74-15.15,22.62-11.78-6.07,6.14-21.55,15.15-22.62Z"/>
  <path class="cls-12" d="M210.72,422.45c-18.19,12.67-41.28,16.87-59.99,28.99.07-2.56,3.8-4.5,5.68-5.81,15.51-10.75,36.82-16.32,54.31-23.18Z"/>
  <path class="cls-12" d="M344.71,572.45c.26,1.76-2.26.98-3.26.76-14.71-3.29-32.96-23.63-37.73-37.77,11.54,14.55,23.93,28.64,40.98,37.01Z"/>
  <path class="cls-8" d="M517.72,624.94c-.02-.33-2.37-8.05.99-4.5.34.36,1.77,8.39,1.89,9.62,1.12,11.65-.66,23.96-6.71,34.05-.77,1.28-6.93,9.48-6.19,3.83.35-2.68,5.45-9.42,6.79-13.22.86-2.44,3.23-10.74,3.23-12.77,0-5.56.31-11.51,0-17Z"/>
  <path class="cls-27" d="M749.72,634.44c3.06,1.27,1.74,5.46,2.27,8.23,2.64,13.66,6.75,26.68,13.73,38.76-1.61,1.52-7.4-7-8.19-8.3-2.72-4.47-7.81-17.29-7.81-22.19v-16.5Z"/>
  <path class="cls-12" d="M493.72,673.45c-8.22,6.83-21.96,8.73-32.37,7.86-2.44-.2-14.44-2.63-15.62-3.89-.72-.76-.51-2.13,1.4-1.91,5.17.6,10.96,2.54,16.11,2.91,10.76.77,20.34-1.94,30.48-4.97Z"/>
  <path class="cls-12" d="M781.72,567.44c-3.24,13.15-11.6,26.31-21.99,34.99.84-3.86,3.53-7.55,5.57-10.92,4.39-7.23,9.28-15.05,13.94-22.09.76-1.16-.25-2.59,2.47-1.99Z"/>
  <path class="cls-27" d="M136.71,594.44c-9.8-9.52-20.48-22.04-24.98-35,6.07,5.44,11.18,12.9,15.81,19.68,3.29,4.82,6.99,9.88,9.17,15.32Z"/>
  <path class="cls-31" d="M425.72,670.43c-2.3,2.69-11.16-13.15-11.85-14.64-3.1-6.61-5.73-13.92-5.13-21.35l10.46,24.03c1.9,4.14,7.17,6.97,6.53,11.96Z"/>
  <path class="cls-31" d="M355.72,613.43c-6.74,3.17-34.6-19.24-30.99-22.98,1.56-1.62,6.34,6.01,7.45,7.04,7.21,6.69,15.66,10.39,23.55,15.94Z"/>
  <path class="cls-31" d="M756.72,453.43c-1.07.93-22.4-11.94-24.92-13.57-3.18-2.07-7.11-4.13-9.08-7.41,1.86-.48,2.78.72,4.13,1.36,2.3,1.1,32.1,17.68,29.87,19.62Z"/>
  <path class="cls-14" d="M423.72,677.44v27.5c0,.17-1.35,1.57-1.99,1.5-1.66-1.68-1.25-23.39-.3-26.83.49-1.78-.32-2.58,2.29-2.17Z"/>
  <path class="cls-1" d="M358.7,298.44c4.13,9.76,12.47,17.57,15.01,27.99-5.3-5.03-10.11-13.33-13.51-19.98-.83-1.63-5.79-9.05-1.5-8.01Z"/>
  <path class="cls-1" d="M572.71,703.43c-1.83-.3-1.07-5.13-.98-6.48.53-7.46,2.34-15.13,3.48-22.5,1.59,1.14,1.61,2.68,1.55,4.44-.11,3.33-.71,9.6-1.16,12.93-.54,3.96-1.82,7.8-2.89,11.61Z"/>
  <path class="cls-41" d="M294.72,383.43c-1.03-.92,15.9-19.88,17.99-20.99-1.25,4.55-5.34,9.51-8.48,13.01-1.07,1.2-8.33,9.03-9.51,7.98Z"/>
  <path class="cls-27" d="M509.73,696.43c-.73-.68,4.79-7.91,4.55-9.94l1.43-12.05c1.57,5.03,2.24,10.07.74,15.23-.56,1.94-4.2,9.11-6.73,6.76Z"/>
  <path class="cls-7" d="M445.72,819.43c-.76.72-6.04-3.64-7.01-4.48-5.91-5.05-11.3-11.36-17.51-16.49-13.71-11.3-29.34-19.96-43.58-30.45-.52-.38-3.65-1.08-1.89-2.58,2.17-1.84,36.82,21.4,40.89,24.6,2.66,2.09,30.77,27.82,29.1,29.39Z"/>
  <path class="cls-18" d="M316.72,969.44c.37,2.18-3.13,3.73-4.68,4.81-6.39,4.45-14.32,5.77-17.36,13.64-5.91,15.31-2.53,31.53.3,46.79.24,1.31,1.88,1.96-.75,1.75-9.39-10.62-8.83-43.21-.95-53.93,4.61-6.27,16.47-9.62,23.43-13.06Z"/>
  <path class="cls-12" d="M342.72,941.44c-4.06,14.51-1.89,29.31,7.17,41.32,1.18,1.56,10.96,9.73,6.31,10.67-.99.2-6.43-4.4-7.47-5.51-9.47-10.01-12.64-24.43-10.92-37.91.14-1.11,2.76-10.87,4.91-8.58Z"/>
  <path class="cls-12" d="M333.72,1064.45c-8.71,13.71-13.36,27.58-15.86,43.63-.76,4.9-.58,10.17-1.1,14.9-.16,1.49-.22,3.08-2.03,3.46-2.76-15.66,1.63-35.6,8.8-49.69.76-1.5,8.1-14.3,10.19-12.3Z"/>
  <path class="cls-12" d="M325.72,1046.43c6.43-7.36,16.24-11.37,21.41-20.08l9.58-20.91c.56,19.37-12.91,35.57-30.99,40.99Z"/>
  <path class="cls-27" d="M279.72,1052.44l-14.99,54.99c.54-16.34,3.95-34.77,10.82-49.67.26-.56,2.62-7.19,4.17-5.32Z"/>
  <path class="cls-6" d="M549.72,919.44v26.5c0,5.51,5.32,20.61,8.56,25.44.88,1.31,5.39,5.13,5.42,5.56.25,4.53-7.68-3.68-8.39-4.59-9.12-11.66-10.81-35.82-8.09-49.96.34-1.79-.02-3.53,2.5-2.95Z"/>
  <path class="cls-22" d="M579.71,1062.44c3.43,3.44,4.45,30.82,4.06,36.54s-1.27,15.92-6.03,19.46c3.73-19.55,3.45-35.25.21-54.74-.33-2,1.22-1.8,1.76-1.26Z"/>
  <path class="cls-12" d="M584.72,987.43c10.78-7.6,19.74-15.7,25.82-27.67l5.17-10.32c-.21,16.42-14.81,35.12-30.99,37.99Z"/>
  <path class="cls-6" d="M605.71,1036.44c-4.14-2.17-4.43-7.38-6.45-11.04-2.45-4.46-6.88-9.92-8.72-14.3-2.23-5.32,3.58-.04,5.15,1.87,4.98,6.07,8.91,15.71,10.01,23.48Z"/>
  <path class="cls-40" d="M615.72,1210.43c6.84-5.55,17.07-6.93,24.99-10.99,2.14,2.2-7.81,7-9,7.49-4.68,1.92-10.97,3.57-15.99,3.5Z"/>
  <path class="cls-22" d="M284.72,1224.45c.07,1.82.5,2.09-1.49,2-3.87-.19-8.93-2.3-13.14-2.87-6.64-.9-13.4-.53-19.86-1.15-.89-.08-7.65-.9-5.51-2.98,1.11-1.09,12.17-1.16,14.49-.99,8.63.61,17.14,4.27,25.52,5.99Z"/>
  <path class="cls-22" d="M422.38,227.52c10.72,3.6,20.53,9.29,31.56,12.2,22.88,6.04,48.76,5.44,72.15,2.59,2.34-.29,11.55-2.81,12.16-2.71,2.24.38,1.72,11.75,1.24,14.11-3.34,16.43-40.85,21.24-54.31,20.77-15.75-.55-47.27-6.87-57.97-19.03-5.54-6.3-11.19-20.95-4.83-27.93Z"/>
  <path class="cls-46" d="M513.72,284.44c.23,1.43-1.76,1.45-2.78,1.71-6.08,1.52-12.68,1.86-18.79.31-1.68-.43-2.91,1.01-2.43-2.02h24Z"/>
  <path class="cls-33" d="M506.72,125.45c.02,1.45-3.05,1.93-4.21,2.27-18.1,5.33-45.4-1.7-62.56-9.01-1.23-.53-2.95-.54-3.23-2.26,23.66,5.88,44.98,17.82,69.99,9Z"/>
  <path class="cls-41" d="M463.71,146.44l-34.98-17.99c9.46,2.74,20.46,7.45,29.01,12.47,1,.59,7.52,3.95,5.97,5.52Z"/>
  <path class="cls-1" d="M510.73,146.43c-.45-2.25,2.52-3.17,4.11-4.38,5.42-4.11,11.64-7.24,16.88-11.62,1.14,1.25-5.92,7.47-7.07,8.42-3.5,2.85-9.5,6.97-13.91,7.58Z"/>
  <path class="cls-8" d="M360.72,204.43c-4.66,1.56-4.14-5.26-5.07-5.91-5.5-3.87-10.32,10.87-3.35,17.85,1.91,1.91,4.9,1.14,4.43,4.06-10.18.37-13.89-13.03-10.49-20.99,2.64-6.19,8.51-4.91,8.51-5.52-.02-3.67-7.47-18.45-13.01-16.49,3.13-8.31,10.24,1.51,12.8,5.7,3.83,6.25,6.64,13.9,6.19,21.3Z"/>
  <path class="cls-4" d="M391.42,508.15c-6.56,7.92-26.23,4.11-33.19-2.73-9.41-9.24,1.08-15.44,10.95-15,6.66.29,29.7,8.72,22.24,17.73Z"/>
  <path class="cls-5" d="M659.45,481.66c19.81-4.18-.67,24.91-12.12,17.67-7.89-4.99,6.8-16.55,12.12-17.67Z"/>
  <path class="cls-10" d="M520.72,265.44c-25.33,7.53-53.85,6.66-77.77-4.45l3.78-19.54c12.58,4.01,25.71,6.69,39,6.99l-1,20c2.6.43,1.8-.39,2.28-2.16,1.4-5.1,1.09-12.39,1.71-17.84l32.01-1.99v19Z"/>
  <path class="cls-32" d="M440.71,260.44c-11.45-4.54-18.38-16.77-16.98-29l19.56,8.96c1.54,2.23-3.4,16.14-2.58,20.04Z"/>
  <path class="cls-47" d="M522.72,247.94c-.04-.32-1.15-.72-1.01-1.49l15.01-2.01c1.08,8.55-5.48,17.52-13.52,19.99-2.89.89-.48-1.41-.48-1.48,0-4.54.57-10.77,0-15Z"/>
</svg>