<svg xmlns="http://www.w3.org/2000/svg" xmlns:xlink="http://www.w3.org/1999/xlink" width="1410.485" height="813.594" viewBox="0 0 1410.485 813.594">
  <defs>
    <clipPath id="clip-path">
      <rect id="Rechteck_5335" data-name="Rechteck 5335" width="1410.485" height="813.594" fill="none"/>
    </clipPath>
  </defs>
  <g id="Gruppe_12000" data-name="Gruppe 12000" transform="translate(-81.695 -105.795)">
    <g id="Gruppe_12001" data-name="Gruppe 12001">
      <g id="Gruppe_11998" data-name="Gruppe 11998" transform="translate(81.695 105.795)">
        <g id="Gruppe_11997" data-name="Gruppe 11997" clip-path="url(#clip-path)">
          <g id="Gruppe_11996" data-name="Gruppe 11996">
            <g id="Gruppe_11995" data-name="Gruppe 11995" clip-path="url(#clip-path)">
              <path id="Pfad_28025" data-name="Pfad 28025" d="M1404,179a92.679,92.679,0,0,1,23,0c15.456.5,30.065,2.135,45,6.5,19.177,5.607,20.786,7.712,20.043,28.039-1.529,41.833-34.159,61.1-68.684,77.316-4.3,2.02-15.059,4.912-17.889,7.111-3.874,3.011-17.908,28.232-23.053,34.947-3.686,4.809-7.991,9.034-12,13.535,4.8,58.713,36.239,115.148,38.588,173.55a100.26,100.26,0,0,1,0,22c.589,9.461,5.472,15.309,8.659,23.841,4.788,12.816,8.658,24.332,9.341,38.159a18.148,18.148,0,0,1,0,10c-.612,17.187-9.676,34.066-23,45-.747,3.008-1.348,4.16-4.5,5.621q-12.52,6.1-25.431,11.247c-47.692,37.2-112.139,58.931-172.87,56.943-11.742,4.738-29.376,7.657-42.405,6.97A7.51,7.51,0,0,1,1155,738c-1.864,1.788-7,1.784-9.5,1a116.825,116.825,0,0,1-28,0c-2.429.953-7.533.709-9.5-1l-2.827,1.19a319.316,319.316,0,0,1-56.362-5.907,190.87,190.87,0,0,1-79.928,14.955c-19.72,10.2-41.794,16.471-64.783,15.035.181,15.308.082,30.927-6.295,45.8-9.606,22.4-24.034,26.34-46.091,30.306-63.359,39.188-134.884,35.135-206.467,30.868a8.133,8.133,0,0,1-2.631-.791A17.335,17.335,0,0,1,640,868c-8.256.474-16.932.675-25-1q-1.613,2.794-6.232,3.556c-18.376,12.241-40.641,16.889-62.8,17.813,3.85,18.154-28.714,25.943-42.16,27.417A11.377,11.377,0,0,1,496,915a124.583,124.583,0,0,1-15,1c-13.656.387-27.346.568-41,0-12.914-.569-30.173-3.456-42.263-8.237-19.108-7.556-25.718-19.926-4.113-30.639,3.121-1.548,13.2-3.825,13.438-6.633.092-1.1-3.176-10.424-3.744-13.309C398.628,833.325,395.13,808.971,391,785q-4.039-4.852-1-9a38.514,38.514,0,0,1-2.058-4.032,20.622,20.622,0,0,1-1.418-4.147c-2.646-13.907-5.139-27.864-7.33-41.84l-8.139-5.229c-29.987,38.72-77.986,56.779-124.954,64.717-8.32,1.406-40.343,6.248-45.959,3.8A11.924,11.924,0,0,1,198,788c-5.779,1.587-12.362,1.939-18,0l-2.627,1.919c-21.072-.973-43.7-2.827-63.106-11.812C107.472,774.962,96.2,769.42,95,762c-6.1-6.909-8.692-14.131-10-23a74.417,74.417,0,0,1,0-14c.533-3.766,3.061-12.066,2.953-14.415-.186-4.053-3.883-12.391-4.7-17.341C74.45,639.685,103.945,590,145.683,559.183c30.124-22.241,66.894-33.09,97.226-54.774,2.655-1.9,11.714-8.021,11.729-10.9.01-1.887-4.049-8.895-4.918-11.727-8.913-29.053,3.349-55.857,23.28-75.78,2.543-2.875,5.757.487,3,3l-.635,3.756c-24.957,28.508-26.947,71.127,1.866,97.729,1.389,2.234.005,3-2.314,3.749-1.22.4-16.99-11.722-16.184-14.618a161.323,161.323,0,0,1-43.18,30.106c-42.028,20.492-82.255,40.6-107.053,82.063-15.028,25.126-21.658,55.191-16.049,84.143,1.349-3.085,9.646-17.644,13.3-14.455a2.6,2.6,0,0,1,.545,1.866c-16.945,37.323-25.458,73.888,22.885,88.991,60.564,18.922,166.524.683,216.231-39a88.43,88.43,0,0,0,17.455-18.166c-22.728-21.736-37.9-53.6-42.552-84.295-17.279,38.926-37.04,79.211-72.392,104.361-3.521,2.505-32.289,16.111-34.489,13.69-1.884-2.073-2.08-3.669.61-4.976,41.931-17.231,67.459-56.652,87.131-95.638,14.678-29.09,28.412-59,40.362-89.543,11.533-1.91,23.585,7.1,4.741,7.539l-6.649,20.641c-10.606,22.047-14.726,30.711-7,55.058,7.971,25.12,22.215,54.645,43.669,70.274q-6.63-37.529-12.329-73.957c-8.128-5.223-9.035-17.956-4.608-26.038-17.416-19.372-10.432-50.81,14.5-59.549-.885-4.061-2.149-23.387-.221-25.424L376,527l.561-4.63c-1.261-2.971-1.343-7.8,2.439-8.37-2.984-6.829,5.044-10.229,11.883-8.349,9.621,2.645,9.7,9.484,5.877,17.471a353.476,353.476,0,0,0,67.406,26.9c15.228-5.573,38.718-6.931,48.665,8.652,1.374.75,10.542-2.466,11.786-3.7,3.442-3.423,10.809-44.6,9.5-49.4q-9.33-10.378-18.509-20.989a84.044,84.044,0,0,0-15.427.012c-3.381-.049-12.429-1-7.178-4.6,1.468-3.265,13.746-3.127,15.5,0a4.135,4.135,0,0,1,.362-2.138c.465-1.279-15.26-20.258-16.569-20.633-29.322,5.461-50.667-1.61-68.129-26.416.575-5.345,5.506-2.118,8.239.621,24.816,30.1,66.58,15.187,97.426,3.861,4.218-1.549,8.392-3.318,12.508-5.134-6.54-3.9,2-7.571,6.333-9,8.366-2.765,15.614-1.137,18.452,8.143,3.341,10.928-7.148,3.037-10.226-1.964a96.416,96.416,0,0,1-32.372,21.1l33.278,37.9c4.02,10.293,3.838,21.989,2.409,32.816L558,520q.079,5.691-3,9c2.382,2.374,1.4,10.042-2,11a1.82,1.82,0,0,0,1.181,2.6A13.07,13.07,0,0,0,552,551a92.347,92.347,0,0,1-1.86,13.359c9.919-6.244,23.638-12.929,35.615-12.239,14.312.824,1.929,6.644-5.184,7.562-9.679,3.151-19.462,6.628-28.1,12.066-5.972,3.758-7.042,7.29-8.966,13.972,13.643,8.5,18.734,22.962,17.415,38.544,9.912,3.237,9.722,10.6,8.948,19.3l-11.127,56.057c15.883,4.435,30.849,15.226,36.858,30.886,29.111-1.665,60.913-7.463,80.876-30.751-5.4-11.812-8.063-24.265-10.163-36.985l1.7-1.771q-.4-12.052,0-23l-1.655-1.635,1.794-10.8c-12.2-8.146-24.577-21.2-28.261-35.919-1.255-5.013-1.531-11.528,4.941-7.228,10.257,22.156,28.943,39.849,53.112,45.316a2.933,2.933,0,0,1,2.266,4.258c-1.018,2.4-18.072.669-21.064-1.02-5.949,28.88,1.445,61.893,20.451,84.467a195.546,195.546,0,0,0,21.181-11.1c22.807-12.405,71.569-20.577,91.263.3,3.75,3.977,6.517,6.974-.552,6.156-33.152-15.8-67.864-7.743-98.415,9.963L675.947,741c-20.974,11.2-43.666,16.561-67.051,14.573,2.717,3.986,14.069,32.818,6.418,34.581a2.305,2.305,0,0,1-2.826-1.044c-7.056-22.073-18.578-50.169-34.813-67.161-3.3-3.459-17.122-13.1-21.259-12.076a21.345,21.345,0,0,0-1.061,4.726c5.061-.015,11.383,1.98,6.529,7.577-28.41,4.264-56.079,11.071-82.344,21.968C470.2,748.021,444.531,763.192,459,773.9c14,10.356,82.786-7.51,95.465-11.832,10.691-.08,3.165,6.261-2.116,9.185-24.365,13.49-65.684,15.779-93.138,15.167-13.629,19.1,21.329,26.086,34.8,26.514L495,815a212.463,212.463,0,0,1,29,0,11.639,11.639,0,0,1,4.643-2.284c5.071-.919,26.6-3.955,29.452-3.028,2.9.944-.543,7.8-4.095,5.312-10.446,4.682-23.692,7.1-35,6a89.378,89.378,0,0,1-22,0c-1.851,1.34-4.959,1.027-7,0q-3.048-1.089-4.178,1.048l-23.194-5.6a19.819,19.819,0,0,0,.262,7.27c5.508,24.991,64.357,26.778,82.516,24.54,5.23.661,4.309,4.046-.291,5.82-17.7,6.824-42.823,2.926-60.963-1.082,31.988,36.991,98.91,30.628,133.411-.667,3.208-1.811,6.984,3.822,2.437,4.673q-1.2,2.121-1.932,3.743Q651.6,860.308,685,863q5.412,2.028,8.169-.947L695,864h23.5a129.13,129.13,0,0,1,20,0,34.683,34.683,0,0,1,8.5-1l5.513-2.572c32.8-3.353,64.3-15.6,93.55-28.628,27.59-7.69,44.454-14.205,47.1-46a78.056,78.056,0,0,0,.239-11.162,161.273,161.273,0,0,1-1.384-41.318c17.985-69.7-10.1-144.247-62.084-191.866a275.61,275.61,0,0,1-7.08,30.677c-.886,4.41-6.111,7.04-6.32,1.227,26.184-117.785-88.176-209.307-198.079-167.866A28.19,28.19,0,0,1,605,410c-3.065-.329-3.01-4.038-1-6,32.057-22,80.125-20.663,116.422-10.922,50.054,13.432,88.071,54.743,102.816,103.688l23.286,8.087c25.923-39.059,75.041-55.717,120.511-46.388,7.392,1.517,19.445,7.268,25.5,7.587,6.129.323,16.987-2.679,23.973-3.042,16.777-.872,33.124,1.808,49.487,4.983-1.676-5.735-1.784-11.132-2-16.993a39.6,39.6,0,0,1,0-15c.991-22.486,9.069-50.667,14.493-73.007,1.045-4.306,6.361-18.642,6.222-21.337-.075-1.46-4.685-12.6-5.687-13.916-2.051-2.692-7.575-6.286-10.444-9.824C1055.721,302.055,1045.609,275.17,1043,255a27.682,27.682,0,0,1,0-10c2.577-6.778,15.141-17.778,21.085-22.415,44.474-34.689,118.307-45.349,173.405-41.575,4.3.295,16.688,1.817,19.585,4.415,4.821,4.325,4.4,29.388,3.973,36.123-.451,7.18-2.461,11.954-4.048,18.452h14.5c.75,0,5.178-11.344,6.476-13.524C1299.368,190.529,1365.922,180.058,1404,179m80,18.99c-4.218-3.9-12.459-5.884-18.176-7.314-44.638-11.166-158.609-6.372-183.005,40.643-1.77,3.41-5.789,13.3-.274,14.635,15.594,3.767,33.558,1.684,48.8,7.842,44.546-32.165,96.47-56.383,152.655-55.806m-233.005-8.985c-31.4-2.847-65.092-2.121-96.225,3.265-28.864,4.993-85.2,24.867-102.329,49.667-4.987,7.219,1.022,8.519,7.317,10.805,51.7,18.773,140.547-21.6,182.133-53.351,3.548-2.709,8.539-5.482,9.1-10.386M1049.01,252c-.792,1.064,3.493,19.388,4.941,21.549,3.367,5.019,26.209,9,32.559,9.441C1150.736,287.425,1205.691,249.7,1253.5,212c1.868-5.919.968-11.028.487-17-27.261,19.521-58.78,38.9-90,51.486-34.1,13.747-81.22,23.754-114.976,5.514m435.9-49.921c-15.315.79-28.96,1.218-44.119,4.213-26.521,5.24-52.155,16.068-75.464,29.536-44.577,25.757-85.577,65.939-142.53,52.874-4.419-1.014-7.766-2.965-11.794-4.7,1.631,4.845,2.585,18.061,6.611,20.879,2.422,1.694,11.7,3.546,15,4,57.022,7.792,95.29-33.466,139.711-59.055,20.853-12.014,47.928-24.034,71.621-28.379,13.223-2.425,26.836-2.309,40.025-4.975,3.475-1.818,2.179-10.882.937-14.4M1187.005,335.995c-.538-2.219,1.3-2.216,2.294-3.2,4.869-4.8,20.282-16.581,21.535-22.545.214-1.017-5-16.538-5.578-20.01-4.52-27.308,9.927-35.685,32.764-44.724,2.69-1.064,9.916-2.01,11.491-3.509,3.07-2.919,4.746-19.322,4.479-24.011-54.56,44.393-124.9,88.506-197.985,63.005,3.393,11.927,10.06,25.929,18.017,35.473,2.888,3.464,7.291,6.156,9.828,9.172,2.383,2.833,3.53,8.126,5.176,9.824,3.347,3.456,23.409,10.047,28.969,9.536.27,1.308-1.846,1.593-2.736,1.733-9.175,1.448-17.492-2.962-26.253-4.739l-10.831,53.41c26.374,20.176,67.016,21.989,98.041,13.3,12.192-3.414,27.308-9.653,34.7-20.135-3.72-19.268-6.925-38.913-6.916-58.571-1.286-.7-13.365,8.078-16.993,5.985m298-114c-29.114,1.315-56.024,6.058-82.677,17.83-32.428,14.321-57.482,37.166-87.655,54.345-29.236,16.647-63.508,26.665-96.672,15.838,7.326,18.823,20.621,39.073,40.461,46.029,12.492,4.379,28.471,6.193,41.539,3.971-1.253,2.284-5.435,3.178-7.778,3.712-15.921,3.629-30.613-.632-45.209-6.722-1.107,7.887-20.078,56.469-18.545,59.958.991,2.256,13.146,10.35,16.012,12.062,25.894,15.473,60.2,19.614,89.53,13.49,16.382-3.421,34.033-10.6,44.589-23.966-5.5-22.967-12.308-45.754-13.609-69.544-4.982,4.02-11.779,4.747-17.985,4.505,4.3-3.978,10.109-5.781,14.9-9.1,13.779-9.527,25-29.3,34.907-43.093,1.186-1.651,4.459-8.1,4.847-8.391,1.9-1.412,12.419-4.125,16.011-5.751a215.317,215.317,0,0,0,33.641-19.359c15.318-10.791,33.4-25.427,33.689-45.818m-212.088,23.092c-1.3-1.24-27.052,5.179-30.875,6.452-8.064,2.686-36.7,15.907-29.873,27.724,4.578,7.919,34.843,7.348,43.373,6.776,27.091-1.817,47.211-16.308,70.455-28.056,2.095-2.152-5.589-2.723-6.617-2.866-8.03-1.115-40.911-2.706-45.4-6.624-1.172-1.023-.77-3.126-1.063-3.406M1224,404c6.288-16.826,11.967-33.906,18.759-50.543-12.87-8.389-20.887-21.326-28.247-34.418-1.088-.113-4.554,3.961-4.953,5-1.78,4.655,2.58,30.444,3.59,37.266,2.068,13.959,4.737,27.894,7.851,41.692.438,1.943.636,4.031,1.011,5.994,1.949.2,1.424-3.482,1.989-4.994m-152,61c.362,1.932.938,3.857,1.176,5.823a76,76,0,0,1,20.842,7.659c4.061,2.2,14.034,10.565,16.73,11.28,4.16,1.1,22.047-1.236,28.794-.8,22.38,1.433,27.829,8.319,46.1,15.9,12.489,5.183,26.308,5.055,39.357,8.133-11.777-18.958-14.731-41.429-12.983-63.475.713-8.991,6.088-21.4,6.062-29.021-.022-6.382-5.674-15.357-5.083-22.49-.562-.6-12.286,7.6-13.973,8.517-32.733,17.736-82.73,18.6-115.324.28-2.055-1.155-5.116-4.314-6.211-4.794-1.673-.733-1.326.613-1.6,1.361-1.119,3.071-2.241,9.171-2.888,12.631-3,16.048-4.018,32.873-1,49m308.988-39c-34.791,33.078-99.5,32.651-139.294,8.8L1225.007,423c-6.6,22.6-9.468,46.734-2.041,69.532,1.767,5.423,8.632,21.312,13.462,23.538,8.283,3.818,21.747,5.966,31.255,9.745,24.53,9.751,53.659,29,71.857,48.143.769.81,4.167,5.264,3.45,6.04-16.367-8.929-30.18-21.716-46.075-31.415C1264.4,528.74,1228.237,519.878,1191,513.01c42.917,49.911,49.514,129.22,25.769,189.259-3.1,7.831-7.275,15.106-10.759,22.73,8.593-1.435,17.5-1.15,26.348-2.141,35.844-4.013,74.85-16.18,106.313-33.687,10.871-6.049,20.495-14.44,30.633-20.367,6.757-3.951,14.156-4.889,21.61-9.39,33.418-20.182,33.91-49.813,23.106-83.934-2.517-7.947-9.4-20.4-10.8-27.2-1.486-7.223.234-18.872-.181-26.819-1.712-32.824-13.4-64.129-22.053-95.457M545.44,485.622c-10.549-11.946-21.153-23.892-32.471-35.139-3.684-1.694-8.9,2.77-12.968,2.528l35.5,40.972c3.142-3.152,6.8-6.755,11.494-6.994.384-1.484-1.019-.761-1.554-1.367M1144.5,496c-8.768-.811-18.61.6-27.5,0,10.326,13.489,20.61,27.987,18.995,45.995-2.258.415-1.6-.1-2.234-1.271-2.4-4.419-4.134-12.176-6.584-17.4-26.387-56.267-103.115-61.482-155.944-45.59-10.007,3.01-19.154,8.488-29.233,10.257,9.125-9.848,23.612-15.1,36.5-18.011,1.55-.35,1.744.687,1.5-1.973-5.752-.179-11.205-2.808-16.775-3.735-42.151-7.014-82.507,6.8-109.224,40.234,62.8-1.915,115.28,39.263,135.742,97.248,13.173,37.326,15.237,93.017-5.578,127.916L976.01,741c11.1-1.287,22.188-2.237,33.2-4.292,18-3.361,37.574-9.153,53.1-18.9,3.2-2.011,15.753-12.538,17.183-12.822.563-.111,1.652-.246,1.507.512-5.165,7.972-13.254,12.889-19.715,19.219-.566.555-1.978-.056-1.27,2.284a5.536,5.536,0,0,1,2.778-.35c35.513,6.125,77.837,7.088,113.7,3.344,2.545-.265,18.647-2.482,19.44-3.065.079-.058-.707-1.417-.324-1.938,28.778-39.214,32.316-95.257,21.9-142-7.944-35.66-32.029-83.2-73.011-86.989m-588.506,4c-1.751-7.764-5.345-10.032-12.7-6.2-.7.364-6.076,3.911-6.291,4.222-.729,1.054,1.468,3.548,2.628,3.775,2.763.541,11.442-5.521,16.359-1.8M905,660c1.422,9.764,1.472,21.065,2,31l-2.166,23.334c.54,8.631-6.133,22.1-6.525,29.308-.064,1.177,2.3,11.886,2.827,12.224,3.519,2.253,37.6-4.737,43.626-6.6,25.812-8,35.753-20.345,42.954-46.046,21.577-77.01-22.54-176.213-106.531-189.9-7.269-1.184-14.045-1.074-21.184-2.306,7.989,5.961,16.748,10.624,24.472,17.018,3.24,2.683,5.989,6.077,9.522,8.478l-1.479.484C871.953,522.127,848.32,512.6,825.009,503c2.69,6.1,1.221,18.824,3.5,23.986.96,2.172,9.9,8.774,12.513,11.487C873.131,571.814,898.218,613.423,905,660M555,504c-6.543.338-17.265-.209-15.008,9.008,1.828-.2,13.47,0,14.03-.421,1.829-1.388.715-6.3.978-8.587m-168.009,61c-5.508-16.146-3-36.683,6.988-50.5l-7.446-4.527a48.163,48.163,0,0,0-5.262,15.805c-1.282,7.766-2.058,31.116,2.26,37.19.833,1.173,1.786,2.351,3.46,2.03M552,523l2-5.993-13.86,1.129-15.17,61.357c-.307,2.278.528,1.155,1.548,1.505,2.229.763,8.715,3.694,9.978,2.02L552,524c-.013-.333.017-.668,0-1m-94,34.014a441.489,441.489,0,0,1-65.992-26.009c-.922,6.793-2.956,12.755-2.01,20,13.086-.894,25.4,4.18,31.709,16.013,13.013.534,24.067-.235,34.991-7.788.875-.6,1.855.165,1.3-2.216M442.5,573c-4.776.642-11.876,0-17,0-.229,0-1.331-1.9-1.512-.488,1.735,4.649.814,9.632,1.022,14.488,11.263-5.83,24.056-3.713,35.825-6.665,3.671-.922,7.023-3.633,10.16-2.84-7.9,10.608-21.2,7.47-32.374,8.626-12.777,1.323-21.585,6.6-31.092,14.908-6.592,5.763-11.809,13.256-13.541,21.969-2.217-.14-1.736-3.74-2.007-4-.291-.278-3.271.948-4.478,1-6.025.264-11.128-.071-16.8-2.207-2.219-.835-3.436-2.718-5.7-2.788-1.006,4.268-.569,15.768,3.034,18.456,3.2,2.385,28.228,5.05,29.957,3.532.377-2.223-4.576-9.586,0-9-.808,2.1,3.406,9.391,4.788,9.974,3.892,1.641,16.059,3.287,20.847,3.9,31.639,4.074,82.246,2.1,113.188-5.554,12.2-3.016,17.289-3.3,16.164-17.8-1.769-22.8-19.637-30.743-39.871-33.628.39-17.877-12.218-32.231-30.65-30.917-16.528,1.178-24.859,17-39.96,19.032M421,586.987c-.871-11.978-4.835-22.937-17.019-27.472-4.651-1.731-8.085-1.041-12.5-2.468-2.613.209,1.193,7.392.367,10.24-1.242,4.284-7.085,4.308-10.362,1.722-5.452-4.3-1.578-12.306-11.511-4.534-10.674,8.351-14.292,21.031-9.754,33.8,5.17,14.547,17.247,18.152,31.665,17.6,3.347-13.512,16.9-23.854,29.118-28.891M522.995,567l-5.986,0,2,10c2.638.289,1.582-.046,2.011-1.476.4-1.322,2.329-8.182,1.978-8.524M537,718c2.774-.656,8.418-.048,9.82-2.68L562,638.469c.686-3.868-.468-6.2-3.5-8.451-4.26,8.883-12.864,10.151-21.682,12.3-31.177,7.6-86.511,9.717-118.041,4.407-6-1.012-14.418-4.86-19.235-5.155-9.179-.561-19.017.887-28.541-1.559l42.74,232.505c-.234,2.828-24.4,9.95-26.566,17.2-2.337,7.816,14.162,12.465,19.61,14,27.28,7.686,63.57,8.07,91.573,4.141,9.01-1.264,32.31-5.524,37.643-12.857,1.864-2.563,2.692-5.568,0-8-3.338-3.016-22.249-3.59-27.517-6.9a125.994,125.994,0,0,1-71.494,6.412c-2.292-.486-16.218-4.692-16.985-5.527-.088-.1-.377-2.111.508-2,22.413,5.524,45.916,6.861,68.717,2.742,1.764-.319,12.281-2.307,12.774-2.735,1.642-1.425-.567-1.768-1.291-2.236C494.595,872.807,489.747,871.619,484,866a26.822,26.822,0,0,1-4-5c-2.832-4.236-5.292-12.557-6.253-13.747-.921-1.139-10.067-5.926-12.739-8.761-5.07-5.381-9.206-14.422-7.95-21.942.4-2.4,3.161-5.012,2.934-5.988-.218-.934-3.026-1.932-3.991-3.063-5.237-6.132-6.331-13.514-2.892-20.889,1.051-2.254,4.872-5.719,4.873-6.11,0-.55-5.437-3.33-6.534-8.446-5.252-24.48,30.146-37.08,48.328-42.278,3.361-11.878,2.338-25.648,7.739-36.767,2.5-.333,1.182.7,1.053,2.047q-1.59,16.575-4.562,32.939C512.33,724.765,524.6,720.932,537,718m67,21c-1.706-.118-3.357-.434-5.009-.491,1.025,2.454,2.48,7.092,4.73,8.27,3.493,1.829,18.664,1.574,23.279,1.221,15.978-1.22,36.061-8.922,50.379-16.121,2.558-1.286,16.03-8.39,15.59-10.315a51.409,51.409,0,0,1-3.8-4.234c-1.185-1.745-5.728-9.937-6.19-10.323-1.579-1.317-3.131,2.879-4.429,4.041-14.729,13.2-33.356,20.372-52.518,24.486Z" transform="translate(-81.695 -105.795)"/>
              <path id="Pfad_28026" data-name="Pfad 28026" d="M448,107a121.32,121.32,0,0,1,29,0c16.306,1.091,36.675,7.837,49.481,18.019,4.915,3.909,11.808,9.13,10.3,16.227-5.532,18.569-13.65,36.963-18.245,55.778-.414,1.694-.09,3.557-.555,5.269A92.859,92.859,0,0,1,532,213l10,11c7.095,8.891,13.656,17.467,18.858,27.642,6.958,13.612,11.026,28.367,14.24,43.261,2.652,1.88,28.2-9.363,34.882-6.376,3.6,1.609,3.726,9.712,3.362,13.321-1.011,10.03-7.031,29.556-10.595,39.4-1.333,3.686-6.519,12.838-6.75,15.35-.2,2.132,1.542,6.78,2,9.4a25.5,25.5,0,0,1,0,11c-.743,15.789.271,13.6,6,27,.861,2.014.668,4.048,1,6l1.865,2.978c4.759,22.447,9.747,46.142,11.113,68.79.45,7.461.051,10.26-4.15,16.5-13.267,19.714-37.27,38.877-57.06,51.9a5.8,5.8,0,0,1-2.2.686A13.154,13.154,0,0,1,552,551c-4.51-4,.158-7.18,1-11q1.816,1.935,1.46-.614c8.534-3.99,56-47.761,55.432-53.22-3.059-29.5-9.353-61.941-18.412-89.986l-8.789,11.576c-3.107,2.747-6.759,1.522-9.237-1.467-5.933-12.886-13.814-15.969-27.433-14.515-6.049,20.583-23.771,25.3-40.816,14.122a576.954,576.954,0,0,1-68.617-2.3,115.757,115.757,0,0,0-31.7-4.957q-8.565,7.428-17.666,13.866l-1.432-.08a185.741,185.741,0,0,0-24.135-26.089c-8.71-9.766-10.118-16.635-11.595-29.068-1.017-8.9-5.33-13.833-13.306-6.452a56.005,56.005,0,0,1,8.106,24.543c1.686,38.183,3.48,77.142,7.087,115.671.27,2.89,21.744,18.969,26.044,21.014L379,514c-1.588,4.444-1.4,8.769-3,13l-1.311-.447C374.13,520.527,363.9,512.908,358,512l-2.094-.765A19.6,19.6,0,0,0,348,503q-4.618-1.777-6.149-8.337c-5.354-16.114-9.95-28.931-23.437-40.009C298.752,443.418,282.16,431.758,276,409c-.477-.581-.307-2.516-3-3,4.925-4.923,1.251-8.528,1.013-14.513-.756-19.031,7.8-49.265,29.987-52.487,5.939-1.008,6.3-8.079,6-13a154.491,154.491,0,0,1,6-36q1.995-4.8-1-8a41.98,41.98,0,0,0-13-9c-.51-.433-1.235-1.309-2-2a23.079,23.079,0,0,0-6-7c-6.866-13.638,1.344-37.53,6.985-51.515C323.75,156.045,387.051,110.264,448,107" transform="translate(-81.695 -105.795)" fill="#040503"/>
              <path id="Pfad_28027" data-name="Pfad 28027" d="M1404,659c-.959,1.914-1.968,1.918.27,3.24,4.158,2.455,10.584,3.451,15.4,5.587,33.951,15.051,21.38,32.039-5.7,43.641-55.8,23.9-152.111,34.84-213.477,40.524-72.843,6.746-154.326,1.541-224.5,17.5-9.35,2.126-33.962,7.59-41.355,11.645-1.773.973-24.539,28.124-26.068,30.932-4.617,8.475-.588,15.347-9.077,23.923-21.073,21.29-95.12,39.225-125.264,43.736-41.166,6.16-79.748,4.194-120.715,6.285-4.426.226-37.132,3.622-38.468,5.029-.537.566.839,5.04-.965,7.539-2.92,4.048-26.061,9.81-31.888,11.111-11.176,2.495-75.932,12.751-82.182,8.808-1.191-.751-1.353-3.87-4.007-3.5,11.89-1.635,36.118-6.3,44.535-14.965,4.715-4.855,4.98-7.913,2.469-14.029,17.432.107,35.673-2.692,51.67-9.832,7.678-3.428,12.036-8.716,20.326-9.174,7.989,1.763,16.773,1.4,25,1,68.932,3.068,123.052,10.291,188.673-18.827,7.159-3.176,15.642-9.113,22.333-11.667,7.3-2.788,16.326-2.543,23.991-6.009,24.37-11.021,29.821-46.872,26.008-70.492,16.507,1.727,35.6-1.542,51.243-7.257,4.684-1.712,12.827-6.776,16.477-7.523,5.93-1.212,14.372.231,20.765-.235,11.7-.853,27.347-4.135,38.726-7.274,4.975-1.372,17.355-7.084,20.4-7.419,5.236-.575,21.983,3.929,28.9,4.691,10.054,1.108,20.387,1.48,30.488,2.012.284.538.586.969.948,1.028,6.617,1.078,42.244,1.588,44.815-.551A2.622,2.622,0,0,1,1155,738c12.76-.757,26.823-1.4,39.241-4.259,2.071-.477,3.258-2.312,5.3-2.7,6.123-1.162,16.1.387,22.949-.051,42.765-2.732,93.833-19.264,130.031-41.969,6.308-3.956,16.132-12.759,21.573-15.427,10.154-4.978,20.092-6.541,29.906-14.594" transform="translate(-81.695 -105.795)" fill="#9a9b9a"/>
              <path id="Pfad_28028" data-name="Pfad 28028" d="M198,788c60.586-1.611,134.858-18.767,172.5-69.983l10.49,6.739c2.62,17.138,6.069,34.175,9.013,51.244-.251,4.847-1.724,4.642-6,4-33.771,13.146-108.92,18.841-146,19l-11,1c-33.918.16-74.32-.365-107.016-9.484-7.944-2.216-37.835-11.095-29.431-23.469,1.36-2,4.49-2.06,4.447-5.047,19.045,21.576,58.081,25.246,85,26,1.224.209,2.359.41,1.255,1.084,5.445.347,11.483.455,16.745-1.084" transform="translate(-81.695 -105.795)" fill="#9a9b9a"/>
              <path id="Pfad_28029" data-name="Pfad 28029" d="M481,916H440c13.063.575,27.881.376,41,0" transform="translate(-81.695 -105.795)" fill="#62615e"/>
              <path id="Pfad_28030" data-name="Pfad 28030" d="M315,282c-.278-.317-5.8-2.931-7.329-4.169-1.934-1.564-3.783-3.23-5.671-4.831,5.051-2.028,10.013,5.552,13,9" transform="translate(-81.695 -105.795)" fill="#535351"/>
              <path id="Pfad_28031" data-name="Pfad 28031" d="M477,107a268.712,268.712,0,0,0-29,0c1.038-1.656,3.8-1,5.486-1.017,7.561-.08,16.293-.743,23.514,1.017" transform="translate(-81.695 -105.795)" fill="#545352"/>
              <path id="Pfad_28032" data-name="Pfad 28032" d="M310,326a3.389,3.389,0,0,1,.959,2.313c-.063,3.033-1.877,7.11-.953,10.692-1.925.192-4.155-.274-6.006-.005,5.459-3.112,4.731-7.623,6-13" transform="translate(-81.695 -105.795)" fill="#61615f"/>
              <path id="Pfad_28033" data-name="Pfad 28033" d="M294,264c3.122.582,5.15,3.9,8,5.5l-2,1.5c-4.033-3.642-2.995-1.032-6-7" transform="translate(-81.695 -105.795)" fill="#50504f"/>
              <path id="Pfad_28034" data-name="Pfad 28034" d="M1427,179c-7.515-.243-15.48-.209-23,0a53.358,53.358,0,0,1,23,0" transform="translate(-81.695 -105.795)" fill="#53524f"/>
              <path id="Pfad_28035" data-name="Pfad 28035" d="M1409,542c-.451-7.24.292-14.729,0-22a48.845,48.845,0,0,1,0,22" transform="translate(-81.695 -105.795)" fill="#b0ada8"/>
              <path id="Pfad_28036" data-name="Pfad 28036" d="M391,785c-1.809-2.237-4.013-4.472-7-5,2.347-.913,4.7-1.7,6-4,.47,2.728.51,6.157,1,9" transform="translate(-81.695 -105.795)" fill="#efeeec"/>
              <path id="Pfad_28037" data-name="Pfad 28037" d="M542,224c-3.452-3.066-8.437-6.532-10-11,4.756,4.222,6.294,6.357,10,11" transform="translate(-81.695 -105.795)" fill="#9f9f9b"/>
              <path id="Pfad_28038" data-name="Pfad 28038" d="M1064,451c-1.665-3.7-1.692-11.091,0-15-.212,4.8-.175,10.191,0,15" transform="translate(-81.695 -105.795)" fill="#696862"/>
              <path id="Pfad_28039" data-name="Pfad 28039" d="M85,739c-.979-6.636-.925-7.466,0-14Z" transform="translate(-81.695 -105.795)" fill="#8b8b87"/>
              <path id="Pfad_28040" data-name="Pfad 28040" d="M598,377c.172-3.644-.12-7.351,0-11,.554,3.152,2.545,8,0,11" transform="translate(-81.695 -105.795)" fill="#afafac"/>
              <path id="Pfad_28041" data-name="Pfad 28041" d="M316,290c.1-1.728-.072-6.941-1-8,.635.733,2.49,1.048,2.774,2.6.368,2.009-1.349,3.93-1.774,5.4" transform="translate(-81.695 -105.795)" fill="#62615f"/>
              <path id="Pfad_28042" data-name="Pfad 28042" d="M238,799c-2.637,1.839-7.543.984-11,1,2.636-1.838,7.543-.985,11-1" transform="translate(-81.695 -105.795)" fill="#9e9e9c"/>
              <path id="Pfad_28043" data-name="Pfad 28043" d="M1427,614c.116-3.254.16-6.753,0-10,1.661,2.022,1.709,7.786,0,10" transform="translate(-81.695 -105.795)" fill="#c4c4c1"/>
              <path id="Pfad_28044" data-name="Pfad 28044" d="M1043,255c-.55-4.252-2.007-4.722,0-10Z" transform="translate(-81.695 -105.795)" fill="#5c5c59"/>
              <path id="Pfad_28045" data-name="Pfad 28045" d="M605,410c31.833-18.579,69.849-19.36,105.189-11.689,35.763,7.762,63.421,26.853,84.626,56.374C820.606,490.591,827.4,532.864,818.01,576c3.792-3.263,3.909-9.422,5.706-13.784l5.271-26.208c3.136,6.222,9.828,10.709,14.527,15.978,38.608,43.289,59.08,93.655,55.528,152.556-.753,12.492-5.871,27.418-6.11,38.949-.3,14.482,4.026,28.1,2.052,43.993-2.831,22.8-11.484,35.2-33.558,41.442-13.416,3.8-16.728,5.5-29.067,10.933C805.207,851.807,776.747,860.351,747,863q-25.957,1.116-52,1c-3.137-.017-7.7.828-10-1a653.132,653.132,0,0,0-66.524-2.14q-.432-1.605,1.524-3.86c.154-1.091.516-3.842-1.487-2.992-27,24.321-64.55,31.026-99.518,22.5-15.29-3.73-31.46-12.154-38.994-26.5,19.776,4.806,39.691,8.086,59.823,3.315,2.334-.553,6.808-1.213,8.171-3.314a168.708,168.708,0,0,1-51.182-2.323c-17.166-3.4-40.442-12-35.8-33.689L490,821c16.612,3.028,35.983,1.161,53.375-2.3,4.089-.813,11.294-2.374,10.625-3.7.187-1.273,4.376-2.172,3.487-4.013-11.018,1.8-22.328,3.5-33.487,4.013a201.067,201.067,0,0,0-29,0c-13.7-.811-44.22-5.276-40.757-24.265,1.85-10.144,10.6-5.725,17.21-5.687,18.424.106,70.923-6.72,84.464-18.63,1.14-1,2.474-1.53,2.078-3.413a317.111,317.111,0,0,1-67.619,14.871c-12.074,1.248-45.058,4.274-35.92-16.919,4.7-10.9,23.656-18.722,34.3-22.7,22.951-8.59,48.009-14.352,72.28-17.72,3.707-4.8-7.071-3.173-8.038-4.548L555.011,707c6.955,2.478,13.372,4.649,19.318,9.17,15.028,11.424,33.416,49.766,38.965,68.035A13.4,13.4,0,0,1,614.01,789c3.64-2.005,1.18-10.336.344-13.854-1.827-7.69-6-15.98-9.353-23.137,68.746,14.343,112.788-61.25,181.341-50.851,10.022,1.52,19.261,5.32,28.658,8.832-24.912-24.778-64.612-17.392-93.358-3.848-3.542,1.669-20.711,12.343-22.618,11.414-1.715-.835-8.461-10.918-9.829-13.25C676.068,681.935,672.4,653.35,677.009,628c6.312,2.732,11.645,3.291,18.5,3,1.214-.052,3.716.76,3.482-.987-26.115-5.424-45.793-23.974-56.494-47.991-1.906,1.308-1.563,2.264-1.29,4.244,1.225,8.892,9.847,22.052,16.14,28.386,1.92,1.933,12.519,9.269,12.7,10.058.443,1.927-1.365,10.752-2.048,13.292l0,23,4.281,22.214,6.557,17.142c-20.1,23.759-54.2,31.485-84.176,31.686-7.7-16.442-20.777-26.444-38.252-30.992l11.464-57.671c-.037-4.74,1.476-10.808-2.36-14.4-1.5-1.4-6.143-2.8-6.356-3.141-.582-.93-.114-10.3-.442-13.063a36.3,36.3,0,0,0-10.23-20.77c-1.286-1.26-7.1-4.491-7.254-5.468a81.386,81.386,0,0,1,3.885-10.919c6.379-9.325,35.705-18.734,46.888-21.122-16.283-2.158-32.2,5.106-45,14.5,1.534-4.269,1.89-12.989,3.409-16.588.443-1.049.886-.937,1.581-1.412,10.914-7.455,22.058-14.657,32.014-23.486,7.175-6.363,29.1-28.295,31.531-36.47,1.428-4.792-.109-14.08-.673-19.416C612.716,451.2,608.453,430.279,605,410" transform="translate(-81.695 -105.795)" fill="#bebcb7"/>
              <path id="Pfad_28046" data-name="Pfad 28046" d="M276,409c.077.094,1.324-.38,1.965.742,4.524,7.923,5,13.581,12.009,21.784,12.813,15,27.472,14.948,40.423,32.577,9.108,12.4,9.86,25,17.6,38.9,2.319,1.171,4.923,2.982,5.654,5.615,2.6,9.381-21.434,27.705-29.27,31.352,14.536-4.117,23.113-15.159,30.769-27.383L358,512c1.117-1.588.993-2.654,3.3-1.847,1.462.512,14.162,10.458,14.512,11.553A17.11,17.11,0,0,1,376,527a8.35,8.35,0,0,0-1.073,3.381c-.169,7.605-.509,16.307,1.072,23.586-19.3,5.97-28.933,26.789-22.187,45.721,1.246,3.5,7.922,12.039,7.94,12.792.007.291-2.162,3.329-2.522,5.254-1.1,5.894-.346,11.62,2.9,16.632.957,1.475,3.177,1.824,3.7,3.3,2.985,8.443,4.672,31.907,6.482,42.518,2.039,11.957,4.549,23.876,6.681,35.809-.933.931-10.294-6.819-11.522-7.968-18.714-17.5-40.162-63.086-41.463-88.548-.408-7.971,8.531-24.776,11.739-33.228,1.283-3.381,6.406-21.484,7.39-22.11,1.775-1.13,7.845,1.409,9.855-1.645l-12.361-2.579a702.471,702.471,0,0,1-29.775,69.443C290.01,675.984,264.179,726.47,212.99,746.5c.123,3.123,25.554-8.2,27.681-9.329,25.844-13.75,43.4-40.651,57.5-65.5a355.566,355.566,0,0,0,22.84-47.665l4.484,23c4.529,17.628,18.057,43.31,29.535,57.465,1.678,2.07,9.557,8.846,9.815,10.174.3,1.523-1.444,3.23-2.33,4.378-42.447,55.053-180.522,77.63-241.5,52.461-43.126-17.8-31.82-55.4-16.027-89.483-6.278,5.123-9.673,13.019-13.495,19.995-11.63-52.58,11.732-100.289,52.03-132.97,35.243-28.583,81.754-39.541,114.975-71.009,2.8,2.489,5.152,5.554,8.03,7.954,2.941,2.453,6.932,5.55,10.47,7.02-31.918-29.267-29.034-73.117-1-103.99" transform="translate(-81.695 -105.795)" fill="#bebcb7"/>
              <path id="Pfad_28047" data-name="Pfad 28047" d="M1144.5,496c40.982,3.791,65.067,51.329,73.011,86.989,10.413,46.743,6.875,102.786-21.9,142-.383.521.4,1.88.324,1.938-.793.583-16.9,2.8-19.44,3.065-35.867,3.744-78.191,2.781-113.7-3.344a5.536,5.536,0,0,0-2.778.35c-.708-2.34.7-1.729,1.27-2.284,6.461-6.33,14.55-11.247,19.715-19.219.145-.758-.944-.623-1.507-.512-1.43.284-13.98,10.811-17.183,12.822-15.524,9.749-35.1,15.541-53.1,18.9-11.009,2.055-22.1,3.005-33.2,4.292l8.159-11.33c20.815-34.9,18.751-90.59,5.578-127.916-20.462-57.985-72.942-99.163-135.742-97.248,26.717-33.432,67.073-47.248,109.224-40.234,5.57.927,11.023,3.556,16.775,3.735.24,2.66.046,1.623-1.5,1.973-12.888,2.916-27.375,8.163-36.5,18.011,10.079-1.769,19.226-7.247,29.233-10.257,52.829-15.892,129.557-10.677,155.944,45.59,2.45,5.225,4.184,12.982,6.584,17.4.637,1.172-.024,1.686,2.234,1.271,1.615-18.008-8.669-32.506-18.995-45.995,8.89.6,18.732-.811,27.5,0" transform="translate(-81.695 -105.795)" fill="#42413e"/>
              <path id="Pfad_28048" data-name="Pfad 28048" d="M1380.988,426c8.655,31.327,20.341,62.632,22.053,95.456.415,7.948-1.305,19.6.181,26.82,1.4,6.8,8.281,19.254,10.8,27.2,10.8,34.121,10.312,63.751-23.106,83.933-7.454,4.5-14.853,5.44-21.61,9.39-10.138,5.928-19.762,14.319-30.633,20.368-31.463,17.507-70.469,29.674-106.313,33.687-8.848.99-17.755.706-26.348,2.141,3.484-7.624,7.661-14.9,10.759-22.731,23.745-60.038,17.148-139.347-25.769-189.258,37.237,6.868,73.4,15.73,105.915,35.574,15.9,9.7,29.708,22.487,46.075,31.415.717-.775-2.681-5.23-3.45-6.039-18.2-19.143-47.327-38.393-71.857-48.143-9.508-3.779-22.972-5.928-31.255-9.745-4.83-2.226-11.695-18.116-13.462-23.539-7.427-22.8-4.56-46.931,2.041-69.532l16.688,11.8c39.8,23.847,104.5,24.274,139.293-8.8" transform="translate(-81.695 -105.795)" fill="#bebcb7"/>
              <path id="Pfad_28049" data-name="Pfad 28049" d="M379,514c-2.091.331-3.17-.866-4.715-1.779-4.212-2.487-23.579-17.107-24.265-20.741-3.164-29.586-4.571-59.391-6.01-88.99-.863-17.754,1.157-36.672-10.013-51.957,4.42-3.758,8.686-7.791,14.409-3.436,3.536,2.691,4.844,19.538,6.243,24.754,2.832,10.562,15.578,18.9,22.865,27.135,3.279,3.705,5.919,7.968,8.971,11.838,2.724.224,13.652-13.04,18.484-14.351,6.477-1.757,25.362,4.415,33.658,5.4,10.184,1.209,22.557,1.748,32.832,2.168,10.531.431,25.263-1.534,34.984.016,3.487.555,6.579,4.55,11.51,5.484a21.127,21.127,0,0,0,22.054-9.034c1.855-2.75,3.021-10.289,5.454-10.575,6.81-.8,17.38-.52,22.545,4.562,3.21,3.158,7.164,15.556,12.8,12.287,1.361-.789,9.264-12.794,11.694-14.776,11.4,29.937,13.724,62.76,19.338,94.258-.489,2.4-6.387,9.508-8.319,11.751-10.15,11.783-35.081,34.9-48.023,42.978-1.994,1.244-2.74,2.185-2.491-.992.772-3.5,1.005-6.934,2-11a12.744,12.744,0,0,0,3-9c1.8-7.961,1.636-26.029-2.231-33.268L521.019,447.5c14.109-5.372,25.7-11.713,35.481-23.482L565.99,434c-.589-6.1-3.47-12.362-10.438-12.022-4.8.234-11.478,2.119-14.547,6.012l7.995.02c2.243,1.638-21.852,10.436-23.463,11.027-25.2,9.235-60.08,20.072-84.471,3.4-5.72-3.91-9.339-10.868-16.066-13.424,9.819,9.5,14.676,19.016,28.02,24.47,14.689,6,25.139,1.777,39.992,2.015l18.98,22.018c.871,1.533-3.278,2.487-3.492,2.487H493c-.476,3.032.751,1.6,2.433,2.023,6.729,1.7,17.388-.954,20.552.5,5.125,2.356,14.238,18.195,19.807,22.18.575,5.206-.251,10.527-.934,15.655-.834,6.261-5.385,32.846-8.91,36.09-2.151,1.978-11.78,5.063-14.014,4.037-1.071-.491-3.816-5.512-6.6-7.32-7.923-5.15-23.533-5.839-32.6-3.931-2.874.6-4.216,2.939-8.2,2.822-2.817-.083-11.4-3.254-14.748-4.346a417.036,417.036,0,0,1-39.463-15.537c-5.365-2.42-10.549-6.223-16.329-7.183,1.981-6.58,6.925-13.168-1.766-16.719-7.3-2.98-10.728-1.278-13.232,5.729" transform="translate(-81.695 -105.795)" fill="#55554f"/>
              <path id="Pfad_28050" data-name="Pfad 28050" d="M1485,222c-.29,20.391-18.372,35.027-33.689,45.818a215.2,215.2,0,0,1-33.642,19.359c-3.592,1.627-14.114,4.34-16.01,5.751-.388.29-3.661,6.74-4.847,8.391-9.9,13.789-21.128,33.566-34.907,43.093-4.8,3.315-10.607,5.118-14.9,9.1,6.2.242,13-.484,17.985-4.505,1.3,23.79,8.11,46.577,13.609,69.545-10.556,13.368-28.207,20.545-44.589,23.965-29.329,6.124-63.636,1.984-89.531-13.489-2.865-1.713-15.021-9.807-16.012-12.063-1.532-3.489,17.438-52.071,18.546-59.958,14.6,6.09,29.288,10.351,45.209,6.723,2.343-.535,6.525-1.429,7.777-3.713-13.068,2.222-29.046.409-41.538-3.971-19.841-6.956-33.135-27.206-40.461-46.029,33.164,10.827,67.436.809,96.672-15.837,30.173-17.18,55.227-40.025,87.654-54.346,26.654-11.771,53.563-16.514,82.678-17.83" transform="translate(-81.695 -105.795)" fill="#42413e"/>
              <path id="Pfad_28051" data-name="Pfad 28051" d="M905,660c-6.782-46.577-31.869-88.186-63.974-121.526-2.613-2.713-11.553-9.315-12.513-11.487-2.283-5.162-.814-17.891-3.5-23.986,23.311,9.6,46.944,19.126,67.507,33.988l1.479-.484c-3.533-2.4-6.282-5.795-9.522-8.478-7.724-6.394-16.483-11.057-24.472-17.018,7.139,1.232,13.915,1.122,21.184,2.306,83.991,13.688,128.108,112.891,106.531,189.9-7.2,25.7-17.142,38.046-42.954,46.046-6.025,1.867-40.107,8.857-43.626,6.6-.529-.338-2.891-11.047-2.827-12.224.392-7.206,7.065-20.677,6.525-29.308L907,691c.755.053.607,1.086.607,1.026-.13-10.651-.4-22.517-2.607-32.026" transform="translate(-81.695 -105.795)" fill="#bebcb7"/>
              <path id="Pfad_28052" data-name="Pfad 28052" d="M1187.005,335.995c3.628,2.094,15.708-6.681,16.994-5.984-.01,19.658,3.195,39.3,6.915,58.57-7.39,10.483-22.5,16.722-34.7,20.136-31.024,8.686-71.667,6.873-98.041-13.3L1089.006,342c8.761,1.777,17.078,6.188,26.253,4.74.891-.141,3.006-.426,2.736-1.733-5.56.511-25.622-6.08-28.969-9.536-1.646-1.7-2.793-6.992-5.176-9.824-2.537-3.016-6.94-5.709-9.828-9.172-7.957-9.544-14.624-23.546-18.017-35.474,73.086,25.5,143.425-18.611,197.985-63,.267,4.688-1.409,21.092-4.479,24.011-1.575,1.5-8.8,2.444-11.491,3.509-22.836,9.038-37.284,17.415-32.764,44.723.575,3.472,5.792,18.994,5.578,20.01-1.253,5.964-16.665,17.751-21.535,22.546-.995.98-2.832.976-2.294,3.2" transform="translate(-81.695 -105.795)" fill="#42403d"/>
              <path id="Pfad_28053" data-name="Pfad 28053" d="M1073,416c.647-3.46,1.769-9.56,2.888-12.631.273-.748-.074-2.094,1.6-1.361,1.095.48,4.156,3.639,6.211,4.794,32.594,18.323,82.591,17.456,115.324-.28,1.687-.914,13.411-9.112,13.973-8.517-.591,7.133,5.061,16.108,5.083,22.49.026,7.619-5.349,20.03-6.062,29.021-1.748,22.046,1.206,44.517,12.983,63.475-13.049-3.078-26.868-2.95-39.357-8.133-18.271-7.581-23.72-14.467-46.1-15.9-6.747-.432-24.634,1.908-28.794.8-2.7-.715-12.669-9.081-16.73-11.28a76,76,0,0,0-20.842-7.659c-.238-1.966-.814-3.891-1.176-5.823a61.165,61.165,0,0,0,0-8.5,82.721,82.721,0,0,1,0-26q.662-7.053,1-14.5" transform="translate(-81.695 -105.795)" fill="#bebcb7"/>
              <path id="Pfad_28054" data-name="Pfad 28054" d="M537,718c-12.4,2.932-24.67,6.765-36.994,9.995q3-16.362,4.562-32.939c.129-1.349,1.444-2.38-1.053-2.047-5.4,11.119-4.378,24.889-7.739,36.767-18.182,5.2-53.58,17.8-48.328,42.278,1.1,5.116,6.537,7.9,6.534,8.446,0,.391-3.822,3.856-4.873,6.11-3.439,7.375-2.345,14.757,2.892,20.889.965,1.131,3.773,2.129,3.991,3.063.227.976-2.533,3.592-2.934,5.988-1.256,7.52,2.88,16.561,7.95,21.942,2.672,2.835,11.818,7.622,12.739,8.761.961,1.19,3.421,9.511,6.253,13.747l.863,2.137c-15.967,6.03-43.276,4.246-54.673-10.056-11.863-14.886-19.914-63.048-22.1-83.063-.033-.3.376-.653.912-1.018l-1.322-1.407Q402.145,756.132,400,747l-1.671-1.9c-4.561-19.759-8.989-40.3-10.955-60.641a5.268,5.268,0,0,1,.466-2.215A11.89,11.89,0,0,1,389,680l1.4-.571c3.99,2.875,8.335,3.421,13.086,2.537,12.886-3.9,22.37-1.983,32.277,7.422,15.3,10.124,30.155,2.482,44.348-5a29.292,29.292,0,0,1,17.206-1.788c18.384,6.794,29.193,9.517,44.995-4.024A2.844,2.844,0,0,1,545,678l1.56,3.152a166.845,166.845,0,0,1-6.61,34.811Z" transform="translate(-81.695 -105.795)" fill="#fabdbf"/>
              <path id="Pfad_28055" data-name="Pfad 28055" d="M442.5,573c15.1-2.029,23.432-17.854,39.96-19.032,18.432-1.314,31.04,13.04,30.65,30.917,20.234,2.885,38.1,10.827,39.871,33.628,1.125,14.507-3.961,14.788-16.164,17.8-30.942,7.649-81.549,9.628-113.188,5.554-4.788-.616-16.955-2.262-20.847-3.9-1.382-.583-5.6-7.87-4.788-9.974-4.574-.587.379,6.776,0,9-1.729,1.518-26.761-1.147-29.957-3.532-3.6-2.688-4.04-14.188-3.034-18.456,2.266.07,3.483,1.953,5.7,2.788,5.668,2.136,10.771,2.471,16.8,2.207,1.207-.053,4.187-1.279,4.478-1,.271.259-.21,3.859,2.007,4,1.732-8.713,6.949-16.206,13.541-21.969,9.507-8.31,18.315-13.585,31.092-14.908,11.169-1.156,24.478,1.982,32.374-8.626-3.137-.793-6.489,1.918-10.16,2.84-11.769,2.952-24.562.835-35.825,6.665-.208-4.856.713-9.839-1.022-14.488.181-1.416,1.283.488,1.512.488,5.124,0,12.224.642,17,0" transform="translate(-81.695 -105.795)" fill="#fdfcf5"/>
              <path id="Pfad_28056" data-name="Pfad 28056" d="M537,718c5.332-12.624,5.947-26.63,8-40q-2.367-1.41,1-5-2.219-6.417.4-14.879A12.682,12.682,0,0,1,549,649c-.169-1.272-.684-1.4-1.783-1.119-50.493,13.1-108.877,14.38-159.009,1.717L388,651q2.588,1.608,1.068,5.42l1.56,14.856q-2.5.618-1.628,3.724c1.324,1.505,2.443,4.34,0,5,1.536,21.083,7.508,45.812,11,67a75.541,75.541,0,0,1,3,23l1.2.649a417.769,417.769,0,0,0,13.949,66.036c11.259,32.414,32,32.674,62.67,27.886L484,866c5.747,5.619,10.6,6.807,16.712,10.758.724.468,2.933.811,1.291,2.236-.493.428-11.01,2.416-12.774,2.735-22.8,4.119-46.3,2.782-68.717-2.742-.885-.114-.6,1.9-.508,2,.767.835,14.693,5.041,16.985,5.527a125.994,125.994,0,0,0,71.494-6.412c5.268,3.311,24.179,3.885,27.517,6.9q-1.977,3.13,0,8c-5.333,7.333-28.633,11.593-37.643,12.857-28,3.929-64.293,3.545-91.573-4.141-5.448-1.535-21.947-6.184-19.61-14,2.167-7.251,26.332-14.373,26.566-17.2L371,640.01c9.524,2.446,19.362,1,28.541,1.559,4.817.3,13.231,4.143,19.235,5.155,31.53,5.31,86.864,3.19,118.041-4.407,8.818-2.148,17.422-3.416,21.682-12.3,3.032,2.249,4.186,4.583,3.5,8.451L546.82,715.32c-1.4,2.632-7.046,2.024-9.82,2.68" transform="translate(-81.695 -105.795)" fill="#fbfaf4"/>
              <path id="Pfad_28057" data-name="Pfad 28057" d="M1250.995,189.005c-.565,4.9-5.556,7.676-9.1,10.386-41.586,31.749-130.43,72.124-182.133,53.351-6.3-2.287-12.3-3.586-7.317-10.805,17.132-24.8,73.465-44.674,102.329-49.667,31.133-5.387,64.829-6.112,96.225-3.265" transform="translate(-81.695 -105.795)" fill="#52514e"/>
              <path id="Pfad_28058" data-name="Pfad 28058" d="M1484,197.99c-56.185-.577-108.109,23.641-152.654,55.806-15.243-6.158-33.206-4.074-48.8-7.842-5.516-1.332-1.5-11.225.273-14.635,24.4-47.015,138.368-51.809,183.006-40.643,5.717,1.43,13.957,3.412,18.175,7.314" transform="translate(-81.695 -105.795)" fill="#52514e"/>
              <path id="Pfad_28059" data-name="Pfad 28059" d="M1484.911,202.079c1.243,3.513,2.539,12.577-.937,14.4-13.188,2.666-26.8,2.551-40.024,4.975-23.694,4.345-50.768,16.366-71.622,28.379-44.421,25.589-82.689,66.847-139.71,59.055-3.306-.452-12.581-2.3-15-4-4.027-2.818-4.981-16.034-6.612-20.878,4.029,1.73,7.375,3.682,11.794,4.7,56.953,13.065,97.953-27.117,142.53-52.874,23.309-13.468,48.944-24.3,75.464-29.536,15.159-3,28.805-3.423,44.119-4.213" transform="translate(-81.695 -105.795)" fill="#3c3b38"/>
              <path id="Pfad_28060" data-name="Pfad 28060" d="M1049.01,252c33.756,18.24,80.878,8.233,114.976-5.514,31.224-12.588,62.743-31.965,90-51.486.481,5.974,1.381,11.083-.488,17-47.811,37.7-102.766,75.423-166.992,70.988-6.351-.439-29.192-4.422-32.559-9.441-1.449-2.161-5.733-20.486-4.941-21.549" transform="translate(-81.695 -105.795)" fill="#3d3c39"/>
              <path id="Pfad_28061" data-name="Pfad 28061" d="M1272.916,245.089c.293.28-.109,2.383,1.062,3.406,4.49,3.918,37.371,5.509,45.4,6.624,1.028.143,8.712.714,6.618,2.866-23.244,11.748-43.364,26.24-70.455,28.056-8.53.572-38.8,1.143-43.373-6.776-6.832-11.817,21.809-25.038,29.873-27.724,3.822-1.272,29.579-7.692,30.875-6.452" transform="translate(-81.695 -105.795)" fill="#51504d"/>
              <path id="Pfad_28062" data-name="Pfad 28062" d="M421,586.987c-12.216,5.037-25.771,15.379-29.118,28.892-14.418.553-26.495-3.053-31.665-17.6-4.539-12.772-.92-25.453,9.754-33.8,9.933-7.772,6.059.23,11.511,4.534,3.276,2.586,9.12,2.562,10.362-1.722.826-2.848-2.98-10.031-.368-10.24,4.419,1.427,7.854.737,12.5,2.468,12.185,4.536,16.149,15.494,17.02,27.472" transform="translate(-81.695 -105.795)" fill="#d03838"/>
              <path id="Pfad_28063" data-name="Pfad 28063" d="M604,739l22.034-3.466c19.162-4.114,37.789-11.287,52.518-24.486,1.3-1.162,2.85-5.358,4.429-4.041.462.386,5.005,8.578,6.19,10.323a51.409,51.409,0,0,0,3.8,4.234c.44,1.925-13.032,9.029-15.59,10.315-14.318,7.2-34.4,14.9-50.379,16.121l-16.341-.566c-5.713-.007-9.1-2.4-10.559-7.915q11.138-.435,3.9-.519" transform="translate(-81.695 -105.795)" fill="#bdbbb6"/>
              <path id="Pfad_28064" data-name="Pfad 28064" d="M458,557.014c.553,2.381-.428,1.612-1.3,2.216-10.924,7.553-21.978,8.322-34.991,7.788-6.307-11.833-18.624-16.907-31.709-16.013-.946-7.245,1.088-13.207,2.01-20A441.487,441.487,0,0,0,458,557.014" transform="translate(-81.695 -105.795)" fill="#bab8b3"/>
              <path id="Pfad_28065" data-name="Pfad 28065" d="M552,524l-15.508,59.018c-1.263,1.674-7.749-1.257-9.978-2.02-1.02-.35-1.855.773-1.548-1.505l15.17-61.357L554,517.007,552,523l-2.028-.94c1.3-3.279-4.546-2.845-4.875-.514-.575,4.071,4.98,3.085,6.9,2.454" transform="translate(-81.695 -105.795)" fill="#efefec"/>
              <path id="Pfad_28066" data-name="Pfad 28066" d="M545.44,485.622c.535.6,1.937-.117,1.554,1.367-4.7.238-8.353,3.842-11.494,6.995L500,453.01c4.067.243,9.284-4.221,12.968-2.526,11.317,11.245,21.922,23.191,32.471,35.138" transform="translate(-81.695 -105.795)" fill="#efefec"/>
              <path id="Pfad_28067" data-name="Pfad 28067" d="M480,861a26.824,26.824,0,0,0,4,5c-18.111,3.6-44.812,6.244-57.978-9.522C413.908,841.973,406.576,790.353,403,770c.051-2.51.088-2.922,2-1,3.736,21.81,9.123,73.9,27.272,87.228,11.931,8.765,29.076,9.261,43.2,6.745,1.75-.311,3.493-.117,4.528-1.973" transform="translate(-81.695 -105.795)" fill="#11100f"/>
              <path id="Pfad_28068" data-name="Pfad 28068" d="M386.995,564.995c-1.675.321-2.627-.857-3.46-2.029-4.319-6.074-3.543-29.425-2.26-37.19a48.157,48.157,0,0,1,5.262-15.8l7.446,4.526c-9.985,13.815-12.5,34.352-6.988,50.5" transform="translate(-81.695 -105.795)" fill="#36af69"/>
              <path id="Pfad_28069" data-name="Pfad 28069" d="M555,504c-.263,2.283.851,7.2-.978,8.587-.56.424-12.2.222-14.03.421-2.257-9.216,8.465-8.669,15.008-9.008" transform="translate(-81.695 -105.795)" fill="#eaeae7"/>
              <path id="Pfad_28070" data-name="Pfad 28070" d="M555.994,500c-4.916-3.723-13.6,2.339-16.359,1.8-1.159-.227-3.356-2.721-2.628-3.775.216-.311,5.593-3.858,6.291-4.222,7.352-3.833,10.945-1.565,12.7,6.2" transform="translate(-81.695 -105.795)" fill="#f0f1ee"/>
              <path id="Pfad_28071" data-name="Pfad 28071" d="M620,857a17.038,17.038,0,0,1-1,2.99c24.751-1.058,49.294,2.252,73.994,2.02-1.026,1.9-5.978.963-7.995.99-23.419.312-46.672-3.343-70-1.01Z" transform="translate(-81.695 -105.795)" fill="#eae9e5"/>
              <path id="Pfad_28072" data-name="Pfad 28072" d="M554,815c-.013.09.851.521.993.933-22.01,7.845-45.9,7.954-68.988,6.057-.2-1.757,2.817-.945,3.995-.99,2.322-.089,4.674.019,7,0a89.327,89.327,0,0,0,22,0c11.937-.5,23.712-1.966,35-6" transform="translate(-81.695 -105.795)" fill="#e6e4e0"/>
              <path id="Pfad_28073" data-name="Pfad 28073" d="M1072,465c-3.018-16.127-2-32.952,1-49,2.659,3.559-1,10.745-1,14.5v26c0,1.605,2.876,6.367,0,8.5" transform="translate(-81.695 -105.795)" fill="#d0cfca"/>
              <path id="Pfad_28074" data-name="Pfad 28074" d="M1155,738c.558,3.019-1.528,1.936-3.455,2-13.319.445-28.8.642-42.06,0-2.454-.118-3.27.724-1.485-2,2.913.153,7.652,1,9.5,1h28c1.812,0,6.658-.831,9.5-1" transform="translate(-81.695 -105.795)" fill="#6f6e6a"/>
              <path id="Pfad_28075" data-name="Pfad 28075" d="M747,863c-2.275.2-7.188,1-8.5,1h-20c-7.413,0-15.641.044-23.5,0Z" transform="translate(-81.695 -105.795)" fill="#f2f1ed"/>
              <path id="Pfad_28076" data-name="Pfad 28076" d="M905,660l.965-.48a236.792,236.792,0,0,1,2.025,40.475L907,691c-.528-9.935-.578-21.236-2-31" transform="translate(-81.695 -105.795)" fill="#efeee9"/>
              <path id="Pfad_28077" data-name="Pfad 28077" d="M604,739c1.649.114,3.345-.093,4.995.01l-7.995,1c2.987,11.172,17.753,4.616,26,7.99-4.615.353-19.786.608-23.279-1.221-2.25-1.178-3.705-5.816-4.73-8.27,1.652.057,3.3.373,5.009.491" transform="translate(-81.695 -105.795)" fill="#eeedea"/>
              <path id="Pfad_28078" data-name="Pfad 28078" d="M640,868c-5.057,1.7-12.137,1.2-17.567.995-2.11-.078-6.559.376-7.433-1.995,8.353-.462,16.681.63,25,1" transform="translate(-81.695 -105.795)" fill="#74736f"/>
              <path id="Pfad_28079" data-name="Pfad 28079" d="M522.995,567c.351.342-1.581,7.2-1.977,8.524-.429,1.429.627,1.765-2.013,1.476l-1.995-10Z" transform="translate(-81.695 -105.795)" fill="#cdcdc9"/>
              <path id="Pfad_28080" data-name="Pfad 28080" d="M198,788c-3.238,3.119-10.227,2.175-14.545,2-1.924-.078-4.013,1.029-3.455-2,5.94.166,12.059.158,18,0" transform="translate(-81.695 -105.795)" fill="#7c7b77"/>
              <rect id="Rechteck_5333" data-name="Rechteck 5333" width="1.007" height="29.99" transform="translate(585.301 528.21)" fill="#ecebe7"/>
              <path id="Pfad_28081" data-name="Pfad 28081" d="M524,815c-8.918.41-20.13.525-29,0,1.038-1.656,3.8-1,5.486-1.017,7.561-.08,16.293-.743,23.514,1.017" transform="translate(-81.695 -105.795)" fill="#f8f7f4"/>
              <path id="Pfad_28082" data-name="Pfad 28082" d="M519,821a48.845,48.845,0,0,1-22,0c7.3-.058,14.718.3,22,0" transform="translate(-81.695 -105.795)" fill="#bebcb7"/>
              <path id="Pfad_28083" data-name="Pfad 28083" d="M555,529c.792-3.237,2.424-6.453,3-9-.328,3.242,1.646,8.9-3,9" transform="translate(-81.695 -105.795)" fill="#040503"/>
              <path id="Pfad_28084" data-name="Pfad 28084" d="M1224,404c-.565,1.512-.04,5.2-1.989,4.994-.375-1.963-.573-4.051-1.011-5.994Z" transform="translate(-81.695 -105.795)" fill="#e8e9e7"/>
              <path id="Pfad_28085" data-name="Pfad 28085" d="M568.982,297.979,512.01,313l-1.505-19.994c-4.179,5.025-1.686,21.679-8.994,22.08-8.641.473-6.634-4.668-8.523-11.078-2.981,1.508-1.719,8.881-5.388,8.945-23.062-3.539-46.059-7.961-69.224-10.828-11.306-1.4-24.763-3.531-35.885-4.115-10.167-.533-19.19-1.189-27.4,5.579l-37.083,28.407c2.731-38.733,8.39-77.573,43.686-99.8,38.071-23.979,67.853-18.867,99.013,12.6l44.683-.731c4.449-10.733,5.273-22.808,9.522-33.679.347-.887-.452-1.911,1.528-1.334s8.624,5.781,10.574,7.437c23.556,19.994,37.614,51.279,41.97,81.491" transform="translate(-81.695 -105.795)" fill="#b5b4ae"/>
              <path id="Pfad_28086" data-name="Pfad 28086" d="M491.005,229.995c2.621.228,1.656.128,1.961-1.5.8-4.276,1.254-8.811,1.892-13.135,4.567-30.99,7.3-62.282,11.147-93.359a58.079,58.079,0,0,1,25.533,17.03l-29.022,97.987c-2.048,2.453-30.607.143-35.9,1.044l-1.493-4.669-15.28-108.734L448.01,120c1.642,15.105,3.138,30.3,5.117,45.367,3.072,23.386,7.924,47.212,10.453,70.559.085.788,1.236,2.963-1.064,2.057-2.715-1.069-10.378-8.929-13.6-11.4-3.626-2.781-7.966-4.574-11.395-7.6-8.29-32.793-16.824-65.543-26.487-97.937,29.377-8.552,63.874-13.118,92.487-.1Z" transform="translate(-81.695 -105.795)" fill="#04cc6c"/>
              <path id="Pfad_28087" data-name="Pfad 28087" d="M407.976,123.014l27.019,93.98c-11.353-4.6-22.37-7.871-34.836-7.158-6.209-13.5-12.245-27.273-18.962-40.533-2.868-5.661-6.435-12.359-10.188-17.3l26.966,57.507c-.091,1.4-12.147,3.672-14.509,4.459-4.589,1.53-9.1,4.775-13.762,4.906-1.646-.477-19.075-22.517-22.19-25.886-1.227-1.326-9.311-10.051-10.514-8.976l29,37.451-23.366,16.47c-5.908-5.372-11.534-11.288-17.622-16.445-1.854-1.57-4.615-4.021-7.013-4.476l21.894,23.632c-4.078,6.755-9.352,12.666-13.066,19.687-2.1,3.973-4.142,11.389-5.953,14.045-.589.865-.983,1.877-2.308,1.582-2-.445-15.416-15.227-19.658-16.407l-.834-1.972c4.118-61.723,52.146-116.169,109.9-134.563" transform="translate(-81.695 -105.795)" fill="#04cc6c"/>
              <path id="Pfad_28088" data-name="Pfad 28088" d="M374.885,323.118c.958.671,5.513,18.3,7.257,22.24,13.752,31.065,39.261,44.708,73.229,41.514,20.432-1.922,32.448-17.129,40.487-34.514,3.341-7.225.9-11.689,10.663-12.348,17.641-1.19,29.4,23.215,29.557,38.475.039,3.773-1.281,14.031-2.863,17.23-4.334,8.767-19.928,3.8-26.537.108-2.887-1.611-9.776-8.849-11.177-8.866-5.51-.067-1.389,11.121,4.018,11.034,2.469,3.04-10.7.729-12.092.927-2.484.351.523,1.156-5.928,1.077a357.556,357.556,0,0,1-53.706-4.288c-6.72-1.079-13.419-4.144-20.322-3.759-7.368.412-13.992,6.021-18.971,11.036-6.558-8.335-20.572-17.59-25.341-26.643-4.232-8.033-5.358-30.288-11.761-34.236-2.216-1.367-7.573-.5-4.758-3.19,4.924-1.806,24.039-18.74,28.245-15.8" transform="translate(-81.695 -105.795)" fill="#b3b2ac"/>
              <path id="Pfad_28089" data-name="Pfad 28089" d="M338,391a250.084,250.084,0,0,0-.458,31.162c0,.362-.335-5.78.458-7.162,2.219,8.787.531,18.821.891,27.894-26.089,5.815-47.79-13.038-55.4-36.886-4.448-13.94-5.046-35.774,4.094-47.922,9.572-12.721,21.388-15.77,35.737-7.909C337.207,357.785,337.456,376.9,338,391" transform="translate(-81.695 -105.795)" fill="#b8b7b1"/>
              <path id="Pfad_28090" data-name="Pfad 28090" d="M469,318.013l-28.995,63.558c-2,1.241-21.888-3.944-23.562-6.564-1.78-2.784,25.8-52.4,26.513-60.544,1.961-1.307,25.089,2.264,26.044,3.55" transform="translate(-81.695 -105.795)" fill="#65655f"/>
              <path id="Pfad_28091" data-name="Pfad 28091" d="M589,300.01c-8.911,17.784-16.288,36.85-26.578,53.912-1.759,2.917-9.99,15.794-11.85,17.147-10.281,7.473-10.314-12.462-14.277-17.582,10.781-14.168,20.879-29.292,26.2-46.49Z" transform="translate(-81.695 -105.795)" fill="#64645d"/>
              <path id="Pfad_28092" data-name="Pfad 28092" d="M592.995,364c1.078,13.717-5.075,26.373-14.495,35.985-8.577-14.5-17.992-17.62-34.5-13.981l0-7c10.654,3.109,22.182-.722,31.663-5.829,2.893-1.559,15.2-11.255,17.323-9.174" transform="translate(-81.695 -105.795)" fill="#afaea8"/>
              <path id="Pfad_28093" data-name="Pfad 28093" d="M358,512c-10.276,14.6-14.068,23.164-32.725,29.775-3.377,1.2-10.511,4.1-12.273.237,11.244-1.042,37.423-21.1,38.861-31.761.263-1.95-2.615-5.01-3.863-7.251,4.348-.042,9.906,4.5,10,9" transform="translate(-81.695 -105.795)"/>
              <path id="Pfad_28094" data-name="Pfad 28094" d="M336.995,451l-.49,10.991-7.484-8.495c-.014-1.309,6.6-2.558,7.974-2.5" transform="translate(-81.695 -105.795)" fill="#c6c5c0"/>
              <path id="Pfad_28095" data-name="Pfad 28095" d="M338,415c-.018,5.472.224,11.039,0,16.51-.05,1.216.755,3.719-.99,3.485.118-12.82-.186-25.679-.027-38.509C337,394.8,336.342,392.041,338,391c.306,7.935.026,16.05,0,24" transform="translate(-81.695 -105.795)" fill="#e6e6e1"/>
              <path id="Pfad_28096" data-name="Pfad 28096" d="M634.741,686.24c30.09-4.755,18.927,23.077-6.243,20.763-19.186-1.764-8.435-18.443,6.243-20.763" transform="translate(-81.695 -105.795)" fill="#4d4b48"/>
              <path id="Pfad_28097" data-name="Pfad 28097" d="M820,775.01c-19.892,21.072-58.879,26.976-86.2,20.693-1.677-.386-11.3-3.2-11.793-3.719-.968-1.024-.206-2.075,1.477-1.985,5.122.272,11.562,2.579,17.031,2.988,19.32,1.444,41.641-1.3,59.735-8.239Z" transform="translate(-81.695 -105.795)" fill="#020202"/>
              <path id="Pfad_28098" data-name="Pfad 28098" d="M656,460.01c-4.533,4.35-10.343,7.25-15.014,11.476C625.6,485.4,616.46,505.9,611.006,525.547c-.443,1.6,1.082,2.962-2,2.448-.03-28.933,18.68-59.411,46.994-67.985" transform="translate(-81.695 -105.795)" fill="#020202"/>
              <path id="Pfad_28099" data-name="Pfad 28099" d="M848,690c-1.5.242-1.249-1.869-1.5-2.987-2.424-10.685-3.923-21.442-7-32.011-3.368-11.565-9.192-22.308-11.488-34,6.886,8.636,12.313,20.177,15.486,31,1.175,4.01,4.5,16.076,4.5,19.5Z" transform="translate(-81.695 -105.795)" fill="#020202"/>
              <path id="Pfad_28100" data-name="Pfad 28100" d="M228,577.01c-4.982,4.282-10.967,7.214-16.012,11.478-22.393,18.925-33.531,41.094-46.5,66.5-.589,1.153-.931,2.765-2.475,3.015,2.335-17.5,13.06-35.824,24.018-49.472C197.312,595.717,212.1,582,228,577.01" transform="translate(-81.695 -105.795)" fill="#020201"/>
              <path id="Pfad_28101" data-name="Pfad 28101" d="M1370.005,540.995c.614-5.223,3.351-9.738,4.71-14.78,6.834-25.352,2.941-50.566-7.7-74.215,16.905,19.617,21.823,60.939,8.8,83.306-.523.9-4.338,7.274-5.8,5.689" transform="translate(-81.695 -105.795)" fill="#020202"/>
              <path id="Pfad_28102" data-name="Pfad 28102" d="M1332,646.01c-18.664,25.4-50.156,31.289-80.026,32.554-1.644.07-2.628.981-3.969-1.069,21.778-4.052,44.04-7.41,63.667-18.323,2.368-1.317,19.453-14,20.328-13.162" transform="translate(-81.695 -105.795)" fill="#020202"/>
              <path id="Pfad_28103" data-name="Pfad 28103" d="M431,426.988c-7.365.876-13.1,2.307-18.988,7.012,2.061-10.12,11.494-17.348,18.988-7.012" transform="translate(-81.695 -105.795)" fill="#050504"/>
              <path id="Pfad_28104" data-name="Pfad 28104" d="M426.99,788a4.165,4.165,0,0,1-3.583-.909c-1.831-1.524-6.321-25.491-7.131-29.868-2.577-13.923-8.334-42.582-6.039-55.487,1.565-8.8,7.1-6.675,10.642-.116,7.294,13.5,8.26,47.06,8.2,62.863-.028,7.274-1.495,16.144-2.088,23.517" transform="translate(-81.695 -105.795)" fill="#e6868a"/>
              <path id="Pfad_28105" data-name="Pfad 28105" d="M546,673c-.247,1.644-.737,3.288-1,5-7.537,9.747-18.14,13.331-30.392,11.893-6.421-.754-13.027-4.766-19.366-5.633-20.471-2.8-29.005,19.246-55.52,9.518-7.076-2.6-12.764-10.39-19.459-11.534C409.606,680.424,398.857,688.5,389,680a41.5,41.5,0,0,1,0-5c-.49-3.249-.122-6.514,2.857-2.905.447,5.713,3.8,7.4,9.251,6.446q14.558-5.106,27.026.523c17.53,14.262,32.414,13.44,51.2.883,5.712-2.567,12.133-2.58,18.177-1.386l20.09,5.2c10.824,1.9,18.978-3.851,25.972-11.42Z" transform="translate(-81.695 -105.795)" fill="#0b0a0a"/>
              <path id="Pfad_28106" data-name="Pfad 28106" d="M439.01,773c-.375-10.471.456-21.069.031-31.541-.51-12.581-3.1-25.341-2.094-38.011.14-1.754-.188-3.853,2.043-4.447l3.058,43.452c-.172,9.036.4,18.115-1.042,27.053-.24,1.49-.055,3.087-2,3.494" transform="translate(-81.695 -105.795)" fill="#0a0909"/>
              <path id="Pfad_28107" data-name="Pfad 28107" d="M405,769l-2,1c-1.322-7.525-1.756-15.454-3-23l.987-.5c.791,7.587,2.733,15.028,4.013,22.5" transform="translate(-81.695 -105.795)" fill="#21201e"/>
              <path id="Pfad_28108" data-name="Pfad 28108" d="M512,599.01c-13.344,14.016-36.574,9.668-54.357,12.132-8.963,1.243-16.218,3.985-24.642,6.848,13.891-14.485,37.119-10.85,55.375-13.114A114.142,114.142,0,0,0,512,599.01" transform="translate(-81.695 -105.795)" fill="#030303"/>
              <path id="Pfad_28109" data-name="Pfad 28109" d="M497,627.99c3.741-3.669,10.412-4.185,15.263-6.227C520.4,618.337,525.8,614.179,531.99,608c-4.924,14.912-20.87,19.191-34.99,19.989" transform="translate(-81.695 -105.795)" fill="#060606"/>
              <path id="Pfad_28110" data-name="Pfad 28110" d="M546,673c-4.035,2.852-6.627,6.939-11.064,9.436-18.065,10.167-30.57-4.5-48.439-2.439-8.259.953-15.314,7.611-22.945,10.055C437.736,698.32,433.408,676.673,414.52,678c-8.221.577-23.83,8.635-24.53-5.993-1.686-.263-.93,1.88-.99,2.995l-1.918-18.66L388,651l2.559-.79a296.624,296.624,0,0,0,86.877,9.493L480,661c.458.571.414.873-.239.85l30.255-2.244Q516.1,661.313,510,659l1.545-2.428a135.042,135.042,0,0,0,34.71-8.249L549,649c.137,8.073-1.808,16.054-3,24" transform="translate(-81.695 -105.795)" fill="#e6868a"/>
              <path id="Pfad_28111" data-name="Pfad 28111" d="M549,649c-10.629,6.965-26.99,6.9-39,10-9.84,1.606-20.053,2.658-30,2-26.329.382-52.261.532-78.011-5.489-4.909-1.148-9.481-2.133-13.989-4.511-1.4-.737-2.971-1.16-3.995-2.505.088-.95,1.658-.523,2.471-.479,9.082.481,22.711,4.829,33.029,5.979,27.041,3.012,54.924,2.6,81.991,0,17.149-1.65,34.872-3.951,51.011-9.989,1.539,1.889-2.269,4.182-3.507,4.993" transform="translate(-81.695 -105.795)" fill="#020201"/>
              <path id="Pfad_28112" data-name="Pfad 28112" d="M378.754,589.746c-2.555,2.652-5.412.02-6.287-2.726-.591-1.856.43-13.382,2.138-13.942,7-2.295,6.5,14.227,4.149,16.668" transform="translate(-81.695 -105.795)" fill="#ae3f3e"/>
              <path id="Pfad_28113" data-name="Pfad 28113" d="M530.995,263.01l-22.323,14.162c-3.524,1.943-12.7,6.163-16.3,6.519-8.036.795-35.873-9.659-47.147-11.415-8.9-1.388-18.222-1.769-27.22-2.286.014-1.692,3.309-1.891,4.485-2,11.375-1.062,25.631-2.008,36.772.249,9.413,1.906,24.661,10.513,34.121,9.465,3.987-.442,14.941-7.292,19.632-9.189a95.98,95.98,0,0,1,17.98-5.505" transform="translate(-81.695 -105.795)" fill="#060706"/>
              <path id="Pfad_28114" data-name="Pfad 28114" d="M325.014,405c-2.443-5.94-6.531-11.736-6.01-18.494.12-.87-1.864-.6-1.985-.5a91.556,91.556,0,0,0-5.491,9.02c-2.088,5.649-2.352,13.983.609,19.336,1.519,2.744,4.244,3.452,5.858,5.626-19.308-2.838-19.614-30.414-4.044-39.474-5.171-8.238-14.763-13.2-22.941-5.516,1.967-6.314,9.23-9.008,15.267-7.77,6.477,1.329,17.64,12.984,18.543,19.535.39,2.828-.853,4.508-.765,6.668.137,3.375,5.067,9.612.959,11.566" transform="translate(-81.695 -105.795)" fill="#060706"/>
              <path id="Pfad_28115" data-name="Pfad 28115" d="M510,659l2.995.99c-21.476,1.582-42.895,3.9-64.505,3.01-1.218-.05-3.719.755-3.485-.99,10.475-.491,21.145.6,31.614.063A9.57,9.57,0,0,0,480,661c10.01-.538,20-1.446,30-2" transform="translate(-81.695 -105.795)" fill="#eeede8"/>
            </g>
          </g>
        </g>
      </g>
    </g>
  </g>
</svg>
