<svg xmlns="http://www.w3.org/2000/svg" width="1935.393" height="2956.027" viewBox="0 0 1935.393 2956.027">
  <g id="ChatGPT_Image_24._Juli_2025_18_00_23" data-name="ChatGPT Image 24. Juli 2025, 18_00_23" transform="translate(0.029 0.001)">
    <path id="Pfad_27060" data-name="Pfad 27060" d="M410.656,2759.292c14.743-25.2,71.682-95.984,76.034-115.364,3.15-14.021,4.44-41.189,4.987-56.26,3.522-98.805-29.333-202.664,11.156-297.27,25.221-58.951,81.416-98.783,88.984-164.953,1.05-9.275-16.712-63-18.987-80.65-12.665-99.134,17.871-205.267,55.538-296.023,12.031-29.005,31.477-61.51,40.8-90.449,6.956-21.59,3.894-49.523,6.19-72.557s15.29-61.094,15.29-78.769c0-15.246-12.315-51.032-15.006-70.3s-3.806-40.467-4.987-60.635l-1.881-2.494c-59.169-18.724-99.593-64.551-132.426-114.817-16.318,12.84-30.208,28.2-47.554,39.876-13.606,9.165-28.5,16.384-43.114,23.712,24.477,57.507,20.059,126.432-10.609,180.68-15.64,27.671-47.511,53.285-50.661,84.959-1.225,12.381-1.225,37.624.591,49.764.481,3.237.787,7.372,4.244,8.881,10.828,4.7,34.517,6.715,48.1,10.849,39.177,11.922,66.519,35.305,86.6,70.894,26.8,47.489,33.467,103.093-21.262,132.229,15.4,42.458-8.487,105.368-56.5,112.914-10.084,1.6-27.19-2.581-31.805-1.356-3.544.941-6.825,7.109-10.478,9.406-18.046,11.331-35.874,14.131-56.3,8.443-5.731-1.6-16.865-8.356-21.2-8.509-10.281-.328-27.605,9.712-48.123,7.831-23.624-2.187-40.489-17.915-57.376-21.371-21.021-4.287-33.971.022-57.441-10.368-33.927-15.027-36.945-34.823-45.8-67.941-21.809-81.59-19.162-157.166-46.067-238.3C21.143,1499.21-37.785,1399.421,31.8,1235.408c8.115-19.14,40.9-68.794,43.683-81,3.325-14.721.547-42.567,2.909-60.526,11.55-87.606,66.082-160.556,132.032-215.767,17.74-153.338,156.291-255.577,308.447-244.925,9.253.656,37.492,7.809,43.245,6.169,2.887-.809,26.971-19.315,33.774-23.252,43.529-25.155,92.637-37.974,140.126-53.438l10.631-44.4c-16.887-14.831-28.108-30.077-34.736-51.864-13.671-45.017-7.809-122.517,53.045-124.179.241-61.926,24.127-125.164,69.669-167.818.284-22.683-17.3-64.682-8.925-85.353,4.506-11.112,40.883-36.945,52.367-43.88C955.541-1.639,1031.335-8.377,1119.794,8.2c12.074,2.253,37.427,3.281,34.167,19.468L1120.3,160.754c60.373,21.48,92.156,97.559,97.537,157.384,21.962-4.419,45.411-14.24,68.05-9.646,11.046,15.509-12.8,56.02-22.049,69.888-3.5,5.228-21.087,24.762-21.415,26.424-1.006,5.206,5.753,36.158,6.125,45.608,1.137,28.436-3.391,54.182-2.187,85.309.634,16.3-2.034,32.942,2.6,48.8,28.5,13.146,56.982,26.468,84.85,40.926,7.022,3.653,24.915,16.756,30.011,18.134,8.094,2.165,43.158-2.494,56.435-1.772,154.584,8.443,276.358,131.289,281.454,286.2,72.1,53.285,114.708,134.7,112.236,225.7,29.268,25.593,55.8,52.17,76.341,85.528,77.194,125.426,33.642,275.089,25.352,412.174-2.975,49.348-2.122,99.374-4.375,148.744-3.456,76.231,3.128,124.617-75.794,160.447-29.355,13.321-32.2,5.184-58.491,6.934-19.556,1.312-28.5,13.759-55.626,7.175-8.618-2.078-20.824-12.293-26.074-13.387-4.309-.9-19.6,2.516-27.911,1.728-14.174-1.356-26.862-8.487-38.127-16.559-4.309-3.084-10.062-11.44-13.343-12.906-5.578-2.494-12.14-.328-18.046-1.641-35.327-7.831-61.707-39.549-55.757-76.6.919-5.8,7.372-16.712,7.394-20.212,0-5.184-10.806-24.7-12.053-35.239-7.393-63.019,53.351-118.448,104.821-144.172l1.772-3.894c-12.4-35.5-16.187-68.444-45.564-94.518-28.874-25.636-54.029-37.47-75.313-73.432-32.177-54.357-26.84-111.733-25.68-172.281-26.577-10-46.5-31.368-64.179-52.8-8.6,12.971-17.04,26.511-27.408,38.17-7.569,8.509-20.278,17.04-26.227,24.083s-15.027,93.818-17.828,111.23c-4.112,25.483-15.881,62.6-17.171,85.747-.919,16.427,4.09,56.567,6.869,74.022,5.381,33.664,35.436,76.734,49.742,109.939,45.433,105.521,59.716,223.6,29.836,335.462-2.909,10.915-16.449,44.077-16.515,51.36-.088,10.456,9.559,35.808,10.762,50.639,1.509,18.637.678,39.133-3.347,57.332-1.684,7.656-8.312,20.649-8.837,25.768-2.187,21.634,9.253,75.663,10.368,102.437,3.719,90.69-7.306,182.933-10.981,273.492l3.15,5.578c20.868,13.168,40.708,27.8,60.919,41.889,8.312,5.8,19.249,16.8,26.971,21.152,18.134,10.259,50.989,16.449,72.25,26.183,34.277,15.684,60.941,38.148,68.532,76.931,10.106,7.437,7.438,30.208,3.391,41.5-14.984,41.714-97.34,47.183-134.526,46.986-66.213-.328-131.267-16.69-192.974-38.083l-89.137-12.118c-36.552-7.9-61.882-13.584-67.832-53.548-1.356-9.144-3.675-30.93,4.244-35.042q-5.775-15.224,1.75-33.03c37.4-83.428,5.622-172.193-47.926-240.878-53.46-82.9-20.562-176.415,14.721-257.852q7.842-23.2-10.062-45.017c-55.692-75.728-98.062-162.7-103.508-259.537l-19.774,65.032c-25.112,79.775-57.485,162.219-122.8,216.138-9.953,10.762-42.48,76.3-42.808,88.394l3.15,67.854c8.706,84.653-31.477,149.531-83.778,211.392-26.118,54.357-58.491,121.9-36.158,181.818l-3.369,5.709,4.856,2.734c8.575,34.408,10.215,97.537-25.44,117.136-8.028,39.745-37.908,63.916-74.394,78.965-19.862,8.2-46.308,16.821-66.913,11.156-34.78,2.756-96.093-3.521-129.057-15.312-86.447-15.465-55.057-103.027-21.2-153.928l5.884-1.378Z" transform="translate(0 0)" fill="#010101"/>
    <path id="Pfad_27061" data-name="Pfad 27061" d="M425.117,1252.077q-.558-13.124,23.515-10.412c141.2-9.559,284.495-4.878,424.446.678l2.647,9.734c-1.291,20.1-2.887,52.345,14.218,65.622,31.827,24.652,102.524,22.29,141.526,31.28,15.771,3.631,31.892,11.462,47.686,15.749,69.538,18.877,155.372,31.871,225.763,11.418,40.664-11.812,56.26-29.683,47.642-73.759,51.6,7.918,196.43,45.3,81.722,98.127-88.284,40.664-230.291,58.032-327.828,68.094-245.69,25.374-516.886,24.455-763.363,6.562-32.439-2.362-64.857-8.224-97.362-8.75-.5-3.828,4.944-2.056,7.612-2.165,5.1-.219,10.237.153,15.334,0l-5.469-2.187c47.686-3.784,109.764-24.915,130.939-71.419,2.931-6.431,4.178-16.931,6.759-21.131,1.772-2.887,13.671-10.237,17.609-15.749,16.821-23.515,11.025-74.284,6.584-101.693Z" transform="translate(291.777 1467.842)" fill="#afafaa"/>
    <path id="Pfad_27062" data-name="Pfad 27062" d="M288.025,1262.407c-32.746,55.91-69.363,125.033,15.312,155.306-11.506,2.362-27.452-2.844-39.4-5.447-38-8.312-79.206-17.915-114.511-34.233-21.612-10-65.754-32.614-36.442-59.891,28.349-26.4,124.967-50.114,164.515-56.588C281.353,1260.919,284.415,1259.454,288.025,1262.407Z" transform="translate(122.632 1496.885)" fill="#afaea9"/>
    <path id="Pfad_27063" data-name="Pfad 27063" d="M7.756,1069.821c3.74-40.708,16.209-83.953,33.117-121.1,8.881-19.512,36.858-59.082,40.27-75.663,4.134-20.059,2.034-47.883,5.972-70.588,13.5-77.631,57.616-137.588,114.2-189.846,1.072,13.978,2.866,27.452,7.415,40.8,1.137,3.369-1.969,6.278,4.594,5.119-6.672-90.034,26.665-169.853,94.037-228.607,95.415-83.231,209.226-72.775,323.759-40.467-15.334-13.956-37.317-22.005-56.873-28.436,45.214-38.98,107.336-49.523,161.825-71.113,11.484-8.618,10.368-38.214,13.168-51.382,1.4-1.4,21.218,3.872,25.505,4.244,13.89,1.159,29.836-9.187,20.43,17.652-1.553,17.193-3.981,48.232,4.375,61.248,9.34,23.58,88.678,99.462,111.755,114.642,51.054,33.555,193.17,26.336,252.165,11.965,28.808-7.022,50.529-15.421,53.832-48.976.831-8.334-1.684-20.78.459-27.977,1.05-3.544,6.059-5.928,7.962-9.537,7.394-14.087,11.7-30.755,11.309-46.679l115.933,57.966c8.531-1.925,12.928,3.915,20.737,5.49l-3.259-6.562c141.722-8.4,282.373,89.575,301.863,234.031a29.823,29.823,0,0,0-.787,8.465c1.159,27.452,1.487,54.97,1.816,82.815a10.859,10.859,0,0,0,1.138-1.6l4.353,8.728,7.678-43.726c56.785,41.364,95.284,105.543,101.693,176.109,1.072,11.681-2.472,29.639,1.684,39.877,3.784,9.34,26.774,25.155,34.5,33.314,68.2,72.1,90.384,147.191,86.447,246.237l-19.774,195.686c-2.209,5.315-1.225,14.918,0,21.874-.044,4.79,1.619,12.337-2.187,15.312-1.466-.241-1.028-10.587-1.028-10.062q-.984,62.013,1.028,121.62c-.722,24.565-2.1,93.6-10.521,113.067-10.959,25.286-69.735,63.763-98.827,59.716l35.021-25.111c17.543-17.959,34.977-29.18,35.086-56.917.022-6.759-.284-18.987-6.672-22.968,5.972,45.017-26.293,72.8-61.991,92.243-23.558,12.84-56.741,29.793-80.212,8.4,6.453-1.641,13.212-5.1,18.965-8.4,14.437-8.29,72.906-42.261,72.906-58.338v-31.718c-6.606-1.028-3.522,1.6-4.441,5.315-2.187,8.9-1.772,18.44-6.059,26.84-9.231,18.046-86.687,58.229-107.052,61.379-29.049,4.484-70.5-26.774-78.331-54.051-8.99-31.346,5.84-64.244,39.986-69.56,6.409-1.006,29.88-1.728,34.3,1.422,3.128,2.209,1.553,17.237-.766,21.174-6.475,10.937-29.88,5.512-25.286,18.462,29.224,1.312,42.02-10.609,38.083-40.292-1.6-11.965-16.515-41.5-31.477-38.477-3.5.7-2.975,2.669-1.138,5.469,2.144,3.281,18.855,16.384,15.29,20.78-22.793-6.672-49.523,1.838-67.875,16.34l-16.012,22.771c-29.027-14.415-45.323-51.4-37.011-82.378,10.7-39.833,47.358-70.982,80.869-91.937,14.2-8.881,39.177-18.724,50.857-27.89,18.046-14.174-22.049-8.072-28.283-.962-8.422-39.177-18.221-71.878-48.123-99.549-51.754-47.926-88.853-70.544-96.268-149.816a513.15,513.15,0,0,0,0-65.622c.109-2.516-.984-10.959,1.116-10.959,20.737,8.159,45.739,15.684,68.072,17.237,7.043.5,21.021,2.975,24.871-4.069-46.811-10.062-105.937-26.49-138.923-63.435-5.14-5.753-21.305-27.955-22.53-34.5-1.422-7.415,12.1-48.407,14.262-61.335a396.972,396.972,0,0,0,4.965-51.426c110.683-71.157,84.478-300.419-19.424-361.6-3.544-2.078-2.866-4.812-6.737.241,112.477,99.877,126.957,358.692-61.291,377.329a548.213,548.213,0,0,0-72.185,0c-47.817-3.675-91.456-14.656-135.6-32.811-1.312,5.95,1.816,3.719,4.353,5.4,58.47,38.761,193.892,53.5,258.705,29.071,5.884-2.209,11.243-5.622,16.909-8.225-3.916,71.113-26.949,142.9-89.312,183-5.775,64.879-16.974,129.1-30.427,192.689-32.264,25.921-79.666,35.174-120.133,41.736-24.5,3.981-52.607,7.853-77.281,9.122-4.681-.7-22.837-2.778-19.687,0-7.284,4.047-19.446,2.165-28.436,2.188a304.27,304.27,0,0,0-67.81,0c-83.122-1.794-176.677-7.853-254.877-37.142-11.484-4.309-43.748-17.609-52.17-24.39-3.522-2.844-3.653-4.025-5.206-7.918-5.6-14.284-10.434-45.126-13.059-61.313-1.75-10.806-8.006-45.761-7.306-53.92.088-.962,9.953-.24-2.187-10.937-20.562-18.112-55.188-31.542-79.775-53.657-11-9.887-55.232-57.748-53.2-70.675.481-3.106,26.118-37.908,30.667-46.045,22.771-40.861,38.148-90.318,41.189-137.085,5.075-1.378,3.653,1.2,5.009,2.778C713.262,892.509,828.1,909.111,970.2,878.4c42.37-9.165,91.871-21.5,122.473-53.592-19.424,9.231-36.7,19.971-57.354,26.84C894.161,898.59,735.945,895.134,633.378,775.5c-26.161-30.514-42.348-67.875-74.416-94.015-4.2-3.434-12.949-10.981-17.521-8.728,19.927,24.783,39.592,49.72,56.238,76.888-1.466,133.476-84.369,266.449-220.229,295.06-11.506,2.428-25.09,1.487-35.064,6.5,24.433,7.459,56.348,2.559,79.841-7.59,22.421,55.385,19.84,120.636-11.134,172.543-19.337,32.439-48.145,50.048-51.317,90.865-1.116,14.328-1.181,50.092,2.712,63.063,2.691,8.99,31.652,10.981,41.145,13.54,56.173,15.093,94.474,44.186,112.521,101.846,12.14,38.8-.634,57.769-27.211,85.2-5.906-16.1-17.762-32.33-34.977-37.317,2.341-13.168,8.815-29.246,8.881-42.545.022-5.031-.241-10.368-6.737-9.822-1.706,23.865-32.221,77.609-13.234,97.427,2.778,2.909,4.769,3.741,8.837,3.172-2.691-13.824-6.847-25.155-2.144-39.352,42.37,26.8,46.286,104.865-2.122,128.051-38.433,18.4-59.257-13.89-89.75-30.711,4.725-2.756,18.659,1.312,17.477-7.634-25.768,4.309-39.7-5.753-54.62-25.221-3.106-4.069-10.893-20.605-12.075-20.693-12.315-.722,8.662,32.264,10.915,34.977,12.228,14.765,23.143,15.728,35.983,25.265s25.046,24.258,39.483,31.63c-5.819,17.193-31.039,19.38-46.483,16.93-17.587-2.778-94.715-45.454-104.077-59.979-2.122-3.281-5.862-15.9-8.006-16.012-4.134-.219-2.144,6.256-1.837,8.312,4.878,30.952,47.6,44.82,68.532,63.807-38.061,9.253-90.428-15.006-114.664-43.9-2.931-3.478-9.318-16.646-10.062-17.3-8.553-7.547.088,17.477,1.137,19.665,4.615,9.646,12.162,15.946,18.593,24.04-21.021-4.637-56.632-17.565-65.054-38.827-15.553-39.22-25.724-109.742-31.171-152.572-1.75-13.759-.306-31.586-2.734-45.389C81.209,1335.11,17.577,1237.77,7.69,1131a550.068,550.068,0,0,0,0-61.248Z" transform="translate(9.166 282.964)" fill="#b9b8b4"/>
    <path id="Pfad_27064" data-name="Pfad 27064" d="M1004.817,703.389c1.575,19.468,1.947,40.9,4.419,60.132,6.715,52.213,49.939,110.508,67.832,164.034,6.125,18.352,32.374,122.8,25.746,134.132-1.641,2.8-40.664,23.493-46.876,26.38-90.821,42.2-199.645,58.688-299.457,52.892-6.628-.394-26.708-1.9-29.093-5.906l-15.64-105.74c26.249-1.159,56-6.584,80.234-17.127,46.789-20.365,125.3-103.9,155.635-146.229,4.834-6.737,15.574-24.74,2.122-11-67.569,68.991-122.32,157.166-230.422,161.256-10.3.394-20.54-4.375-30.646-.328l-39.614,127.242c-129.495,5.665-264.108-18.987-373.742-89.684-2.887-5.009,27.561-91.324,32.308-103.443,13.715-35,43.7-83.384,51.82-116.611,5.337-21.852,3.675-54.116,7-78.309,2.909-21.043,8.159-41.977,12.84-62.648,53.176,28.808,115.955,45.323,176.087,52.476,96.859,11.506,209.314,12.534,305.932-.262,48.386-6.409,101.19-16.712,143.538-41.276Z" transform="translate(326.719 822.202)" fill="#484946"/>
    <path id="Pfad_27066" data-name="Pfad 27066" d="M639.982,949.949c7.393,2.253,22.159,1.291,32.811,0h2.187a168.335,168.335,0,0,1,26.446,3l-.2,5.753c-23.777,67-52.651,120.789-104.974,169.546-13.146,12.271-31.367,21.087-39.4,37.164,6.234,3.215,13.212-5.971,18.593-7.656,1.641-.35,1.4,2.122,1.05,3.215-4.572,14.306-16.406,32-21.349,46.461-10.937,31.849-.372,83.69-2.69,119.8-2.866,44.383-18.112,84.609-43.245,120.811-5.14,7.415-16.756,24.433-23.449,29.049-9.515,6.562-30.624,7.721-42.655,8.75a990.078,990.078,0,0,1-100.621-2.187c-38.455-4.9-77.828-15.465-111.077-35.458-7.328-56.785-7.722-116.655,13.168-170.75,25.483-65.994,85.353-101.19,92.331-176.283,1.159-12.469-12.359-49.742-15.246-65.885-10.565-59.235-3.7-114.424,7.722-172.849l72.228,36.027c50.311,20.321,103.137,33.336,156.684,42.37l81.678,9.1Z" transform="translate(269.405 1024.062)" fill="#b9b8b4"/>
    <path id="Pfad_27067" data-name="Pfad 27067" d="M612.742,941l65.666-9.8c63-12.075,125.536-31.411,179.3-66.76a445.856,445.856,0,0,1-13.715,131.726c-3.981,15.552-18.746,49.435-19.162,61.926-.459,13.256,9.712,38.455,11,54.663,3.609,45.083-9.275,82.75-32.242,120.658l2.734,7.262,20.78-24.04c.9,26.315,5.534,52.432,6.584,78.747v96.246c-.044,6.868,1.815,16.843-2.187,21.874q-.951,6.431-2.187,15.312c-10.7,15.378-96.727,29.464-117.048,30.6-24.827,1.4-114.467-4.156-131.114-21.962-12.6-13.5-34.452-64.376-38.389-83.012-3.653-32.745-.284-63.96,4.375-96.246,4.025-16.3,21.48-70.719,29.6-83.056.656-1.006,2.341-2.909,3.194-2.231-1.925,5.381,14.306,22.027,13.1,12.118-1.9-15.6-10.937-56.588-17.018-70.5-10.128-23.165-38.389-54.9-52.5-78.747-17.543-29.617-33.074-62.932-39.767-96.924l24.04,4.375q-7.153.886-13.124,2.188c31.324-1.99,68.029-1.663,99.527,0-.306-1.837,1.422-2.822,5.162-2.975q25.626-.131,13.431-1.4Z" transform="translate(574.446 1026.449)" fill="#b8b7b3"/>
    <path id="Pfad_27068" data-name="Pfad 27068" d="M767.593,1128.44c.044,47.467-8.05,94.846-5.425,142.138l100.183,68.247c42.48,18.571,104.908,31.236,125.864,77.566,20.5,45.3,8.29,62.144-36.4,74.525-33.577,9.3-78.506,10.018-113.089,7.153-66.716-5.512-125.907-31.958-192.492-41.561-20.452-2.953-84.981-11.244-96.137-28.546-7.437-11.506-2.778-61.029.219-76.1,6.628-33.336,20.19-49.414,18.352-86.818-1.509-31.039-9.056-68.182-21.59-96.531-1.291-2.931-12.25-21.721-11.309-22.574,76.581,18.243,159.7,15.9,231.844-17.5Z" transform="translate(636.149 1339.926)" fill="#484946"/>
    <path id="Pfad_27069" data-name="Pfad 27069" d="M470.846,1478.571c-10.543,74.394-119.586,88.24-178.252,84.194-29.639-2.056-106.527-15.531-113.9-50.157-7.831-36.858,32.921-98,53.22-128.576,11.943-18,51.317-63.785,56.326-79.294,2.866-8.881,4.944-30.427,5.512-40.423,2.384-40.948-.9-84.894-2.253-125.864,74.2,35.874,160.294,38.958,240.594,26.271-20.584,30.405-31.761,68.969-40.948,104.493-3.412,13.19-10.959,37.558-11.418,50.026-.634,17.368,13.54,55.932,15.137,78.441s1.619,49.523-10.368,68.247c-1.378,2.166.219,3.916-4.9,2.8,0-10.237-.437-25.615-8.772-32.789-1.334,13.343,1.816,29.771,0,42.655Z" transform="translate(211.049 1351.812)" fill="#484846"/>
    <path id="Pfad_27070" data-name="Pfad 27070" d="M440.665,305.24c4.637,29.683,1.991,60.46,7.24,90.1,1.116,6.344,2.691,17.543,8.465,21.043-3.872-36.661-5.1-73.453-6.431-110.355,18.593-47.511,72.972-13.671,107.446-4.878s76.013,14.94,112.236,12.381c24.783-1.75,55.582-12.206,78.9-13.146,16.624-.678,25.658,12.206,27.19,27.43,3.719,36.661,6.5,97.077,4.506,133.5-.613,11.112-2.537,33.358-7.918,42.392-11.812,19.884-55.21,24-76.406,26.4-48.364,5.49-158.194,11.637-198.661-13.5-19.271-11.965-92.987-82.225-104.8-100.818C371.28,382.478,381.167,297.628,379.9,255.52c-.569-18.834-.569-57-5.578-73.169-1.072-3.434-7.634-13.453-7.59-14.262.306-4.922,28.5-8.356,31.805-3.412,6.912,34.649,6.168,75.335,15.64,109.043,4.156,14.809,10.478,27.321,26.446,31.521Z" transform="translate(435.495 192.682)" fill="#5d5c5b"/>
    <path id="Pfad_27071" data-name="Pfad 27071" d="M784.441,234.391,653.2,267.2a126.3,126.3,0,0,0,5.643-35.021c.044-3.281,1.094-5.381-3.434-6.518l-6.693,41.43c-65.426-3.544-126.848-32.221-190.589-46.5-37.558-8.422-69.494-23.3-56.457,33.489-16.077,2.1-29.268,4.222-45.936,2.166,2.734-22.2,4.2-42.983,10.368-65.076,14.262-51.207,42.917-98.5,97.3-112.7C517.708,64.3,546.254,86.478,576.68,128.28c33.183,4.44,66.672,2.778,100.009,3.915,11.506-4.9,12.337-44.23,19.446-46.417,6.365-1.969,28.546,17.412,33.686,22.793,33.008,34.517,42.83,81.219,54.642,125.8Z" transform="translate(422.433 88.101)" fill="#bab9b5"/>
    <path id="Pfad_27072" data-name="Pfad 27072" d="M603.829,20.08l-42.414,181.4-90.8-.044L448.72,8.946C500.693,3.171,553.344,6.1,603.829,20.08Z" transform="translate(532.851 7.308)" fill="#04cc6c"/>
    <path id="Pfad_27073" data-name="Pfad 27073" d="M682.924,248c2.6,1.816,2.975,12.4,2.712,15.924-3.85,51.8-105.346,41.364-113.374,14.9-2.472-8.159,2.734-16.493,1.728-24.7-18.571,16.6-6.912,37.383,10.959,48.1-16.646-3.565-33.839-5.447-50.332-9.8-36.442-9.6-87.3-40.314-112.608,5.425-10.456-5.315-19.446-11.7-21.984-23.952L383.73,164.44c39.855,39.527,88.371,103.6,152,96.246,37.886-4.375,65.447-57.179,94.081-57.07,21.809.087,20.255,24.521,30.6,35.2,7.568,7.809,18.746,6.562,22.508,9.187Z" transform="translate(455.681 195.26)" fill="#b9b8b4"/>
    <path id="Pfad_27074" data-name="Pfad 27074" d="M522.246,8.783l19.665,179.39c-7.459-8.968-13.759-18.7-22.9-26.293-20.321-16.887-44.645-24.412-71.156-21.809-4.047-28.83-9.122-60.7-20.78-87.5l18.593,87.475c-19.162,1.2-36.727,9.406-54.664,15.334-4.44-23.23-9.646-48.451-7.306-71.835,4.047-12.84,42.523-35.983,55.363-43.048,10-5.49,77.762-37.361,83.165-31.7Z" transform="translate(454.951 9.658)" fill="#04ad6c"/>
    <path id="Pfad_27075" data-name="Pfad 27075" d="M417.377,228.106l-1.509,87.234q-14.667,6.693-35.677,2.45c-63.282-16.056-68.794-151.981-7.59-155.328,33.358-1.837,43.245,39.9,44.776,65.644Z" transform="translate(391.388 192.841)" fill="#b9b8b4"/>
    <path id="Pfad_27076" data-name="Pfad 27076" d="M518.621,172.842l-53.81,82.815c-6.694,1.619-47.358-24.171-50.179-30.4-1.925-4.265-.109-5.95,1.422-9.537,2.887-6.737,32.811-59.213,36.18-60.176l66.388,17.281Z" transform="translate(491.386 184.692)" fill="#6c6d6c"/>
    <path id="Pfad_27077" data-name="Pfad 27077" d="M617.329,190.44c-.984,18.724,6.453,36.945,4.4,55.779-.525,4.9-6.5,25.068-9.646,27.518-10.521,8.159-16.559-5.25-23.318-9.887-18.4-12.556-50.529,5.49-72.032,5.294,14.765-11.79,19.206-27.321,17.521-45.914,17.237,5.8,35.261-1.378,50.114-10.018l32.986-22.771Z" transform="translate(613.607 226.132)" fill="#b9b8b5"/>
    <path id="Pfad_27078" data-name="Pfad 27078" d="M615.329,153.44c-5.862,12.949-13.059,25.483-20.1,37.842-12.84,22.421-26.774,44.492-41.255,65.907-9.756,8.05-27.518-6.89-39.242-7.525,5.972-12.271,12.49-24.608,19.315-36.442,4.9-8.487,22.465-39.592,27.824-44.361,8.268-7.393,41.845-9.406,53.482-15.4Z" transform="translate(611.232 182.198)" fill="#6b6b6a"/>
    <path id="Pfad_27079" data-name="Pfad 27079" d="M745.94,861.061c.678.9-2.122,6.978-2.187,9.734-.306,18.046,5.578,32.286,15.334,46.985-33.686-6.825-56.676-40.555-45.914-74.35,3.544,5.95,31.63,16.143,32.745,17.631Z" transform="translate(843.688 1001.501)" fill="#bab9b6"/>
    <path id="Pfad_27080" data-name="Pfad 27080" d="M568.892,231.529c1.509,35.239,11.156,86.731,1.05,120.264-.919,3.084-4.484,11.7-7.568,13.168-3.084-34.474-.591-69.407-2.122-103.99-.241-5.425-5.294-26.118-4.484-27.233.394-.547,12.25-3.084,13.146-2.209Z" transform="translate(659.857 274.706)" fill="#5e5e5b"/>
    <path id="Pfad_27081" data-name="Pfad 27081" d="M512.756,1140.686c-6.934-32.68-3.544-64.179,4.375-96.246,4.025,2.1,1.881,7.7,1.247,11.047-5.337,27.539-7.2,45.367-4.047,73.825C514.725,1132.833,516.825,1138.411,512.756,1140.686Z" transform="translate(604.435 1240.183)" fill="#ccccc9"/>
    <path id="Pfad_27082" data-name="Pfad 27082" d="M606.84,899.641c2.8.088,11.046-1.794,10.915,2.166-7.612.481-15.421-.591-23.034-.066-2.822.2-5.731,2.275-6.475,2.275H488.72v-2.165c4.353-.131,8.771.087,13.124-.022,23.668-.613,47.489.722,71.178.087,11.112-.284,21.48-2.647,33.817-2.275Z" transform="translate(580.347 1067.807)" fill="#ebebe7"/>
    <path id="Pfad_27083" data-name="Pfad 27083" d="M380.341,1148.627a495.9,495.9,0,0,1-100.621-2.187Z" transform="translate(332.178 1361.299)" fill="#eeede9"/>
    <path id="Pfad_27084" data-name="Pfad 27084" d="M352.72,282.124c6.912-3.85,31.827,5.184,34.692-3.587l2.494-86.1c1.706,28.764-1.006,59.323-.306,88.284-2.3,6.934-29.443,3.281-36.88,1.4Z" transform="translate(418.859 228.507)" fill="#f0f0ec"/>
    <path id="Pfad_27085" data-name="Pfad 27085" d="M869.065,771.2c.394,36.9,1.094,74.7,0,111.558-3.631-2.275-2.187-8.312-2.231-12.009-.459-37.186.437-74.394.022-111.58,3.916-2.953,2.188,10.74,2.188,12.031Z" transform="translate(1029.032 900.951)" fill="#efefeb"/>
    <path id="Pfad_27086" data-name="Pfad 27086" d="M772.294,496.136c-.087,2.559,1.663,9.187-2.165,8.728-.919-24.346,1.116-49.02.066-73.366-.35-7.875-5.709-18.024-.087-25.068,3.74,27.693,3.172,61.444,2.187,89.684Z" transform="translate(911.437 482.602)" fill="#eaeae6"/>
    <path id="Pfad_27087" data-name="Pfad 27087" d="M643.72,1157.686V1061.44C644.967,1092.829,643.895,1126.1,643.72,1157.686Z" transform="translate(764.397 1260.369)" fill="#e7e7e3"/>
    <path id="Pfad_27088" data-name="Pfad 27088" d="M668.9,522.785c-23.274,2.3-48.845,1.794-72.185,0,2.275-3.631,8.29-2.187,12.009-2.231,16.034-.175,32.155-.2,48.189,0,3.7.044,9.734-1.4,12.009,2.231Z" transform="translate(708.588 617.821)" fill="#efefeb"/>
    <path id="Pfad_27089" data-name="Pfad 27089" d="M369.064,254.378c.5,19.38-2.756,43.245,4.375,61.248-2.166,5.534-3.3-2.537-3.675-3.959-5.687-22.115-1.772-45.542-2.865-68.225,3.959-.131,2.1,8.137,2.166,10.915Z" transform="translate(435.327 289.064)" fill="#e6e7e2"/>
    <path id="Pfad_27090" data-name="Pfad 27090" d="M8.45,679.688a349.237,349.237,0,0,1,0-61.248c3.631,2.275,2.187,8.29,2.231,12.009C10.856,646.242,12.322,664.66,8.45,679.688Z" transform="translate(8.472 734.345)" fill="#f1f0ec"/>
    <path id="Pfad_27091" data-name="Pfad 27091" d="M532.53,715.785c-22.53.066-45.279.481-67.81,0,2.275-3.631,8.29-2.187,12.009-2.231,14.568-.153,29.246-.175,43.814,0,3.7.044,9.734-1.4,12.009,2.231Z" transform="translate(551.85 846.992)" fill="#e3e3df"/>
    <path id="Pfad_27092" data-name="Pfad 27092" d="M692.269,675.062c-1.816-19.446-.787-45.826,0-65.622,3.631,2.275,2.188,8.29,2.231,12.009C694.675,638.729,696.119,658.526,692.269,675.062Z" transform="translate(820.843 723.659)" fill="#f3f3ef"/>
    <path id="Pfad_27093" data-name="Pfad 27093" d="M422.833,902.663c10.893-.219,21.918-.087,32.811,0-14.021,4.987-31.171.875-45.914,2.166C410.168,900.782,419.7,902.729,422.833,902.663Z" transform="translate(486.554 1071.347)" fill="#e4e4e0"/>
    <path id="Pfad_27094" data-name="Pfad 27094" d="M431.72,902.454c9.45.088,18.987-.087,28.436,0,.634.569-1.6,7.109-2.187,8.728-2.844-13.321-18.046-1.947-26.249-8.75Z" transform="translate(512.665 1071.557)" fill="#e4e4e0"/>
    <path id="Pfad_27095" data-name="Pfad 27095" d="M537.894,714.823c-6.475.328-13.19.109-19.687,0-4.419-.066-15.224,2.012-17.477-2.165C512.52,713.9,526.957,709.858,537.894,714.823Z" transform="translate(594.608 845.766)" fill="#e3e3df"/>
    <path id="Pfad_27096" data-name="Pfad 27096" d="M643.907,1124.927c-.263,6.125,1.575,9.909-2.187,15.312V1107.45C645.723,1109.484,644.083,1120.881,643.907,1124.927Z" transform="translate(762.022 1315.002)" fill="#e7e7e3"/>
    <path id="Pfad_27097" data-name="Pfad 27097" d="M870.106,751.016c.35,7.2.066,14.656,0,21.874-4.9-7.875-1.028-19.577-2.165-28.414C871.615,743.907,870,748.588,870.106,751.016Z" transform="translate(1030.179 883.945)" fill="#efefeb"/>
    <path id="Pfad_27098" data-name="Pfad 27098" d="M693.872,422.061c-18.68-13.846-39.045-21.021-61.2-27.365-99.44-28.393-208.789-40.445-307.747-68.6-3.675-1.05-6.125,1.641-5.053-4.659,31.061,3.85,61.619,9.8,92.265,15.99,69.21,13.956,187.068,33.642,248.906,59.52C672.7,401.827,689.847,409.2,693.872,422.061Z" transform="translate(379.549 381.683)" fill="#020202"/>
    <path id="Pfad_27099" data-name="Pfad 27099" d="M628.219,545.769c-46.723,14.065-91.959,32.155-129.1,64.529-21.765,18.965-51.164,61.948-81.919,60.219-4.025-.219-25.855-7-27.408-8.815a17.937,17.937,0,0,1,0-4.331c.7-.831,15.312,6.081,20.737,6.562,34.189,3.128,58.382-37.427,82.006-58.01,39.089-34.058,84.631-52.17,134.591-64.463l1.05,4.309Z" transform="translate(462.722 642.938)" fill="#020202"/>
    <path id="Pfad_27100" data-name="Pfad 27100" d="M746.136,325.45c-.678,4-4.484,3.675-7.35,4.659-28.83,9.756-61.029,16.056-90.559,25.374-30.208,9.515-64.66,20.321-93.162,33.708-16.427,7.7-30.952,18.331-47.336,25.921,19.249-23.887,52.17-36.749,80.387-47.554a800.352,800.352,0,0,1,158.041-42.086Z" transform="translate(602.92 386.445)" fill="#020202"/>
    <path id="Pfad_27101" data-name="Pfad 27101" d="M532.979,623.034c23.23-57.945,18.812-128.861-2.165-187.046-6.694-18.549-17.237-35.13-24.084-53.548,43.945,52.148,56.7,135.642,45.279,201.7-.591,3.39-11.134,47.182-19.03,38.914Z" transform="translate(601.733 454.116)" fill="#020202"/>
    <path id="Pfad_27102" data-name="Pfad 27102" d="M55.415,666.594c1.75,19.862,10.893,49.917,19.315,68.182,9.734,21.13,25.2,38.148,37.558,57.573-8.225,7.262-40.183-42.983-43.442-49.5C49.18,703.43,41.459,648.285,56.53,606.44c3.937,3.041-1.094,10.215-1.094,12.009,0,15.29-1.312,33.292,0,48.123Z" transform="translate(57.753 720.096)" fill="#020302"/>
    <path id="Pfad_27103" data-name="Pfad 27103" d="M658.135,658.191c-1.487,10.915-11.79,35.873-17.937,45.5-21.043,32.921-78.2,40.883-113.33,28.852-1.859-4.812,5.687-3.478,7.743-3.347,18.68,1.225,30.164,3.194,49.239-.94,59.038-12.8,58.316-45.455,70.544-95.721.547-2.209.634-6.584,3.74-6.081-.962,10.018,1.312,22.005,0,31.718Z" transform="translate(625.299 743.811)" fill="#030302"/>
    <path id="Pfad_27104" data-name="Pfad 27104" d="M675.318,653.986c-7.918-9.843-10-23.3-16.559-34.823-26.161-45.936-69.3-51.229-112-71.747-2.6-1.247-6.475-1.159-7.043-4.966C598.78,553.693,672.408,584.229,675.318,653.986Z" transform="translate(640.906 644.114)" fill="#020303"/>
    <path id="Pfad_27105" data-name="Pfad 27105" d="M602.889,610.462l-17.521,9.778c-36.136,14.568-91.5,19.1-129.035,8.793-11.484-3.15-23.777-8.072-30.6-18.593,10.937,3.806,19.359,8.815,31.018,11.615,27.518,6.65,66.41,5.25,94.474,1.181,17.74-2.581,34.233-9.406,51.689-12.8Z" transform="translate(505.552 724.846)" fill="#040404"/>
    <path id="Pfad_27106" data-name="Pfad 27106" d="M435.916,504.6c11.943,12.25,13.19,26.665-2.822,36.071-22.4,13.168-79.491.328-81.066-29.53-1.75-33.03,65.426-25.483,83.887-6.518Z" transform="translate(417.998 579.917)" fill="#030303"/>
    <path id="Pfad_27107" data-name="Pfad 27107" d="M522.909,683.968c-2.319,2.384-8.225,2.887-8.159-.481,0-1.159,8.225-15.618,9.8-20.78,13.693-44.842,12.556-86.665-1.094-131.267,18.571,20.868,19.359,59.345,17.587,86.512C540.08,632.651,532.753,673.753,522.909,683.968Z" transform="translate(611.256 631.04)" fill="#030303"/>
    <path id="Pfad_27108" data-name="Pfad 27108" d="M170.417,755.434c10.368-48.692-3.915-94.409-19.687-139.995,26.38,28.371,38.28,97.427,24.652,132.951-1.072,2.778-1.247,6.431-4.965,7.043Z" transform="translate(179.014 730.783)" fill="#050505"/>
    <path id="Pfad_27109" data-name="Pfad 27109" d="M803.3,630.987c-3.631.591-2.341-5.294-2.253-7.722.5-13.978,3.39-26.533,2.253-41.451-2.647-34.518-18.265-65.8-30.558-97.384,32.2,38.214,47.073,98.455,30.58,146.535Z" transform="translate(917.597 575.22)" fill="#030303"/>
    <path id="Pfad_27110" data-name="Pfad 27110" d="M107.051,605.85c-3.806.525-2.056-4.965-2.144-7.612-1.662-44.273,31.3-97.187,63.413-125.8-11.834,25.44-31.083,46.286-43.092,71.725-9.253,19.6-15.64,40.117-18.156,61.707Z" transform="translate(124.215 560.983)" fill="#030303"/>
    <path id="Pfad_27111" data-name="Pfad 27111" d="M842.123,762.02c-3.872.394-2.341-7.415-2.122-9.778,4.4-48.495,11.593-67.022,2.3-118.339-.241-1.356-4.112-7.743.963-7.437,2.318.131,6.606,17.3,7.5,20.89,9.1,37.011,6.256,79.578-8.618,114.664Z" transform="translate(996.892 743.862)" fill="#030403"/>
    <path id="Pfad_27112" data-name="Pfad 27112" d="M650.063,613.162c-28.9,27.8-82.334,33.861-117.333,14.984,11.375-1.859,22.443,2.756,33.8,3.391,38.345,2.187,66.322-9.493,94.168-35.086C662.225,600.234,652.731,610.6,650.063,613.162Z" transform="translate(632.606 708.234)" fill="#030302"/>
    <path id="Pfad_27113" data-name="Pfad 27113" d="M684.1,479.851c47.51-5.665,1.356,67.241-33.139,49.479C625.2,516.053,664.394,482.191,684.1,479.851Z" transform="translate(762.906 569.409)" fill="#030303"/>
    <path id="Pfad_27114" data-name="Pfad 27114" d="M281.953,422.45c-39.789,27.715-90.3,36.9-131.223,63.413.153-5.6,8.312-9.843,12.424-12.709,33.927-23.515,80.541-35.7,118.8-50.7Z" transform="translate(179.014 501.624)" fill="#030303"/>
    <path id="Pfad_27115" data-name="Pfad 27115" d="M393.382,616.4c.569,3.85-4.944,2.144-7.131,1.662-32.177-7.2-72.1-51.689-82.531-82.619,25.243,31.827,52.345,62.648,89.64,80.956Z" transform="translate(360.676 635.79)" fill="#030303"/>
    <path id="Pfad_27116" data-name="Pfad 27116" d="M529.691,631.389c-.044-.722-5.184-17.609,2.165-9.843.744.787,3.872,18.353,4.134,21.043,2.45,25.484-1.444,52.411-14.678,74.481-1.684,2.8-15.159,20.737-13.54,8.378.766-5.862,11.922-20.605,14.853-28.917,1.881-5.337,7.065-23.493,7.065-27.933,0-12.162.678-25.177,0-37.186Z" transform="translate(602.812 735.614)" fill="#030302"/>
    <path id="Pfad_27117" data-name="Pfad 27117" d="M749.72,634.44c6.693,2.778,3.806,11.943,4.966,18,5.775,29.88,14.765,58.36,30.033,84.784-3.522,3.325-16.187-15.312-17.915-18.156-5.95-9.778-17.084-37.82-17.084-48.539Z" transform="translate(890.262 753.344)" fill="#040403"/>
    <path id="Pfad_27118" data-name="Pfad 27118" d="M551.157,673.45c-17.981,14.94-48.036,19.1-70.807,17.193-5.337-.437-31.586-5.753-34.167-8.509-1.575-1.663-1.116-4.659,3.062-4.178,11.309,1.312,23.974,5.556,35.239,6.365C508.021,686.006,528.977,680.078,551.157,673.45Z" transform="translate(528.848 799.665)" fill="#030303"/>
    <path id="Pfad_27119" data-name="Pfad 27119" d="M807.831,567.62c-7.087,28.764-25.374,57.551-48.1,76.538,1.838-8.443,7.722-16.515,12.184-23.887,9.6-15.815,20.3-32.92,30.493-48.32,1.662-2.537-.547-5.665,5.4-4.353Z" transform="translate(902.149 673.607)" fill="#030303"/>
    <path id="Pfad_27120" data-name="Pfad 27120" d="M166.372,636c-21.437-20.824-44.8-48.21-54.642-76.559,13.278,11.9,24.455,28.218,34.583,43.048C153.51,613.032,161.6,624.1,166.372,636Z" transform="translate(132.705 664.288)" fill="#040403"/>
    <path id="Pfad_27121" data-name="Pfad 27121" d="M445.984,713.165c-5.031,5.884-24.412-28.765-25.921-32.024-6.781-14.459-12.534-30.449-11.221-46.7L431.722,687c4.156,9.056,15.684,15.246,14.284,26.161Z" transform="translate(485.276 753.344)" fill="#040404"/>
    <path id="Pfad_27122" data-name="Pfad 27122" d="M392.9,640.984c-14.743,6.934-75.684-42.086-67.788-50.267,3.412-3.544,13.868,13.146,16.3,15.4,15.771,14.634,34.255,22.727,51.514,34.867Z" transform="translate(385.242 700.842)" fill="#040404"/>
    <path id="Pfad_27123" data-name="Pfad 27123" d="M797.092,478.473c-2.341,2.034-49-26.118-54.51-29.683-6.956-4.528-15.552-9.034-19.862-16.209,4.069-1.05,6.081,1.575,9.034,2.975,5.031,2.406,70.216,38.673,65.338,42.917Z" transform="translate(858.202 513.367)" fill="#040404"/>
    <path id="Pfad_27124" data-name="Pfad 27124" d="M427.424,677.565v60.154c0,.372-2.953,3.434-4.353,3.281-3.631-3.675-2.734-51.164-.656-58.688,1.072-3.894-.7-5.644,5.009-4.747Z" transform="translate(499.462 804.277)" fill="#050404"/>
    <path id="Pfad_27125" data-name="Pfad 27125" d="M360.749,298.558c9.034,21.349,27.277,38.433,32.833,61.226-11.593-11-22.115-29.158-29.552-43.7-1.816-3.565-12.665-19.8-3.281-17.521Z" transform="translate(423.912 354.255)" fill="#070707"/>
    <path id="Pfad_27126" data-name="Pfad 27126" d="M574.15,737.841c-4-.656-2.34-11.221-2.144-14.174,1.159-16.318,5.119-33.1,7.612-49.217,3.478,2.494,3.522,5.862,3.391,9.712-.241,7.284-1.553,21-2.537,28.283C579.29,721.107,576.49,729.507,574.15,737.841Z" transform="translate(678.639 800.852)" fill="#070707"/>
    <path id="Pfad_27127" data-name="Pfad 27127" d="M294.774,408.354c-2.253-2.013,34.78-43.486,39.352-45.914-2.734,9.953-11.681,20.8-18.549,28.458-2.341,2.625-18.221,19.752-20.8,17.456Z" transform="translate(349.936 430.367)" fill="#080807"/>
    <path id="Pfad_27128" data-name="Pfad 27128" d="M509.809,722.541c-1.6-1.487,10.478-17.3,9.953-21.743l3.128-26.358c3.434,11,4.9,22.027,1.619,33.314-1.225,4.244-9.187,19.927-14.721,14.787Z" transform="translate(605.216 800.84)" fill="#040403"/>
    <path id="Pfad_27129" data-name="Pfad 27129" d="M529.458,883.673c-1.662,1.575-13.212-7.962-15.334-9.8-12.928-11.046-24.718-24.849-38.3-36.07-29.989-24.718-64.179-43.661-95.327-66.607-1.137-.831-7.984-2.362-4.134-5.644,4.747-4.025,80.541,46.811,89.443,53.81,5.819,4.572,67.307,60.854,63.654,64.288Z" transform="translate(445.55 908.76)" fill="#010101"/>
    <path id="Pfad_27130" data-name="Pfad 27130" d="M351.68,969.44c.809,4.769-6.847,8.159-10.237,10.521-13.978,9.734-31.324,12.621-37.974,29.836-12.928,33.489-5.534,68.969.656,102.349.525,2.866,4.112,4.287-1.641,3.828-20.54-23.23-19.315-94.518-2.078-117.967,10.084-13.715,36.027-21.043,51.251-28.568Z" transform="translate(341.153 1151.127)" fill="#020302"/>
    <path id="Pfad_27131" data-name="Pfad 27131" d="M349.08,941.864c-8.881,31.739-4.134,64.113,15.684,90.384,2.581,3.412,23.974,21.283,13.8,23.339-2.166.438-14.065-9.625-16.34-12.052-20.715-21.9-27.649-53.439-23.887-82.925.306-2.428,6.037-23.777,10.74-18.768Z" transform="translate(400.625 1117.456)" fill="#030303"/>
    <path id="Pfad_27132" data-name="Pfad 27132" d="M357.259,1064.7c-19.052,29.99-29.224,60.329-34.692,95.437-1.662,10.718-1.269,22.246-2.406,32.593-.35,3.259-.481,6.737-4.44,7.568-6.037-34.255,3.565-77.872,19.249-108.692C336.632,1088.325,352.687,1060.326,357.259,1064.7Z" transform="translate(372.76 1263.692)" fill="#030303"/>
    <path id="Pfad_27133" data-name="Pfad 27133" d="M325.72,1095.1c14.065-16.1,35.524-24.871,46.833-43.923l20.955-45.739c1.225,42.371-28.24,77.807-67.788,89.662Z" transform="translate(386.799 1193.874)" fill="#030303"/>
    <path id="Pfad_27134" data-name="Pfad 27134" d="M297.519,1052.833,264.73,1173.119c1.181-35.742,8.64-76.056,23.668-108.649.569-1.225,5.731-15.728,9.121-11.637Z" transform="translate(314.379 1249.289)" fill="#040403"/>
    <path id="Pfad_27135" data-name="Pfad 27135" d="M554.091,919.575v57.967c0,12.053,11.637,45.082,18.724,55.648,1.925,2.865,11.79,11.221,11.856,12.162.547,9.909-16.8-8.05-18.352-10.04-19.949-25.505-23.646-78.353-17.7-109.283C549.366,922.112,548.579,918.306,554.091,919.575Z" transform="translate(648.409 1091.622)" fill="#050505"/>
    <path id="Pfad_27136" data-name="Pfad 27136" d="M582.049,1062.875c7.5,7.524,9.734,67.416,8.881,79.928s-2.778,34.824-13.19,42.567c8.159-42.764,7.547-77.106.459-119.739C577.478,1061.256,580.868,1061.694,582.049,1062.875Z" transform="translate(686.051 1261.122)" fill="#020202"/>
    <path id="Pfad_27137" data-name="Pfad 27137" d="M584.72,1032.54c23.58-16.624,43.18-34.342,56.479-60.526l11.309-22.574C652.048,985.357,620.112,1026.262,584.72,1032.54Z" transform="translate(694.339 1127.379)" fill="#030303"/>
    <path id="Pfad_27138" data-name="Pfad 27138" d="M624.321,1069.271c-9.056-4.747-9.69-16.143-14.109-24.149-5.359-9.756-15.049-21.7-19.074-31.28-4.878-11.637,7.831-.087,11.265,4.09,10.893,13.278,19.49,34.364,21.9,51.361Z" transform="translate(700.653 1197.853)" fill="#050505"/>
    <path id="Pfad_27139" data-name="Pfad 27139" d="M615.72,1223.48c14.962-12.14,37.339-15.159,54.663-24.04,4.681,4.812-17.084,15.312-19.687,16.384C640.46,1220.024,626.7,1223.633,615.72,1223.48Z" transform="translate(731.149 1424.233)" fill="#020201"/>
    <path id="Pfad_27140" data-name="Pfad 27140" d="M332.711,1231.646c.153,3.981,1.094,4.571-3.259,4.375-8.465-.415-19.534-5.031-28.743-6.278-14.525-1.969-29.311-1.159-43.442-2.516-1.947-.175-16.734-1.969-12.053-6.518,2.428-2.384,26.621-2.538,31.7-2.166,18.877,1.334,37.492,9.34,55.823,13.1Z" transform="translate(290.124 1446.734)" fill="#020202"/>
    <path id="Pfad_27141" data-name="Pfad 27141" d="M425.721,227.52c23.449,7.875,44.908,20.321,69.035,26.686,50.048,13.212,106.658,11.9,157.822,5.665,5.119-.634,25.265-6.147,26.6-5.928,4.9.831,3.762,25.7,2.712,30.864-7.306,35.939-89.356,46.461-118.8,45.433-34.452-1.2-103.4-15.028-126.8-41.627-12.118-13.781-24.477-45.826-10.565-61.094Z" transform="translate(498.233 270.162)" fill="#020202"/>
    <path id="Pfad_27142" data-name="Pfad 27142" d="M542.342,284.44c.5,3.128-3.85,3.172-6.081,3.741-13.3,3.325-27.736,4.069-41.1.678-3.675-.941-6.365,2.209-5.315-4.419Z" transform="translate(581.411 337.749)" fill="#080908"/>
    <path id="Pfad_27143" data-name="Pfad 27143" d="M589.839,136.137c.044,3.172-6.672,4.222-9.209,4.965-39.592,11.659-99.309-3.719-136.845-19.709-2.691-1.159-6.453-1.181-7.065-4.944,51.754,12.862,98.39,38.98,153.1,19.687Z" transform="translate(518.602 138.276)" fill="#0d0c0c"/>
    <path id="Pfad_27144" data-name="Pfad 27144" d="M505.246,167.8,428.73,128.45a297.255,297.255,0,0,1,63.457,27.277C494.374,157.018,508.636,164.367,505.246,167.8Z" transform="translate(509.115 152.525)" fill="#080807"/>
    <path id="Pfad_27145" data-name="Pfad 27145" d="M510.784,165.429c-.984-4.922,5.512-6.934,8.99-9.581,11.856-8.99,25.462-15.837,36.924-25.418,2.494,2.734-12.949,16.34-15.465,18.418-7.656,6.234-20.78,15.246-30.427,16.581Z" transform="translate(606.428 154.876)" fill="#070707"/>
    <path id="Pfad_27146" data-name="Pfad 27146" d="M383.257,240.335c-10.193,3.412-9.056-11.506-11.09-12.928-12.031-8.465-22.574,23.777-7.328,39.045,4.178,4.178,10.718,2.494,9.69,8.881-22.268.809-30.383-28.5-22.946-45.914,5.775-13.54,18.615-10.74,18.615-12.075-.044-8.028-16.34-40.358-28.458-36.07,6.847-18.177,22.4,3.3,28,12.468,8.378,13.671,14.524,30.405,13.54,46.592Z" transform="translate(405.822 206.839)" fill="#030302"/>
    <path id="Pfad_27147" data-name="Pfad 27147" d="M435.194,529.229c-14.349,17.324-57.376,8.99-72.6-5.972-20.584-20.212,2.362-33.774,23.952-32.811C401.114,491.08,451.512,509.52,435.194,529.229Z" transform="translate(421.038 582.306)" fill="#5f5f5d"/>
    <path id="Pfad_27148" data-name="Pfad 27148" d="M676.55,482.15c43.333-9.143-1.466,54.489-26.511,38.652C632.78,509.887,664.913,484.6,676.55,482.15Z" transform="translate(765.975 571.44)" fill="#5f5f5c"/>
    <path id="Pfad_27149" data-name="Pfad 27149" d="M613.065,293.926c-55.407,16.471-117.792,14.568-170.115-9.734l8.268-42.742c27.518,8.772,56.238,14.634,85.309,15.29l-2.187,43.748c5.687.941,3.937-.853,4.987-4.725,3.062-11.156,2.384-27.1,3.74-39.023l70.019-4.353v41.561Z" transform="translate(526 286.702)" fill="#f8f7ef"/>
    <path id="Pfad_27150" data-name="Pfad 27150" d="M461.085,294.875c-25.046-9.931-40.2-36.683-37.142-63.435l42.786,19.6C470.1,255.917,459.291,286.344,461.085,294.875Z" transform="translate(502.965 274.816)" fill="#f8f7ee"/>
    <path id="Pfad_27151" data-name="Pfad 27151" d="M523.934,252.1c-.087-.7-2.516-1.575-2.209-3.259l32.833-4.4c2.362,18.7-11.987,38.323-29.574,43.726-6.322,1.947-1.05-3.084-1.05-3.237,0-9.931,1.247-23.558,0-32.811Z" transform="translate(619.506 290.253)" fill="#f6f6ee"/>
  </g>
</svg>
