<svg xmlns="http://www.w3.org/2000/svg" width="507.833" height="512" viewBox="0 0 507.833 512">
  <g id="coin" transform="translate(-2.887 -2.5)">
    <path id="Pfad_28116" data-name="Pfad 28116" d="M308.9,74.336v61.44c0,30.006-62.809,63.4-153,63.4-90.136,0-153-33.4-153-63.4V74.336c30.363,25.838,86.862,42.865,153,42.865S278.533,100.173,308.9,74.336Z" transform="translate(0 315.32)" fill="#0ecf72"/>
    <path id="Pfad_28117" data-name="Pfad 28117" d="M308.9,54.706v61.44c0,30.005-62.809,63.4-153,63.4-90.076,0-152.886-33.339-153-63.286V54.706c30.363,25.9,86.862,42.924,153,42.924S278.533,80.6,308.9,54.706Z" transform="translate(0 229.156)" fill="#0ecf72"/>
    <path id="Pfad_28118" data-name="Pfad 28118" d="M308.9,98.176c0,30.005-62.809,63.4-153,63.4-89.957,0-152.766-33.28-153-63.226v-.238c.119-30.005,62.928-63.4,153-63.4C246.087,34.712,308.9,68.171,308.9,98.176Z" transform="translate(0 141.392)" fill="#0ecf72"/>
    <path id="Pfad_28119" data-name="Pfad 28119" d="M346.344,65.9c0,30.005-62.869,63.464-153,63.464-90.2,0-153-33.459-153-63.464s62.809-63.4,153-63.4C283.475,2.5,346.344,35.9,346.344,65.9Z" transform="translate(164.376)" fill="#0ecf72"/>
    <path id="Pfad_28120" data-name="Pfad 28120" d="M346.344,22.494v61.5c-.119,30.005-62.928,63.345-153,63.345-8.573,0-17.027-.417-25.362-1.012C163.393,108.284,111.6,77.564,40.334,67.8V22.494c30.363,25.838,86.862,42.925,153,42.925S315.981,48.332,346.344,22.494Z" transform="translate(164.376 87.764)" fill="#0ecf72"/>
    <path id="Pfad_28121" data-name="Pfad 28121" d="M242.094,42.113v61.559c-.119,29.946-62.928,63.345-153,63.345-8.454,0-16.789-.417-25-1.012V84.085c8.275.6,16.551.953,25,.953C155.232,85.038,211.731,68.011,242.094,42.113Z" transform="translate(268.626 173.879)" fill="#0ecf72"/>
    <path id="Pfad_28122" data-name="Pfad 28122" d="M242.094,61.742v61.44c-.06,15-15.777,30.839-42.746,42.924-26.969,12.145-65.19,20.48-110.258,20.48-8.513,0-16.848-.416-25-1.012v-81.86c8.275.6,16.551.953,25,.953C155.232,104.667,211.731,87.58,242.094,61.742Z" transform="translate(268.626 260.043)" fill="#0ecf72"/>
  </g>
</svg>
