<svg xmlns="http://www.w3.org/2000/svg" width="366.436" height="512" viewBox="0 0 366.436 512">
  <g id="drop" transform="translate(-35.275 0)">
    <g id="Gruppe_12002" data-name="Gruppe 12002" transform="translate(35.275 0)">
      <path id="Pfad_28123" data-name="Pfad 28123" d="M239.951,17.643c-14.03-23.934-28.886-23.109-42.916,0-64.374,95.735-161.76,239.338-161.76,311.14a183.218,183.218,0,1,0,366.435,0C401.71,256.156,304.324,113.378,239.951,17.643ZM350.542,410.488a156.708,156.708,0,0,1-55.3,53.645c-10.729,5.777-23.934,2.476-29.711-8.253-6.6-11.554-2.476-24.759,8.253-30.536,16.506-9.078,29.711-22.283,39.615-37.964a107.588,107.588,0,0,0,16.506-52.82c.825-12.38,10.729-21.458,23.109-20.633s21.458,10.729,20.633,23.109C372,363.445,363.746,388.2,350.542,410.488Z" transform="translate(-35.275 0)" fill="#0ecf72"/>
    </g>
  </g>
</svg>
