<svg xmlns="http://www.w3.org/2000/svg" width="448.232" height="519.017" viewBox="0 0 448.232 519.017">
  <path id="hacker" d="M256,0c62.461,0,111.525,68.958,124.919,119.967A140.054,140.054,0,0,1,385.3,148.21C345.982,116.017,301.55,99.074,256,99.074s-89.98,16.943-129.3,49.136a139.619,139.619,0,0,1,4.374-28.243C144.468,68.958,193.539,0,256,0Zm85.08,133.489c-55.071-29.642-115.119-29.642-170.185.009,1.521,88.322,44.442,128.69,84.2,128.774h.138c21.776,0,42.289-11.424,57.786-32.178,17.5-23.446,27.173-56.795,28.057-96.6ZM68.484,300.434a14.954,14.954,0,0,0-6.921,10.239L35.086,449.519C33.1,459.292,13.2,502.645,103.8,512s213.8,9.356,304.4,0,70.686-52.715,68.721-62.481l-26.5-138.846a14.867,14.867,0,0,0-6.917-10.239s-33.2-31.529-58.2-38.162-33.6,4.676-41.822,11.631a6.3,6.3,0,1,1-8.141-9.617,142.62,142.62,0,0,0,49.887-99.571,239.915,239.915,0,0,0-31.793-24.034c-1.891,39.446-12.283,72.8-30.323,96.951-17.93,24.023-42.027,37.239-67.867,37.239h-.168c-44.624-.094-92.7-42.215-96.576-134.15a240.22,240.22,0,0,0-31.729,23.994,142.561,142.561,0,0,0,49.883,99.571,6.3,6.3,0,0,1-8.136,9.617c-8.218-6.955-16.739-21.824-41.747-15.191S68.484,300.434,68.484,300.434Z" transform="translate(-31.883)" fill="#0ecf72" fill-rule="evenodd"/>
</svg>
