<?xml version="1.0" encoding="UTF-8"?>
<svg id="Ebene_1" data-name="Ebene 1" xmlns="http://www.w3.org/2000/svg" viewBox="0 0 7362 3956">
  <defs>
    <style>
      .cls-1 {
        fill: #3bb366;
      }

      .cls-2 {
        fill: #3db366;
      }

      .cls-3 {
        fill: #54bc79;
      }
    </style>
  </defs>
  <path class="cls-2" d="M0,3144V0h7362v3468l-20.72-61.28c-.97-18.44-52.95-60.52-54.61-65.37-3.88-11.33.47-39.5-1.17-54.83-13.69-128.34-104.71-226.02-227.45-260.49-44.46-12.48-43.42-7.35-84.3-31.68-63.96-38.07-123.21-68.15-199.6-74.39,1.76-15.16,11.5-27.19,15.77-42.19,23.05-81.06,6.49-242.49-107.72-233.78-1.08-22.87-7.98-46.01-14.03-67.97-9.23-33.44-13.75-28.94-13.79-65.86-.13-98.2-9.82-166.86-78.11-242.22-121.43-134-393.03-130.8-521.97-10-25.31,23.71-31.76,29.64-26.9,67.04,3.01,23.16,39.44,121.9,38.16,128.48-.46,2.37-24.11,27.78-28.84,34.9-23.77,35.83-37.67,76.58-42.55,119.42-69.52-2.61-75.93,57.95-37.84,104.26,7.92,9.63,32.65,26.47,34.07,33.92-1.58,78.13-13.96,156.05-5.64,234.2-181.13,32.36-309.78,177.82-298.26,365.78.94,15.32,10.16,42.54,8.03,55.83-.9,5.6-30.93,47.86-36.79,59.51-51.1,101.53-52.24,201.65-51.45,312.88.36,50.56-7.51,45.04-21.86,89.8-9.1,28.38-16.23,62.35-17.95,92.04H1407.62l4.96-181.04c21.81-42.35,25.18-104.32,42.78-145.21,24.41-56.7,51.1-90.63,70.22-157.76,20.5-71.97,23.27-147.05,43.14-216.85,4.82-16.94,9.71-33.9,12.67-51.32,5.16-7.45,36.86-2.69,48.11-3.88,89.35-9.48,188.83-60.98,254.05-121.88,178.14-166.31,196.37-396.35,154.64-626.8-6.93-38.27-25.95-84.17-30.39-117.6-4.91-36.95,2.05-69.24-6.3-109.7-31.28-151.58-156.64-225.02-304.03-235.89-104.92-7.74-158.16,62.62-158.06,162.12,0,6.54,4.11,15.18,3.31,19.4-.94,4.96-36.76,26.37-42.23,53.32-22.61,111.55,105.51,194.95,202.89,201.26,7.11,8.24-48.44,185.54-55.59,210.07-41.58-.4-73.61,5.75-112.14,19.83-10.95,4-25.2,15.27-35.06,17.19-18.4,3.59-30.26-10.27-46.83-15.41-17.9-5.56-36.59-8.52-54.37-14.16l-4.28-139.17c-5.72-37.8-10.42-74.86-31.07-107.93,29.73-33.79,72-142.78,31.41-176.41-25.54-21.16-47.78-1.34-75.73-2.24-12.82-81.89-70.36-148.47-139.48-190.6l15.19-231.11c-3.98-24.85-25.85-26.12-46.29-29.67-222.96-38.74-413.39,74.37-452.14,302.63-8.13,47.86,5.1,104.94-1.37,138.67-5.4,28.13-28.64,64.58-35.32,104.64-1.35,8.11-2.58,51.62-4.47,53.53-.97.98-19.14.22-27.33,2.68-90.32,27.03-76.01,194.47-37.34,259.99,6.51,11.04,35.16,41,35.69,43.77,2.07,10.71-10.11,36.12-7.05,49.54-161.32-55.56-323.8,44.79-400.61,185.28-9.64,17.63-22.74,60.53-35.07,72.92-7.11,7.14-34.28,14.14-46.84,21.15-41.86,23.35-80.76,60.92-106.97,101-9.17,14.03-13.41,39.3-30.32,43.67ZM959.65,1059.86c-19.17,6.53-66.16,21.06-49.92,48.17,12.89,21.53,51.1-13.03,67.6-15.73,16.51,14.23,14.2,59.61,43.53,50.95,33.23-9.81-5.48-50.6-8.83-68.86,14.26-16.14,59.23-19.93,50.97-47.57-9.36-31.29-55.48,12.69-68.65,8.85-13.39-3.9-15.69-58.88-43.76-51.12-32.56,9,15.24,66.66,9.06,75.31ZM6038.36,1387.94c-5.24-7.15,44.92-63.97,8.12-74.34-25.94-7.31-31.19,51.54-42.52,54.1-17.68-3.39-59.94-42.01-68.99-8.8-7.51,27.53,46.92,29.63,51.01,43.72,4.87,16.77-41.47,62.79-4.71,72.8,23.85,6.49,33.91-38.88,41.15-55.41,20.83,1.85,56.58,41.04,69.94,11.89,11.65-25.41-36.74-37.79-54-43.96ZM242.79,1464.56c-8.72,2.22-16.93,15.1-14.29,24.57,2.94,10.53,40.74,35.12,39.14,44.32-10.19,16.6-53.55,38.98-36.07,60.93,20.96,26.31,47.86-30.52,62.35-30.52,15.62,0,35.9,52,60.36,32.51,26.31-20.96-30.54-47.9-30.52-62.37.02-15.7,46.92-37.78,32.38-60.21-20.63-31.82-47.32,26.36-62.22,26.36-12.47,0-32.61-40.3-51.13-35.58ZM1699.52,1532.02c10.35-82.58-61.23-87.25-47.95,0-26.66-.37-66.97-6.98-55.14,33.14,6.29,21.35,38.17,13.83,55.14,14.82-11.31,76.85,58.56,76.17,47.95,0,72.65,10.91,76.54-59.93,0-47.96ZM7192.88,1496.55c-9.42,2.42-30.27,33.34-41.37,39.16-11.75,2.05-40.93-56.29-61.8-30.09-16.99,21.34,22.02,41.12,32.07,56.93,2.04,11.7-56.34,41.1-30.08,61.82,26.43,20.85,45.82-28.52,60.36-28.51,9.91,0,44.31,51.25,60.22,28.39,14.89-21.39-23.78-44.01-33.94-58.79-2.12-12.16,49.83-34.62,33.72-61.49-2.71-4.52-13.72-8.81-19.18-7.41ZM2139.41,1640.01c-3.07-2.97,9.34-32.65-17.9-28.17-16.83,2.77-11.7,24.92-14.57,27.67-2.54,2.44-18.62-2.48-22.8,11.3-8.02,26.42,18.56,21.2,22.58,25.91,3.02,3.55-.36,23.15,11.37,26.85,24.69,7.8,20.07-25.74,21.6-27.33,1.15-1.18,22.81,1,27.13-15.15,6.87-25.71-25.88-19.62-27.41-21.09ZM6566.44,1951.77c-1.34-1.29.91-30.96-21.76-23.47-10.56,3.49-4.77,21.97-6.48,23.69-1.44,1.45-34.46-4.38-27.41,21.18,4.19,15.17,25.03,9.03,27.19,11.11,1.29,1.24-1.11,27.92,17.48,23.32,12.92-3.2,9.63-22.04,10.98-23.34,2.26-2.18,25.16,5.37,26.84-14.88,1.85-22.32-24.97-15.79-26.85-17.59ZM2122.36,2104.68c-49.49,10.25-11.81,86.26,25.18,45.44,22.98-25.37,5.87-51.87-25.18-45.44ZM7081.92,2558.19c0-14.53-11.78-26.32-26.31-26.32s-26.31,11.78-26.31,26.32,11.78,26.32,26.31,26.32,26.31-11.78,26.31-26.32ZM2300.86,2977.96c0-9.66-7.83-17.5-17.49-17.5s-17.49,7.83-17.49,17.5,7.83,17.5,17.49,17.5,17.49-7.83,17.49-17.5Z"/>
  <path class="cls-1" d="M5598.48,3956c2.23-24.41,7.38-48.44,14-71.99,5.74-20.4,23.1-53.87,25.74-70.24,4.57-28.32-5.16-77.76-3.71-111.73,3.04-71.54,20.39-160.07,51.25-224.74,6.75-14.15,35.4-55.25,36.68-63.63,3.13-20.58-8.94-68.14-8.14-95.86,4.5-155.2,120.76-286.41,276.06-301.82,7.45,88.73,27.36,237.48,102.09,295.91,83.76,65.49,366.28,41.76,451.09-20.59,101.36-74.52,96.65-210.33,94.68-323.32,21.1,2.32,44.4,6.98,65.7,3.75,18.9-2.86,32.92-20.01,52.21-20.08,54.74-.2,150.18,34.49,197.63,62.69,37.02,21.99,26.69,23.39,72.54,35.44,162.15,42.61,237.66,143.13,231.89,312.38-.31,9.13-8.4,45.54-4.14,49.82,12.11,12.18,25.17-31.83,24.02-39.98,85.89,73.63,66.06,203.3,68.47,305.48.15,6.33,3.51,13,3.66,20.36,1.7,85.96-1.67,172.21-.19,258.15h-283.92c-2.92-17.87,18.58-59.64,15.36-73.21-1.47-6.2-73.8-75.47-86.67-93.46-46.13-64.49-68.47-147.12-76.61-225.32,11.94,6.26,23.9,12.11,37.93,12.15,8.53.02,8.6-7.24,5.48-11.63-1.55-2.19-36.31-21.09-45.33-28.64-12.61-10.55-47.57-54.31-56.06-55.95-11.51-2.22-1.19,21.68,1.21,26.81,5.06,10.79,27.3,32.47,27.95,35.79,1.98,10.19-35.84,92.64-43.98,106.68-82.59,142.53-273.1,189.2-425.05,146.72-3.7.17-2.41,11.49-2.02,11.95,2.84,3.41,76.03,18.38,86.46,19.59,131.83,15.35,284.93-43.74,355.07-159.8,12.41-20.54,19.52-45.03,34.27-63.68,11.56,65.01,31.19,130.73,67.91,186.11,7.81,11.78,37.91,44.52,39.51,52.85,5.42,28.33-47.18,81.55-43.39,113.03h-491.87c-6.4-18.8-38.33-18.9-50.07-35.92l-43.86-56.12c-4.66,43.87,41.86,76.89,77.94,92.04h-367.9c-44.42-45.52-84.91-99.59-95.95-163.98,85.17,37.54,189.57,51.28,277.98,16.05,2.82-1.12,34.13-12.69,25.9-20.05-101.61,28.25-203.9,32.19-295.55-26.37-115.89-74.04-130.23-221.13-124.26-347.6l21.9-106.09c-9.4.85-12.78,13.01-15.88,20.11-44.73,102.35-34.57,299.22,32.99,390.85,9,12.2,29.61,27.76,34.63,37.36,1.92,3.67,25.13,74.62,25.7,78.72,2.11,14.99-20.5,20.23-23.33,35.09-4.62,24.2,3.18,60.19-.09,85.91h-347.91ZM6778.13,3272.01c-3.89-4.49-100.02,32.18-112.94,36.99-82.19,30.6-200.45,77.37-268.24,131.68-3.68,2.95-23.67,18.31-18.66,23.29l107.86-62.07c93.28-46.6,190.78-84.24,289.63-117.56,4.03-.83,2.76-11.86,2.35-12.34ZM6314.26,3463.98c3.83-3.83-3.15-12.5-5.8-16.15-28.99-39.83-150.36-86.2-199.05-100.89-28.2-8.51-57.4-17.4-87.02-18.91-1.79,10.17,1.55,7.21,7.98,9.78,78.52,31.38,159.07,40.76,233.17,90.96,8.3,5.62,44.94,41.01,50.73,35.22ZM6342.26,3519.98c-3.24.51-11.11-.79-11.95,0-7.4,6.95-9.57,131.83-8.17,150.16,1.21,15.78,7.17,48.87,12.98,63.02,2.84,6.93,5.38,16.21,15.13,14.82-13.95-75.38-15.67-151.67-7.99-228ZM7225.99,3707.98c9.16-6.53,2.33-60.08-1.12-72.82-2.33-8.61-28.53-68.69-42.81-55.14-2.92,2.77,16.66,28.45,19.48,34.47,9.53,20.3,14.45,45.17,15.7,67.5.1,1.76-6.65,36.96,8.74,25.99ZM6708.84,3669.31c-60.32,1.55-87.07,84-14.54,64.81,34.2-9.05,55.47-65.86,14.54-64.81ZM6001.43,3684.73c-65.59,7.79,30.46,90.01,57.22,53.54,17.89-24.37-33.92-56.31-57.22-53.54ZM6886.11,3788.02c-9.12-8.33-21.1,18.69-25.94,24.02-14.92,16.45-28.02,25.7-44.91,39.06-4.79,3.79-10.9,4.56-9.08,12.87,24.71,9.79,92.04-64.9,79.94-75.95ZM5802.44,3832.02l37.64,48.3c9.95,7.82,21.56,61.94,32.26,59.65,18.04-3.85-11.21-55.75-16.26-63.65-6.15-9.62-41.06-54.91-53.64-44.3Z"/>
  <path class="cls-3" d="M0,3144c16.91-4.37,21.15-29.64,30.32-43.67,26.21-40.08,65.11-77.66,106.97-101,12.56-7.01,39.73-14.01,46.84-21.15,12.33-12.38,25.44-55.29,35.07-72.92,76.81-140.49,239.29-240.83,400.61-185.28-3.06-13.42,9.12-38.83,7.05-49.54-.54-2.77-29.18-32.73-35.69-43.77-38.67-65.52-52.98-232.95,37.34-259.99,8.19-2.45,26.36-1.7,27.33-2.68,1.89-1.91,3.12-45.42,4.47-53.53,6.68-40.06,29.92-76.51,35.32-104.64,6.47-33.73-6.76-90.81,1.37-138.67,38.76-228.26,229.19-341.36,452.14-302.63,20.44,3.55,42.31,4.81,46.29,29.67l-15.19,231.11c69.13,42.13,126.67,108.71,139.48,190.6,27.94.9,50.18-18.93,75.73,2.24,40.59,33.63-1.69,142.62-31.41,176.41,20.66,33.07,25.35,70.13,31.07,107.93l4.28,139.17c17.78,5.64,36.47,8.61,54.37,14.16,16.57,5.15,28.43,19.01,46.83,15.41,9.86-1.92,24.1-13.19,35.06-17.19,38.53-14.08,70.56-20.23,112.14-19.83,7.16-24.54,62.7-201.84,55.59-210.07-97.38-6.31-225.5-89.71-202.89-201.26,5.46-26.95,41.28-48.36,42.23-53.32.8-4.21-3.3-12.86-3.31-19.4-.09-99.51,53.14-169.86,158.06-162.12,147.38,10.87,272.74,84.31,304.03,235.89,8.35,40.46,1.39,72.76,6.3,109.7,4.44,33.43,23.46,79.33,30.39,117.6,41.73,230.44,23.5,460.48-154.64,626.8-65.22,60.89-164.7,112.4-254.05,121.88-11.25,1.19-42.94-3.57-48.11,3.88-2.96,17.42-7.85,34.38-12.67,51.32-19.87,69.8-22.64,144.88-43.14,216.85-19.12,67.13-45.81,101.06-70.22,157.76-17.6,40.88-20.98,102.86-42.78,145.21l-4.96,181.04h-31.99l7.98-163.99c-36.94,5.31-73.36,14.78-110.46,19.48-136.11,17.25-327.46,16.26-462.19-8.66-16.91-3.13-103.02-28.01-108.54-27.14-1.56.25-9.39,14.25-14.37,18.55-26.6,22.94-26.71,28.61-46.55,57.42-5.13,7.46-16.25,13.99-19.45,20.55-9.1,18.64-8.69,62.28-10.21,83.79h-27.99c1.1-16.61,6.48-33.14,3.99-50.1-.72-4.93,2.07-7.44-6.04-5.96-13.47,2.45-49.33,51.21-69.93,56.07h-131.96c-49.53-23.24-92.99-69.91-121.63-116.34-26-42.15-38.04-90.24-36.12-139.66-91.81-69.99-163.95-163.35-212.09-268.27-2.68-5.85.86-14.17-10.06-11.73v-276ZM1163.25,1804.42c-68.55-13.06-139.44-11.73-207.43,3.66,9.14,56.07,21.21,112.02,34.64,167.19,7.73,31.77,17.92,90.65,30.3,117.69,9.77,21.35,53.61,8.32,72.99,7.08,16.56-1.06,33.42.65,49.97-.02l19.54-295.6ZM1003.69,2088l-60.76-265.18c-5.6-13.89-31.84,3.43-41.85,8.51-119.45,60.56-190.67,209.38-173.24,340.67,9.17-11.35,65.68-72.01,67.42-78.84,2.49-9.77-12.58-25.85-11.46-37.13,17.71-7.13,17.76,24.24,22.05,24.05,21.96-11.31,39.03-31.67,65.92-32.11l-27.98-83.94c10.67-2.03,6.95,2.3,9.76,8.01,10.8,21.94,17.13,48.7,26.76,71.42,48.17-4.49,88.48,12.56,123.38,44.54ZM1587.58,3167.97c127.76,2.17,235.71-68.3,317.95-159.92,143.81-160.21,134.58-403.31,91.19-603.32-4.93-22.73-18.27-50.99-20.92-71.07-4.38-33.15,1.23-61.21-6.3-97.7-26.29-127.4-115.41-185.67-237.89-206.04-66.51-11.06-118.62-20.36-148.75,51.38-6.43,15.3-20.3,76.3-7.56,84.98,6.68,4.55,52.01,2.72,64.22,9.72-6.8-24.8-.95-56.85,9.98-80.03,4.32-9.17,26.43-41.93,38.02-31.93,3.21,2.77-18.38,26.68-21.51,32.45-8.72,16.1-24.37,74.11-10.53,85.6,9.39,7.79,45.58,11.04,56.01,29.93-1.04-40.29,11.13-104.34,56.01-115.98-5.21,15.36-18.85,24.4-25.96,39.99-16.65,36.52-31.14,115.84,25.06,123.22,40.35,5.3,25.88-14.32,29.4-40.75,3.21-24.03,15.04-71.58,43.48-74.47,3.09,2.89-15.28,29.49-17.94,36.01-9.25,22.63-21.98,90.15,8.79,99.14,20.83,6.09,61.26,1.26,52.48-28.33-2.16-7.29-13.12-9.54-11.3-18.82,13.75-2.49,24.15,5.39,27.13,18.85,9.94,44.91-44.2,66.24-78.83,46.83-5.6-3.14-9.38-11.58-15.17-13.15-7.14-1.94-25.28,4.24-38.64,3.06-12.49-1.1-41.61-15.56-43.9-15.17-3.84.66-16.41,17-26.5,21.61-26.93,12.29-75.16,11.51-101.09-2.98-6-3.36-12.21-6.96-10.91-15.05,4.74-4.05,100.26,30.41,117.88-8.08,25.12-54.88-113.91-85.99-151.29-63.34-38.27,23.18-11.79,85.93,9.49,113.31,40.58,52.19,111.16,76.33,175.84,74.12-4.16,33.72-6.73,67.24-13.24,100.72-9.82,50.48-30.53,98.12-39.02,148.9,41.55,13.49,96.7,41.35,108.24,86.34l-77.87-48.06c-65.77-26.61-125.98-17.75-190.04,8.12-10.95,12.65,53.66,47.36,42.01,67.94-46.02-43.83-104.88-77.97-169.98-80,.39,145.79-90.62,234.61-233.76,244.18-173.16,11.58-444.86-18.99-438.08-248.16-10.53,15.15-64.88,10.08-67.56,12.39-1.91,1.65-12.34,46.77-11.75,49.23,1.81,7.6,41.15,21.6,39.33,38.36-90.71-37.33-185.06-50.81-277.98-12.06-73.19,30.52-119.79,91.03-158.56,157.4-9.58,16.39-50.43,104.98-55.2,108.79-9.21,7.37-7.65-4.24-8.91-5.03-9.2-5.75-64.41,28.1-75.22,36.88-165.12,134.22-98.81,364.77,17.98,506.12,23.96,29,103.47,100.75,115.75,124.22,8.98,17.16,10.58,51.16,17.07,70.92,20.37,61.99,89.95,108.31,140.84,143.12,18.3,12.52,41.67,38.79,62.13,37.78,27.88-1.38,57.19-16.19,76.19-36.07,4.97-5.2,13.6-22.41,14.86-23.14,4.19-2.42,14.16-.57,22.01-3.99,37.65-16.38,51.22-58.63,73.09-86.9,15.5-20.04,36.33-20.65,39.72-52.45,3.96-37.24-30.31-68.81-55.67-91.62-8.03-7.22-50.26-36.37-51.88-40.1-.91-2.08-1.61-9.48,1.87-9.88,19.86-2.29,31.76,17.29,49.93,20.02-4.86-36.32-41.54-61.66-73.9-72.04-20.59-6.6-60.91-8.65-74.96-16-1.29-.67-17.34-19.41-19.08-21.94-61.17-89.21-56.3-206.73-150.06-285.88-15.3-12.92-67.47-40.38-73.92-50.07-3.51-5.27-3.72-9.13,2.16-10.07,3.14-.5,51.47,22.32,58.07,25.85,27.63,14.77,55.5,36.34,75.68,60.3,8.41,9.99,32.55,53.66,41.99,53.8,6.35.09,47.97-22.56,56.21-27.81,38.56-24.59,70.91-57.77,97.12-94.85,7.03-9.95,30.38-55.08,33.15-56.86,13.85-8.95,14.93,19.37,18.53,30.66,28.81,90.28,69.9,162.89,157.49,206.46,103.8,51.63,219.77,47.89,327.41,10.5,10.02,8.8-41.03,27.86-44.84,29.11-74.9,24.64-176.34,21.93-250.9-3.29-102.53-34.69-180.51-117.11-208.15-221.83-39.86,52.89-81.64,108.66-143.87,136.16,12.22,39.08,18.71,79.75,30.88,118.9,4.73,15.2,20.55,64.25,28.79,74.21,2.44,2.94,57.23,16.47,72.32,24.66,26.32,14.28,56.75,44.96,65.98,74.01,3.9,12.28,1.89,27.71,8.24,39.75,11.29,21.4,38.96,32.04,44.73,67.26,1.96,11.95-2.36,37.06,4.89,43.11,9.16,7.65,107.92,26.29,126.69,29.27,144.43,22.92,321.01,23.31,465.31-1.24,27.97-4.76,55.6-11.96,83.02-18.96l37.88-144.1c59.9-77.38,74.72-184.61,90.9-279.03-64.44,68.06-157.55,85.22-247.26,65.37-5.36-1.19-82.8-24.85-68.59-37.35,142.34,50.3,269.64,44.29,332.62-109.29,38.08-92.86,39.97-194.4,13.25-290.71-7.2-25.96-20.27-49.7-25.95-76,8.75-9.49,34.53,48.01,36.69,53.26,28.24,68.59,37.7,153.76,27.29,226.69ZM1279.7,2235.99c3.78,2.97,11.07-2.32,11.23-9.12.56-24.5-42.28-92.77-59.38-112.75-5.16-6.04-52.88-54.23-59.84-46.1-10.54,12.32,19.19,25.91,25.85,32.11,31.36,29.2,48.52,54.53,66.8,93.18,3.64,7.68,13.57,41.28,15.35,42.68ZM1163.66,2164.02c-14.51-3.84-22.93,8.75-33.8,12.15-35.91,11.24-71.47,11.2-107.26-1.06-10.22-3.5-63.07-34.63-66.85-31.09-8.66,8.11,36.07,31.38,40.46,33.48,39.12,18.72,86.35,26.08,128.35,13.38,4.55-1.38,47.54-19.62,39.09-26.86ZM1191.66,2212.02c-2.91-2.99-64.63,24.98-78.99,26.94-91.69,12.54-105.25-36.88-171.9-50.14-8.14-1.62-15.37-2.62-20.97,5.23-3.61,7.46,7.76,6.74,12,7.82,70.58,18.01,93.48,58.56,177.87,50.08,18.95-1.9,60.91-16.66,76.99-26.9,5.75-3.66,8.32-9.64,5.01-13.04ZM723.8,2460c48.77,126.46-24.26,276.41,98.07,371.9,111.02,86.67,450.55,108.97,525.04-38.63,36.13-71.59,24.3-226.74,12.25-306.81-3.58-23.8-9.94-46.93-23.57-66.44l3.63,41.52c-2.87,10.22-8.23,42.24-17.63,46.42-7.25,3.22-6.81-8.15-11.66-12.13-21.9-17.98-77.77.33-82.24-3.86,2.21-6.54,6.64-42.16,8.27-43.68.96-.89,18.29-1.11,25.93-4.09,51.73-20.13,93.4-80.9,106.79-133.16,3.53-13.77,17.44-65.66-3.01-67.16-4.92-.36-62.52,14.85-65.08,17.04-10.03,15.93-58.88,147.13-66.96,147.12-8.93,0-12.46-12.77-20.77-15.22-6.37-1.88-29.29,1.08-29.24-2.88l48.03-109.92c-45.39,2.13-97.01,25.25-141.97,24.25-40.74-.9-94.14-21.1-136.41-27.79-53.68-8.5-129.86-18.17-183.51-20.45-65.93-2.8-23.91,43.26-26.58,57.39-1.45,7.65-56.9,53.7-55.09,64.05.4,2.29,7.96,9.84,10.27,10.25,11.7,2.08,50.69-57.83,59.31-55.72,2.48.61,26.55,31.29,34.07,38.05,50.94,45.78,153.3,120.2,223.98,95.93,52.25-17.95,57.69-67.03,87.73-92.23,24.11-20.24,32.89,32.44,48.27,40.56,6.53,3.45,50.25-22.18,65.65,6.01,20.79,38.06-13.19,96.45-58.61,90.94-13.1-1.59-22.66-15.36-28.97-15.34-12.34.02-51.91,43.78-64.26,4.27-4.75-15.19,8.59-34.32-5.77-32.16l3.96,51.96c-85.44-1.72-201.84-95.55-265.91-4.06-8.88-15.91-10.57-31.04-20.33-47.59-5.23-8.88-53.89-64.36-61.63-56.31-.59,10.47,9.64,17.65,11.41,27.18,1.71,9.21-3.18,10.96-3.44,12.8-21-9.06-27.5-40.17-49-48.97-19.26-7.88-43.06-2.24-57.17,12.77-48.02,51.08-26.1,237.66,60.32,240.38,61.53,1.94,56.89-79.61,54.01-122.35-1.74-25.86-10.78-48.68-8.16-73.84ZM455.78,3316.06l-31.91,7.98c5.11,21.75,51.81,167.78,62.48,171.47,4.1,1.42,9.17.22,13.49.49l-44.07-179.95Z"/>
  <path class="cls-3" d="M5566.49,3956c1.72-29.69,8.85-63.66,17.95-92.04,14.35-44.75,22.22-39.23,21.86-89.8-.8-111.23.34-211.35,51.45-312.88,5.86-11.65,35.9-53.9,36.79-59.51,2.13-13.28-7.09-40.5-8.03-55.83-11.53-187.96,117.12-333.42,298.26-365.78-8.31-78.15,4.06-156.07,5.64-234.2-1.42-7.45-26.15-24.29-34.07-33.92-38.09-46.31-31.68-106.87,37.84-104.26,4.88-42.84,18.78-83.59,42.55-119.42,4.72-7.12,28.38-32.54,28.84-34.9,1.28-6.58-35.15-105.32-38.16-128.48-4.86-37.4,1.59-43.33,26.9-67.04,128.94-120.8,400.54-124,521.97,10,68.28,75.35,77.98,144.02,78.11,242.22.05,36.92,4.56,32.42,13.79,65.86,6.06,21.95,12.95,45.1,14.03,67.97,114.21-8.71,130.76,152.73,107.72,233.78-4.27,15.01-14.01,27.03-15.77,42.19,76.39,6.24,135.64,36.31,199.6,74.39,40.87,24.33,39.84,19.2,84.3,31.68,122.74,34.46,213.77,132.15,227.45,260.49,1.64,15.34-2.72,43.51,1.17,54.83,1.66,4.86,53.64,46.93,54.61,65.37l20.72,61.28v488h-12c-1.47-85.94,1.89-172.19.19-258.15-.15-7.36-3.51-14.02-3.66-20.36-2.42-102.19,17.42-231.86-68.47-305.48,1.15,8.16-11.9,52.16-24.02,39.98-4.26-4.28,3.83-40.69,4.14-49.82,5.77-169.25-69.74-269.77-231.89-312.38-45.84-12.05-35.52-13.45-72.54-35.44-47.45-28.19-142.89-62.89-197.63-62.69-19.29.07-33.32,17.22-52.21,20.08-21.3,3.23-44.61-1.43-65.7-3.75,1.97,112.99,6.68,248.8-94.68,323.32-84.81,62.35-367.33,86.08-451.09,20.59-74.73-58.43-94.64-207.18-102.09-295.91-155.3,15.42-271.56,146.62-276.06,301.82-.8,27.72,11.27,75.28,8.14,95.86-1.27,8.38-29.92,49.48-36.68,63.63-30.86,64.66-48.21,153.2-51.25,224.74-1.45,33.97,8.29,83.41,3.71,111.73-2.64,16.37-20,49.84-25.74,70.24-6.62,23.55-11.77,47.58-14,71.99h-31.99ZM6338.3,2203.98c-62.62-1.56-128.07,5.18-184.18,34.72l60.2,277.32c54.93-4.07,76.9-66.43,115.14-98.84-.75-71.43,3.56-142.13,8.84-213.2ZM6618.16,2512c27.55-165.9-104.4-304.63-267.88-308.01l-7.98,207.99c46.75-23.59,92.93-32.73,143.87-16.01,2.05-13.07,7.79-28.62,14.03-40.17,1.31-2.43,4.16-15.2,10.01-7.78,5.08,6.44-18.48,45.52-14.3,52.05,3.57,5.58,36.28,17.25,44.23,23.96l22.04-40.03c5.94,14.39-13.95,39.34-11.44,49.16,1.95,7.62,60.22,64.04,67.42,78.84ZM6146.31,2244.02c-4.8-5.29-79.26,49.2-84.28,57.86-2.14,3.68-4.64,6.13-2.99,10.99l60.19,198.24c28.38,7.25,57.78,10.16,87.06,8.87l-59.99-275.96ZM6078.33,2492.02c-7.49-8.71-30.85,41.21-32.66,45.29-5.07,11.41-28.4,76.69-23.28,82.68,10.1,11.8,22.45-46.48,23.83-50.12,4.49-11.85,35.73-73.63,32.11-77.84ZM6106.45,2571.83c2.16,2.48,56,18.19,62.91,19.14,58.99,8.07,119.26-22.71,172.1-45.79,19.17-8.37,16.42-18.72-2.26-14.33-45.93,10.79-85.83,44.74-139.4,48.71-36.98,2.74-58.03-15.7-87.58-19.49-9.1-1.17-7.3,9.99-5.76,11.76ZM6658.19,2660.04l-286.43-43.52c-82.58-23.56-55.79,89.43-127.46,87.81-11.33-.26-74.47-21.32-84.88-27.1-7.77-4.31-10.38-15.45-19.07-21.27-16.19-10.83-128.78-18.32-150.9-14.87-20.88,3.26-26.48,5.48-22.87,28.65,5.26,33.77,70.1,53.04,71.73,60.51-29.35,37.94-31.74,88.37-22.17,133.97,15.23,72.6,62.86,97.51,134.17,95.8,1.05,6.95.27,8.83-4.11,13.85-6.91,7.93-28.15,19.27-39.95,32.04-17.81,19.27-15.47,43.17-41.62,9.81-17.94-22.89-35.21-68.24-43.47-96.52-3.21-10.98-.74-29.74-10.75-35.18,9.26,109.6,6.32,260.99,58.01,359.92,56.43,108.02,228.07,88.92,330.68,70.89,283.64-49.83,202.45-285.23,210.95-497,.6-14.86,7.11-29.98,4.12-45.83-36.65,27.18-90.82,247.69-111.91,258.04-19.8,9.71-55.07-30.07-74.79-41.25-32.71-18.57-71.45-30.01-109.2-28.81-6.22-25.53,18.03-14.07,37.96-16.03,61.33-6.05,89.07-27.55,121.23-78.73,18.47-29.4,55.09-131.2,77.05-142.92,33.38-17.81,84.91-15.27,103.68-62.25ZM6677.01,2680.86c-10.16,2.34-20.38,13.38-26.14,21.82-29,42.43-25.67,140.65-20.63,191.28,4.64,46.61,20.39,51.68,66.05,46.14,33.05-4.01,57.76-45.59,64.11-75.87,7.74-36.94,4.48-121.14-14.81-153.65-13.65-23.02-42.01-35.85-68.58-29.72ZM6616.2,2764v4c2.6-1.33,2.6-2.67,0-4Z"/>
  <path class="cls-1" d="M611.83,3956c1.51-21.51,1.1-65.15,10.21-83.79,3.2-6.56,14.31-13.09,19.45-20.55,19.84-28.82,19.95-34.48,46.55-57.42,4.99-4.3,12.81-18.3,14.37-18.55,5.53-.87,91.64,24.01,108.54,27.14,134.73,24.92,326.09,25.92,462.19,8.66,37.1-4.7,73.52-14.17,110.46-19.48l-7.98,163.99h-763.79Z"/>
  <path class="cls-1" d="M0,3420c10.92-2.43,7.38,5.89,10.06,11.73,48.14,104.92,120.29,198.28,212.09,268.27-1.92,49.42,10.12,97.51,36.12,139.66,28.64,46.43,72.09,93.1,121.63,116.34H0v-536Z"/>
  <path class="cls-3" d="M6958.11,3956c-3.78-31.48,48.82-84.7,43.39-113.03-1.59-8.33-31.7-41.08-39.51-52.85-36.72-55.38-56.35-121.1-67.91-186.11-14.74,18.65-21.85,43.14-34.27,63.68-70.14,116.07-223.24,175.15-355.07,159.8-10.42-1.21-83.62-16.19-86.46-19.59-.39-.47-1.68-11.78,2.02-11.95,151.95,42.48,342.46-4.19,425.05-146.72,8.14-14.04,45.95-96.49,43.98-106.68-.64-3.32-22.89-25-27.95-35.79-2.4-5.13-12.72-29.04-1.21-26.81,8.49,1.64,43.45,45.39,56.06,55.95,9.01,7.54,43.77,26.45,45.33,28.64,3.12,4.39,3.06,11.65-5.48,11.63-14.03-.04-25.99-5.88-37.93-12.15,8.15,78.21,30.48,160.84,76.61,225.32,12.87,17.99,85.2,87.26,86.67,93.46,3.22,13.57-18.28,55.34-15.36,73.21h-27.99c-1.23-36.18,31.9-67.78-13.96-88.04-12.13,29.63-33.67,57.43-42.03,88.04h-23.99Z"/>
  <path class="cls-3" d="M5946.38,3956c3.27-25.72-4.53-61.71.09-85.91,2.83-14.85,25.44-20.1,23.33-35.09-.58-4.1-23.79-75.05-25.7-78.72-5.02-9.6-25.64-25.16-34.63-37.36-67.56-91.63-77.73-288.5-32.99-390.85,3.1-7.1,6.48-19.26,15.88-20.11l-21.9,106.09c-5.96,126.48,8.37,273.56,124.26,347.6,91.65,58.56,193.94,54.62,295.55,26.37,8.23,7.36-23.08,18.93-25.9,20.05-88.41,35.23-192.81,21.48-277.98-16.05,11.04,64.39,51.53,118.46,95.95,163.98h-43.99c-24.44-25.28-37.54-59.17-59.94-84l-4.04,84h-27.99Z"/>
  <path class="cls-1" d="M7038.09,3956h-55.98c8.36-30.62,29.9-58.42,42.03-88.04,45.85,20.26,12.73,51.87,13.96,88.04Z"/>
  <path class="cls-1" d="M6038.36,3956h-63.98l4.04-84c22.41,24.83,35.51,58.72,59.94,84Z"/>
  <path class="cls-1" d="M511.86,3956c20.6-4.85,56.47-53.61,69.93-56.07,8.11-1.48,5.31,1.04,6.04,5.96,2.49,16.96-2.89,33.49-3.99,50.1h-71.98Z"/>
  <path class="cls-3" d="M6466.24,3956h-16c-36.08-15.15-82.59-48.17-77.94-92.04l43.86,56.12c11.74,17.02,43.67,17.11,50.07,35.92Z"/>
  <path class="cls-3" d="M1699.52,1532.02c76.54-11.96,72.65,58.87,0,47.96,10.61,76.17-59.26,76.85-47.95,0-16.97-.99-48.85,6.54-55.14-14.82-11.82-40.13,28.49-33.51,55.14-33.14-13.29-87.25,58.3-82.59,47.95,0Z"/>
  <path class="cls-3" d="M242.79,1464.56c18.53-4.72,38.66,35.58,51.13,35.58,14.9,0,41.59-58.18,62.22-26.36,14.55,22.43-32.36,44.52-32.38,60.21-.02,14.47,56.83,41.41,30.52,62.37-24.46,19.49-44.74-32.51-60.36-32.51-14.49,0-41.39,56.83-62.35,30.52-17.48-21.95,25.88-44.32,36.07-60.93,1.61-9.2-36.19-33.79-39.14-44.32-2.64-9.46,5.56-22.34,14.29-24.57Z"/>
  <path class="cls-3" d="M6038.36,1387.94c17.26,6.17,65.65,18.55,54,43.96-13.36,29.15-49.11-10.05-69.94-11.89-7.24,16.53-17.3,61.9-41.15,55.41-36.75-10,9.58-56.03,4.71-72.8-4.09-14.09-58.52-16.19-51.01-43.72,9.06-33.21,51.31,5.41,68.99,8.8,11.34-2.55,16.58-61.41,42.52-54.1,36.8,10.37-13.36,67.19-8.12,74.34Z"/>
  <path class="cls-3" d="M959.65,1059.86c6.18-8.65-41.62-66.31-9.06-75.31,28.07-7.76,30.37,47.21,43.76,51.12,13.17,3.84,59.29-40.14,68.65-8.85,8.26,27.64-36.71,31.43-50.97,47.57,3.35,18.26,42.06,59.05,8.83,68.86-29.33,8.66-27.02-36.72-43.53-50.95-16.5,2.7-54.71,37.26-67.6,15.73-16.24-27.11,30.75-41.64,49.92-48.17Z"/>
  <path class="cls-3" d="M7192.88,1496.55c5.46-1.4,16.47,2.89,19.18,7.41,16.11,26.86-35.85,49.32-33.72,61.49,10.16,14.79,48.82,37.4,33.94,58.79-15.91,22.86-50.31-28.38-60.22-28.39-14.54,0-33.93,49.36-60.36,28.51-26.26-20.72,32.12-50.12,30.08-61.82-10.05-15.8-49.06-35.59-32.07-56.93,20.87-26.2,50.05,32.14,61.8,30.09,11.1-5.82,31.95-36.74,41.37-39.16Z"/>
  <path class="cls-3" d="M2139.41,1640.01c1.52,1.48,34.28-4.61,27.41,21.09-4.31,16.14-25.98,13.96-27.13,15.15-1.54,1.59,3.08,35.13-21.6,27.33-11.73-3.71-8.35-23.31-11.37-26.85-4.02-4.71-30.59.51-22.58-25.91,4.18-13.78,20.26-8.86,22.8-11.3,2.87-2.76-2.26-24.9,14.57-27.67,27.23-4.48,14.83,25.19,17.9,28.17Z"/>
  <path class="cls-3" d="M6566.44,1951.77c1.88,1.8,28.7-4.72,26.85,17.59-1.68,20.25-24.58,12.7-26.84,14.88-1.35,1.3,1.94,20.14-10.98,23.34-18.6,4.61-16.19-22.08-17.48-23.32-2.16-2.07-23,4.06-27.19-11.11-7.05-25.55,25.97-19.73,27.41-21.18,1.71-1.71-4.08-20.2,6.48-23.69,22.67-7.49,20.41,22.19,21.76,23.47Z"/>
  <path class="cls-3" d="M2122.36,2104.68c31.05-6.43,48.16,20.07,25.18,45.44-36.98,40.82-74.66-35.19-25.18-45.44Z"/>
  <ellipse class="cls-3" cx="7055.61" cy="2558.19" rx="26.31" ry="26.32"/>
  <ellipse class="cls-3" cx="2283.37" cy="2977.96" rx="17.49" ry="17.5"/>
  <path class="cls-3" d="M6778.13,3272.01c.41.47,1.68,11.51-2.35,12.34-98.84,33.32-196.34,70.96-289.63,117.56l-107.86,62.07c-5.01-4.99,14.98-20.34,18.66-23.29,67.79-54.32,186.05-101.09,268.24-131.68,12.92-4.81,109.05-41.48,112.94-36.99Z"/>
  <path class="cls-3" d="M6314.26,3463.98c-5.79,5.79-42.43-29.6-50.73-35.22-74.1-50.2-154.65-59.58-233.17-90.96-6.43-2.57-9.77.39-7.98-9.78,29.62,1.51,58.82,10.41,87.02,18.91,48.69,14.69,170.07,61.06,199.05,100.89,2.66,3.65,9.63,12.32,5.8,16.15Z"/>
  <path class="cls-3" d="M6708.84,3669.31c40.93-1.05,19.66,55.76-14.54,64.81-72.54,19.19-45.79-63.26,14.54-64.81Z"/>
  <path class="cls-3" d="M6001.43,3684.73c23.3-2.77,75.11,29.17,57.22,53.54-26.77,36.47-122.82-45.75-57.22-53.54Z"/>
  <path class="cls-3" d="M6342.26,3519.98c-7.68,76.33-5.96,152.62,7.99,228-9.75,1.39-12.29-7.9-15.13-14.82-5.8-14.15-11.77-47.24-12.98-63.02-1.41-18.33.76-143.21,8.17-150.16.84-.79,8.71.5,11.95,0Z"/>
  <path class="cls-3" d="M5802.44,3832.02c12.58-10.6,47.49,34.69,53.64,44.3,5.05,7.9,34.3,59.8,16.26,63.65-10.7,2.29-22.31-51.83-32.26-59.65l-37.64-48.3Z"/>
  <path class="cls-3" d="M7225.99,3707.98c-15.39,10.97-8.64-24.22-8.74-25.99-1.25-22.34-6.17-47.21-15.7-67.5-2.83-6.02-22.4-31.7-19.48-34.47,14.27-13.55,40.48,46.53,42.81,55.14,3.45,12.74,10.28,66.29,1.12,72.82Z"/>
  <path class="cls-3" d="M6886.11,3788.02c12.1,11.05-55.23,85.75-79.94,75.95-1.82-8.31,4.3-9.08,9.08-12.87,16.9-13.36,30-22.61,44.91-39.06,4.84-5.34,16.83-32.35,25.94-24.02Z"/>
  <path class="cls-1" d="M1587.58,3167.97c10.41-72.94.95-158.11-27.29-226.69-2.16-5.25-27.94-62.75-36.69-53.26,5.68,26.3,18.75,50.03,25.95,76,26.73,96.31,24.83,197.86-13.25,290.71-62.99,153.58-190.28,159.59-332.62,109.29-14.21,12.49,63.24,36.16,68.59,37.35,89.71,19.85,182.82,2.69,247.26-65.37-16.18,94.42-31.01,201.65-90.9,279.03l-37.88,144.1c-27.41,7-55.04,14.2-83.02,18.96-144.29,24.55-320.88,24.16-465.31,1.24-18.77-2.98-117.53-21.62-126.69-29.27-7.24-6.05-2.93-31.16-4.89-43.11-5.77-35.22-33.44-45.86-44.73-67.26-6.35-12.04-4.34-27.48-8.24-39.75-9.23-29.05-39.66-59.72-65.98-74.01-15.09-8.19-69.88-21.71-72.32-24.66-8.24-9.96-24.06-59.01-28.79-74.21-12.17-39.15-18.66-79.82-30.88-118.9,62.23-27.5,104.01-83.28,143.87-136.16,27.64,104.72,105.62,187.14,208.15,221.83,74.56,25.23,176,27.94,250.9,3.29,3.81-1.25,54.86-20.31,44.84-29.11-107.63,37.39-223.61,41.13-327.41-10.5-87.59-43.57-128.67-116.18-157.49-206.46-3.6-11.28-4.68-39.6-18.53-30.66-2.76,1.79-26.12,46.91-33.15,56.86-26.21,37.08-58.56,70.26-97.12,94.85-8.24,5.25-49.86,27.91-56.21,27.81-9.44-.14-33.58-43.82-41.99-53.8-20.18-23.96-48.05-45.53-75.68-60.3-6.59-3.52-54.93-26.35-58.07-25.85-5.88.94-5.67,4.8-2.16,10.07,6.45,9.69,58.62,37.16,73.92,50.07,93.77,79.15,88.89,196.67,150.06,285.88,1.74,2.54,17.8,21.27,19.08,21.94,14.05,7.35,54.37,9.4,74.96,16,32.36,10.38,69.04,35.72,73.9,72.04-18.17-2.73-30.08-22.3-49.93-20.02-3.48.4-2.78,7.8-1.87,9.88,1.63,3.73,43.85,32.88,51.88,40.1,25.36,22.81,59.63,54.38,55.67,91.62-3.38,31.8-24.21,32.41-39.72,52.45-21.87,28.27-35.43,70.52-73.09,86.9-7.85,3.41-17.83,1.56-22.01,3.99-1.25.72-9.89,17.94-14.86,23.14-19,19.88-48.31,34.7-76.19,36.07-20.47,1.01-43.83-25.26-62.13-37.78-50.89-34.81-120.47-81.13-140.84-143.12-6.5-19.77-8.09-53.76-17.07-70.92-12.28-23.47-91.79-95.21-115.75-124.22-116.79-141.35-183.1-371.9-17.98-506.12,10.8-8.78,66.02-42.62,75.22-36.88,1.26.79-.29,12.4,8.91,5.03,4.76-3.81,45.62-92.4,55.2-108.79,38.77-66.36,85.37-126.88,158.56-157.4,92.92-38.75,187.27-25.27,277.98,12.06,1.82-16.75-37.52-30.76-39.33-38.36-.59-2.46,9.83-47.57,11.75-49.23,2.68-2.31,57.03,2.76,67.56-12.39-6.77,229.17,264.92,259.75,438.08,248.16,143.14-9.58,234.15-98.39,233.76-244.18,65.11,2.03,123.97,36.17,169.98,80,11.64-20.58-52.97-55.29-42.01-67.94,64.06-25.88,124.27-34.73,190.04-8.12l77.87,48.06c-11.53-44.99-66.69-72.86-108.24-86.34,8.48-50.78,29.2-98.41,39.02-148.9,6.51-33.48,9.08-67,13.24-100.72-64.68,2.22-135.26-21.93-175.84-74.12-21.29-27.38-47.76-90.13-9.49-113.31,37.39-22.64,176.42,8.46,151.29,63.34-17.62,38.5-113.14,4.03-117.88,8.08-1.3,8.09,4.91,11.69,10.91,15.05,25.93,14.5,74.17,15.27,101.09,2.98,10.09-4.6,22.66-20.95,26.5-21.61,2.29-.39,31.4,14.06,43.9,15.17,13.36,1.18,31.51-5,38.64-3.06,5.79,1.58,9.58,10.02,15.17,13.15,34.64,19.41,88.77-1.92,78.83-46.83-2.98-13.46-13.37-21.34-27.13-18.85-1.82,9.29,9.14,11.53,11.3,18.82,8.78,29.58-31.65,34.41-52.48,28.33-30.77-8.99-18.04-76.51-8.79-99.14,2.66-6.52,21.03-33.12,17.94-36.01-28.43,2.89-40.27,50.43-43.48,74.47-3.53,26.43,10.95,46.05-29.4,40.75-56.2-7.38-41.71-86.7-25.06-123.22,7.11-15.6,20.75-24.63,25.96-39.99-44.88,11.64-57.05,75.69-56.01,115.98-10.44-18.89-46.62-22.14-56.01-29.93-13.84-11.49,1.81-69.5,10.53-85.6,3.13-5.77,24.72-29.67,21.51-32.45-11.58-10-33.7,22.77-38.02,31.93-10.93,23.18-16.77,55.23-9.98,80.03-12.21-6.99-57.55-5.17-64.22-9.72-12.74-8.68,1.13-69.68,7.56-84.98,30.13-71.74,82.24-62.44,148.75-51.38,122.49,20.37,211.61,78.64,237.89,206.04,7.53,36.49,1.91,64.55,6.3,97.7,2.65,20.09,15.99,48.34,20.92,71.07,43.38,200.01,52.61,443.1-91.19,603.32-82.24,91.62-190.19,162.09-317.95,159.92ZM1775.5,2316.02c-27.04,9.21-15.59,54.51-3.32,73.33,6.57,10.08,28.75,29.27,41.26,26.66,17.49-3.65-14.06-18.33-18.05-21.88-24.11-21.5-20.14-48.68-19.89-78.11ZM1103.68,3023.98c1.67-7.45-4.11-9.48-7.96-14-41-48.11-207.96-91.76-271.8-104.13-38.18-7.4-77.12-15.05-116.09-13.83-1.89,11.39,2.37,6.67,9.23,8.54,116.47,31.76,227.69,38.89,339.5,96.6,6.58,3.4,44.91,29.04,47.12,26.82ZM1819.49,2892.02l-61.06,44.88c-27.06,16.78-55.87,31.4-86.01,41.96-14.64,5.13-46.08,3.98-48.83,21.11,57.65.27,121.15-27.67,163.98-65.93,5.22-4.66,37.11-36.63,31.92-42.03ZM1379.6,2896.02c-47.13,2-102.16,23.69-144.02,45.9-10.98,5.82-96.95,59.96-83.88,74.06l58.73-43.22c49.64-35,103.58-49.32,159.8-68.35,6.18-2.09,11.45,3.55,9.37-8.4ZM1139.71,3060.02c-3.12,3.51,20.62,75.95,22.88,91.07,8.32,55.63.39,95.53-4.24,149.65-.29,3.35-4.53,15.49,3.33,15.18,9.4-.37,15.38-38.75,16.83-47.08,9.1-52.22,5.27-112.25-10.77-162.9-1.22-3.86-18.97-56.09-28.03-45.92ZM339.15,3064.88c-24.12-15.66,3.91,29.79,7.07,34.81,20.98,33.29,52.63,80.89,76.78,111.19,14.06,17.65,17.07,7.94,8.21-8.21l-92.07-137.79ZM1450.52,3264.92c-34.4,7.17-60.21,62.74-16.98,63.45,50.55.83,75.54-75.66,16.98-63.45ZM802.66,3268.91c-46.27,10.23,12.65,80.24,54.56,58.55,39.88-20.64-10.86-68.21-54.56-58.55ZM687.79,3475.98c1.81-8.31-4.29-9.09-9.08-12.87-14.83-11.72-31.58-21.4-45.01-34.97-4.78-4.83-36.19-50.37-41.84-44.11-5.84,24.47,83.13,103.33,95.93,91.96ZM1339.61,3615.98c-.25-48.21-60.48-129.94-106.89-139.04-14.8-2.9-32.72,3.07-18.36,11.12,6.44,3.61,21.58,5.3,32.11,11.12,44.75,24.72,58.01,66.37,80.99,106.99,3.09,5.46,3.33,11.62,12.14,9.82ZM1083.69,3480.02c-72.36,4-109.83,88.22-173.17,116.74-14.99,6.75-31.06,8.95-45.98,14.2-6.45,2.27-10.68-2.07-8.75,9.01,77.58,5.01,118.67-58.08,170.05-99.86,17.23-14.01,31.95-19.55,49.97-30.17,5.16-3.04,10.08.72,7.88-9.93ZM1163.68,3484v70c0,12.6-18.19,35.45-20.05,47.98-.91,6.15-.13,6.95,6,5.98,27.3-26.91,37.96-83.75,23.05-118.96-2.44-5.76-.85-6.04-9-5ZM1099.68,3636.02c-26.34,7.51-50.3,9.89-77.92,7.94-10.52-.74-19.73-5.95-28.91-7.13-6.01-.77-10.6-3.81-9.09,5.11,25.9,20.09,79.22,24.28,106.76,6.88,5.37-3.39,10.76-4.85,9.16-12.8ZM1291.63,3636.02c-33.89,12.27-60.63,6.01-94,3.95-6.76-.42-9.75,3.98-5.94,7.97,1.14,1.19,27.1,10.44,30.91,11.1,20.74,3.61,61.17.56,69.02-23.02ZM1147.69,3660v58c0,9.75-14.71,35.9-16.05,47.95,4.58,6.61,11.13-2.62,13.81-6.19,16.56-22.15,18.48-65.42,11.38-91.1-1.97-7.12,1.28-10.33-9.14-8.66ZM927.73,3664.03c-23.34,6.12-21.77,54.53-20,74.02,1.01,11.05,9.67,30.43,12.02,12.03,3.46-27.09-2.83-58.23,7.98-86.04ZM1331.58,3668.01c-5.73-5.52-7.29.26-7.95,5.91-3.53,30.12-3.37,57.08-15.97,86.05,28.15-1.24,34.47-81.8,23.91-91.96Z"/>
  <path class="cls-1" d="M723.8,2452c.26-1.84,5.15-3.59,3.44-12.8-1.77-9.53-12-16.71-11.41-27.18,7.74-8.05,56.4,47.43,61.63,56.31,9.76,16.55,11.44,31.68,20.33,47.59,64.07-91.5,180.47,2.34,265.91,4.06l-3.96-51.96c14.36-2.16,1.02,16.98,5.77,32.16,12.35,39.51,51.92-4.24,64.26-4.27,6.32-.01,15.87,13.75,28.97,15.34,45.42,5.52,79.39-52.87,58.61-90.94-15.4-28.19-59.11-2.56-65.65-6.01-15.38-8.12-24.16-60.8-48.27-40.56-30.04,25.21-35.47,74.29-87.73,92.23-70.68,24.28-173.04-50.14-223.98-95.93-7.52-6.76-31.59-37.45-34.07-38.05-8.63-2.11-47.61,57.8-59.31,55.72-2.31-.41-9.87-7.96-10.27-10.25-1.81-10.35,53.64-56.4,55.09-64.05,2.67-14.13-39.35-60.19,26.58-57.39,53.66,2.28,129.83,11.94,183.51,20.45,42.27,6.7,95.67,26.89,136.41,27.79,44.96.99,96.58-22.13,141.97-24.25l-48.03,109.92c-.05,3.96,22.87,1,29.24,2.88,8.31,2.45,11.84,15.22,20.77,15.22,8.08,0,56.93-131.19,66.96-147.12,2.55-2.19,60.15-17.4,65.08-17.04,20.46,1.5,6.54,53.39,3.01,67.16-13.39,52.27-55.06,113.03-106.79,133.16-7.64,2.97-24.97,3.19-25.93,4.09-1.63,1.52-6.06,37.14-8.27,43.68,4.47,4.19,60.34-14.12,82.24,3.86,4.85,3.98,4.42,15.35,11.66,12.13,9.4-4.18,14.76-36.19,17.63-46.42l-3.63-41.52c13.64,19.5,19.99,42.64,23.57,66.44,12.06,80.07,23.88,235.22-12.25,306.81-74.49,147.59-414.02,125.29-525.04,38.63-122.33-95.49-49.3-245.44-98.07-371.9.27-2.6-.36-5.44,0-8ZM1011.65,2300.12c-15.99-1.63-49.05-18.97-62.29-8.49-6.5,16.26-63.84,126.32-59.92,132.44,3.27,5.12,51.14,27.66,57.81,23.43l64.4-147.39ZM927.7,2604c2.09-1.48,7.82-44.79,7.87-50.59.18-19.7-49.12-43.27-66.21-29.78-27.79,21.93,34.95,77.49,58.33,80.37ZM1023.33,2572.38l-79.2-20.04c-2.2,1.52-9.08,49.49-8,52.95,3.08,9.87,77.47,34.29,83.21,30.35,7.51-20.06,3.92-42.26,3.99-63.27ZM1247.65,2552.03l-96.21,21.72c-4.74,3.29-10.42,67.66-7.76,70.27,69.35.73,97.2-22.73,103.98-91.99ZM851.81,2556c-5.13,59,64.35,118.39,113.19,140.74,72.48,33.16,237.08,44.34,288.41-28.99,19.77-28.24,28.29-86.8,8.2-115.71l-15.89,60.02c-15.71,34.63-73.84,41.87-107.86,44.11-98.25,6.48-222.12-19.79-286.05-100.16ZM1139.69,2576h-107.97l-3.9,63.82c5.04,7.17,89.51,4.48,104.13,2.44,6.88-4.81,2.44-53.28,7.74-66.25Z"/>
  <path class="cls-1" d="M1163.25,1804.42l-19.54,295.6c-16.54.67-33.41-1.04-49.97.02-19.38,1.25-63.21,14.28-72.99-7.08-12.38-27.04-22.57-85.92-30.3-117.69-13.43-55.17-25.5-111.13-34.64-167.19,67.99-15.38,138.88-16.72,207.43-3.66Z"/>
  <path class="cls-1" d="M1003.69,2088c-34.9-31.98-75.21-49.03-123.38-44.54-9.63-22.73-15.95-49.48-26.76-71.42-2.81-5.71.91-10.05-9.76-8.01l27.98,83.94c-26.88.44-43.95,20.8-65.92,32.11-4.29.19-4.34-31.18-22.05-24.05-1.12,11.28,13.95,27.36,11.46,37.13-1.74,6.83-58.25,67.49-67.42,78.84-17.43-131.29,53.79-280.11,173.24-340.67,10.01-5.07,36.25-22.39,41.85-8.51l60.76,265.18Z"/>
  <path class="cls-2" d="M723.8,2452c-.36,2.56.27,5.4,0,8-2.62,25.15,6.42,47.98,8.16,73.84,2.88,42.74,7.51,124.29-54.01,122.35-86.42-2.72-108.34-189.31-60.32-240.38,14.11-15.01,37.91-20.65,57.17-12.77,21.5,8.8,28,39.9,49,48.97ZM699.79,2531.98c-5.74-32.43-25.83-93.15-67.94-79.94l34.02,27.91c24.34,30.2.89,20.37-10.2,33.93-14.01,17.13-10.54,62.91,4.11,80.17,13.58,16,40.2,22.49,22.21-2.22-13.86-19.04-33.55-33.02-17.67-61.32,14.59-26.02,29.64,7.35,35.47,1.48Z"/>
  <path class="cls-1" d="M455.78,3316.06l44.07,179.95c-4.32-.27-9.39.93-13.49-.49-10.67-3.69-57.37-149.72-62.48-171.47l31.91-7.98Z"/>
  <path class="cls-2" d="M1191.66,2212.02c3.31,3.4.75,9.38-5.01,13.04-16.08,10.24-58.04,25-76.99,26.9-84.4,8.48-107.3-32.07-177.87-50.08-4.24-1.08-15.6-.36-12-7.82,5.6-7.85,12.83-6.85,20.97-5.23,66.65,13.25,80.21,62.68,171.9,50.14,14.36-1.96,76.08-29.94,78.99-26.94Z"/>
  <path class="cls-2" d="M1279.7,2235.99c-1.78-1.4-11.71-35-15.35-42.68-18.28-38.64-35.44-63.98-66.8-93.18-6.66-6.2-36.39-19.79-25.85-32.11,6.96-8.13,54.68,40.06,59.84,46.1,17.1,19.98,59.94,88.25,59.38,112.75-.16,6.8-7.45,12.09-11.23,9.12Z"/>
  <path class="cls-2" d="M1163.66,2164.02c8.45,7.24-34.53,25.49-39.09,26.86-42.01,12.7-89.24,5.34-128.35-13.38-4.4-2.1-49.12-25.38-40.46-33.48,3.78-3.54,56.63,27.59,66.85,31.09,35.78,12.26,71.35,12.3,107.26,1.06,10.87-3.4,19.29-15.99,33.8-12.15Z"/>
  <path class="cls-1" d="M6658.19,2660.04c-18.77,46.98-70.3,44.44-103.68,62.25-21.97,11.72-58.58,113.52-77.05,142.92-32.16,51.18-59.9,72.69-121.23,78.73-19.93,1.96-44.18-9.5-37.96,16.03,37.76-1.2,76.49,10.24,109.2,28.81,19.71,11.19,54.98,50.97,74.79,41.25,21.09-10.35,75.26-230.86,111.91-258.04,2.98,15.85-3.53,30.98-4.12,45.83-8.5,211.77,72.7,447.16-210.95,497-102.62,18.03-274.25,37.12-330.68-70.89-51.68-98.93-48.75-250.32-58.01-359.92,10.02,5.44,7.55,24.2,10.75,35.18,8.26,28.28,25.53,73.63,43.47,96.52,26.15,33.36,23.81,9.46,41.62-9.81,11.8-12.76,33.04-24.11,39.95-32.04,4.38-5.03,5.16-6.9,4.11-13.85-71.31,1.72-118.94-23.19-134.17-95.8-9.56-45.59-7.17-96.03,22.17-133.97-1.64-7.47-66.47-26.74-71.73-60.51-3.61-23.17,1.98-25.4,22.87-28.65,22.11-3.45,134.71,4.05,150.9,14.87,8.69,5.81,11.3,16.95,19.07,21.27,10.41,5.78,73.55,26.84,84.88,27.1,71.67,1.62,44.87-111.37,127.46-87.81l286.43,43.52ZM6282.89,2807.49c2.34,2.56,15.59-1.42,18.77,15.51,3.47,18.47-15.49,20.1-15.5,30.99,0,14.51,22.95,21.37,35.31,19.55,78.92-11.63,40.8-126.09-23.11-99.44-8.8,3.67-22.62,25.6-15.48,33.4ZM6114.34,2848.05c-13.02,14.61,36.87,38.37,62.09,16.06,46.39-41.04-2.58-121.22-50.27-78.28-30.69,27.63,12.13,20.7,8.3,47.93-2.26,16.04-19.02,13.06-20.13,14.3ZM6229.59,2889.07c-29.23,1.89-70.59,18.38-71.45,53.1-.73,29.15,33.82,50.54,61.24,44.92,12.7-2.6,24.87-17.59,29.52-18.48,9.83-1.89,21.6,19.38,45.55-2.45,17.5-15.94,15.39-46.74-2.03-62.29-12.57-11.22-45.95-15.89-62.83-14.8ZM6241.14,3044.85c-18.61,4.24-35.99,31.55-38.48,49.51-3.42,24.74,7.74,94.6,16.85,118.44,19.83,51.88,98.99,49.88,130.74,9.2,52.82-67.67-24.01-196.52-109.12-177.14Z"/>
  <path class="cls-1" d="M6618.16,2512c-7.2-14.8-65.47-71.22-67.42-78.84-2.51-9.82,17.38-34.77,11.44-49.16l-22.04,40.03c-7.94-6.7-40.65-18.38-44.23-23.96-4.18-6.53,19.38-45.61,14.3-52.05-5.85-7.41-8.7,5.35-10.01,7.78-6.24,11.55-11.98,27.09-14.03,40.17-50.94-16.72-97.12-7.58-143.87,16.01l7.98-207.99c163.49,3.39,295.43,142.12,267.88,308.01ZM6512.23,2336v4c2.6-1.33,2.6-2.67,0-4Z"/>
  <path class="cls-1" d="M6338.3,2203.98c-5.27,71.07-9.59,141.77-8.84,213.2-38.23,32.4-60.21,94.77-115.14,98.84l-60.2-277.32c56.11-29.54,121.55-36.28,184.18-34.72Z"/>
  <path class="cls-2" d="M6677.01,2680.86c26.57-6.13,54.92,6.7,68.58,29.72,19.28,32.52,22.55,116.72,14.81,153.65-6.35,30.29-31.06,71.86-64.11,75.87-45.66,5.54-61.41.47-66.05-46.14-5.04-50.64-8.36-148.86,20.63-191.28,5.77-8.44,15.98-19.47,26.14-21.82ZM6730.15,2743.98c-.02-16.61-20.52-19.17-33.22-15.21-18.54,5.78-39.7,71.33-34.72,91.21,3.4,3.89,34.28-30.27,32.34,18.04-1.03,25.67-17.1,25.2-24.34,45.96,38.83,5.4,47.83-71.68,22.92-85.04-4.47-2.4-14.43-2.41-14.95-2.98-2.05-2.25,7.43-31.03,9.96-36,17.72-34.75,37.2-11.53,42-15.98Z"/>
  <path class="cls-1" d="M6146.31,2244.02l59.99,275.96c-29.28,1.29-58.68-1.62-87.06-8.87l-60.19-198.24c-1.65-4.86.85-7.3,2.99-10.99,5.02-8.65,79.48-63.14,84.28-57.86Z"/>
  <path class="cls-2" d="M6106.45,2571.83c-1.55-1.78-3.34-12.93,5.76-11.76,29.55,3.79,50.6,22.23,87.58,19.49,53.57-3.97,93.47-37.92,139.4-48.71,18.69-4.39,21.43,5.96,2.26,14.33-52.84,23.08-113.11,53.86-172.1,45.79-6.91-.95-60.76-16.66-62.91-19.14Z"/>
  <path class="cls-2" d="M6078.33,2492.02c3.62,4.21-27.62,65.99-32.11,77.84-1.38,3.64-13.73,61.92-23.83,50.12-5.13-5.99,18.2-71.27,23.28-82.68,1.81-4.08,25.17-54,32.66-45.29Z"/>
  <path class="cls-1" d="M6616.2,2764c2.6,1.33,2.6,2.67,0,4v-4Z"/>
  <path class="cls-3" d="M1103.68,3023.98c-2.21,2.22-40.54-23.42-47.12-26.82-111.81-57.71-223.04-64.84-339.5-96.6-6.85-1.87-11.12,2.85-9.23-8.54,38.98-1.21,77.92,6.44,116.09,13.83,63.84,12.37,230.79,56.02,271.8,104.13,3.85,4.51,9.63,6.55,7.96,14Z"/>
  <path class="cls-3" d="M802.66,3268.91c43.7-9.66,94.44,37.92,54.56,58.55-41.91,21.69-100.83-48.33-54.56-58.55Z"/>
  <path class="cls-3" d="M1139.71,3060.02c9.06-10.17,26.81,42.06,28.03,45.92,16.04,50.65,19.87,110.67,10.77,162.9-1.45,8.33-7.43,46.71-16.83,47.08-7.86.31-3.62-11.83-3.33-15.18,4.63-54.12,12.56-94.02,4.24-149.65-2.26-15.12-26-87.57-22.88-91.07Z"/>
  <path class="cls-3" d="M1083.69,3480.02c2.2,10.65-2.71,6.88-7.88,9.93-18.02,10.62-32.74,16.16-49.97,30.17-51.38,41.78-92.47,104.87-170.05,99.86-1.93-11.09,2.3-6.74,8.75-9.01,14.92-5.25,30.99-7.45,45.98-14.2,63.34-28.52,100.81-112.75,173.17-116.74Z"/>
  <path class="cls-3" d="M1450.52,3264.92c58.56-12.21,33.57,64.28-16.98,63.45-43.23-.71-17.42-56.28,16.98-63.45Z"/>
  <path class="cls-3" d="M1819.49,2892.02c5.19,5.4-26.7,37.36-31.92,42.03-42.83,38.26-106.34,66.2-163.98,65.93,2.75-17.13,34.19-15.98,48.83-21.11,30.14-10.56,58.95-25.18,86.01-41.96l61.06-44.88Z"/>
  <path class="cls-3" d="M1379.6,2896.02c2.08,11.95-3.19,6.31-9.37,8.4-56.22,19.03-110.16,33.34-159.8,68.35l-58.73,43.22c-13.07-14.1,72.9-68.24,83.88-74.06,41.86-22.21,96.89-43.9,144.02-45.9Z"/>
  <path class="cls-3" d="M1339.61,3615.98c-8.81,1.8-9.05-4.35-12.14-9.82-22.98-40.62-36.24-82.27-80.99-106.99-10.53-5.82-25.67-7.51-32.11-11.12-14.37-8.05,3.55-14.02,18.36-11.12,46.41,9.1,106.63,90.83,106.89,139.04Z"/>
  <path class="cls-3" d="M339.15,3064.88l92.07,137.79c8.86,16.15,5.85,25.86-8.21,8.21-24.15-30.3-55.81-77.9-76.78-111.19-3.16-5.02-31.19-50.47-7.07-34.81Z"/>
  <path class="cls-3" d="M1163.68,3484c8.15-1.03,6.56-.76,9,5,14.91,35.21,4.25,92.06-23.05,118.96-6.13.97-6.92.17-6-5.98,1.86-12.53,20.05-35.38,20.05-47.98v-70Z"/>
  <path class="cls-3" d="M1775.5,2316.02c-.25,29.43-4.22,56.61,19.89,78.11,3.99,3.56,35.53,18.24,18.05,21.88-12.51,2.61-34.68-16.58-41.26-26.66-12.27-18.82-23.72-64.12,3.32-73.33Z"/>
  <path class="cls-3" d="M687.79,3475.98c-12.81,11.38-101.78-67.49-95.93-91.96,5.65-6.26,37.06,39.28,41.84,44.11,13.43,13.57,30.19,23.26,45.01,34.97,4.79,3.79,10.9,4.56,9.08,12.87Z"/>
  <path class="cls-3" d="M1099.68,3636.02c1.6,7.95-3.79,9.41-9.16,12.8-27.54,17.4-80.86,13.22-106.76-6.88-1.51-8.92,3.08-5.88,9.09-5.11,9.17,1.17,18.39,6.38,28.91,7.13,27.62,1.95,51.58-.43,77.92-7.94Z"/>
  <path class="cls-3" d="M1291.63,3636.02c-7.86,23.58-48.28,26.63-69.02,23.02-3.82-.66-29.78-9.92-30.91-11.1-3.82-3.99-.82-8.39,5.94-7.97,33.36,2.06,60.11,8.32,94-3.95Z"/>
  <path class="cls-3" d="M1147.69,3660c10.42-1.67,7.18,1.54,9.14,8.66,7.09,25.68,5.18,68.95-11.38,91.1-2.67,3.57-9.23,12.8-13.81,6.19,1.33-12.05,16.05-38.2,16.05-47.95v-58Z"/>
  <path class="cls-3" d="M1331.58,3668.01c10.56,10.16,4.24,90.72-23.91,91.96,12.6-28.97,12.44-55.93,15.97-86.05.66-5.65,2.21-11.43,7.95-5.91Z"/>
  <path class="cls-3" d="M927.73,3664.03c-10.81,27.82-4.51,58.95-7.98,86.04-2.35,18.41-11.01-.98-12.02-12.03-1.77-19.48-3.34-67.9,20-74.02Z"/>
  <path class="cls-3" d="M851.81,2556c63.92,80.37,187.8,106.64,286.05,100.16,34.02-2.24,92.15-9.48,107.86-44.11l15.89-60.02c20.1,28.91,11.57,87.47-8.2,115.71-51.33,73.34-215.93,62.16-288.41,28.99-48.84-22.35-118.32-81.74-113.19-140.74Z"/>
  <path class="cls-3" d="M1011.65,2300.12l-64.4,147.39c-6.67,4.23-54.54-18.32-57.81-23.43-3.91-6.12,53.42-116.18,59.92-132.44,13.24-10.49,46.3,6.86,62.29,8.49Z"/>
  <path class="cls-3" d="M1139.69,2576c-5.3,12.98-.86,61.44-7.74,66.25-14.62,2.04-99.09,4.74-104.13-2.44l3.9-63.82h107.97Z"/>
  <path class="cls-3" d="M1247.65,2552.03c-6.78,69.27-34.62,92.72-103.98,91.99-2.65-2.61,3.03-66.98,7.76-70.27l96.21-21.72Z"/>
  <path class="cls-3" d="M1023.33,2572.38c-.07,21.01,3.52,43.21-3.99,63.27-5.74,3.94-80.13-20.48-83.21-30.35-1.08-3.47,5.79-51.43,8-52.95l79.2,20.04Z"/>
  <path class="cls-3" d="M927.7,2604c-23.38-2.89-86.12-58.45-58.33-80.37,17.09-13.48,66.39,10.08,66.21,29.78-.05,5.8-5.79,49.11-7.87,50.59Z"/>
  <path class="cls-3" d="M699.79,2531.98c-5.83,5.87-20.88-27.49-35.47-1.48-15.87,28.31,3.81,42.28,17.67,61.32,17.99,24.7-8.63,18.22-22.21,2.22-14.64-17.26-18.11-63.04-4.11-80.17,11.09-13.56,34.54-3.72,10.2-33.93l-34.02-27.91c42.11-13.21,62.21,47.51,67.94,79.94Z"/>
  <path class="cls-3" d="M6241.14,3044.85c85.11-19.38,161.94,109.48,109.12,177.14-31.75,40.68-110.91,42.68-130.74-9.2-9.12-23.84-20.27-93.7-16.85-118.44,2.48-17.96,19.86-45.27,38.48-49.51ZM6273.21,3084.87c-67.45,6.55-35.32,181.82,47.09,127.16,54.37-36.06,15.45-133.23-47.09-127.16Z"/>
  <path class="cls-3" d="M6229.59,2889.07c16.88-1.09,50.26,3.58,62.83,14.8,17.42,15.56,19.53,46.35,2.03,62.29-23.95,21.82-35.72.55-45.55,2.45-4.65.89-16.83,15.88-29.52,18.48-27.42,5.61-61.97-15.77-61.24-44.92.87-34.73,42.22-51.21,71.45-53.1Z"/>
  <path class="cls-3" d="M6282.89,2807.49c-7.14-7.79,6.68-29.73,15.48-33.4,63.91-26.65,102.03,87.81,23.11,99.44-12.37,1.82-35.32-5.04-35.31-19.55,0-10.88,18.97-12.51,15.5-30.99-3.18-16.93-16.43-12.95-18.77-15.51Z"/>
  <path class="cls-3" d="M6114.34,2848.05c1.1-1.24,17.87,1.74,20.13-14.3,3.83-27.22-38.99-20.29-8.3-47.93,47.68-42.94,96.66,37.24,50.27,78.28-25.22,22.31-75.11-1.45-62.09-16.06Z"/>
  <path class="cls-3" d="M6512.23,2336c2.6,1.33,2.6,2.67,0,4v-4Z"/>
  <path class="cls-3" d="M6730.15,2743.98c-4.8,4.46-24.29-18.77-42,15.98-2.53,4.96-12.01,33.75-9.96,36,.51.56,10.48.58,14.95,2.98,24.9,13.36,15.91,90.44-22.92,85.04,7.24-20.76,23.31-20.29,24.34-45.96,1.94-48.32-28.93-14.15-32.34-18.04-4.99-19.88,16.17-85.44,34.72-91.21,12.7-3.96,33.2-1.4,33.22,15.21Z"/>
  <path class="cls-1" d="M6273.21,3084.87c62.54-6.07,101.47,91.09,47.09,127.16-82.41,54.66-114.54-120.61-47.09-127.16Z"/>
</svg>