<svg id="Gruppe_11994" data-name="Gruppe 11994" xmlns="http://www.w3.org/2000/svg" xmlns:xlink="http://www.w3.org/1999/xlink" width="1634.5" height="827" viewBox="0 0 1634.5 827">
  <defs>
    <clipPath id="clip-path">
      <rect id="Rechteck_5332" data-name="Rechteck 5332" width="1634.5" height="827" fill="none"/>
    </clipPath>
  </defs>
  <g id="Gruppe_11993" data-name="Gruppe 11993" clip-path="url(#clip-path)">
    <g id="Gruppe_11992" data-name="Gruppe 11992">
      <g id="Gruppe_11991" data-name="Gruppe 11991" clip-path="url(#clip-path)">
        <g id="Gruppe_11990" data-name="Gruppe 11990">
          <g id="Gruppe_11989" data-name="Gruppe 11989" clip-path="url(#clip-path)">
            <path id="Pfad_27813" data-name="Pfad 27813" d="M404.892,333.4c59.743-.335,120.661-1.952,180.942-2,2.364-3.763-8.921-3.118-8.37-3.132q112.065-.254,224.3-.868c10.981,0,22.007,0,32.989,0q121.134.525,242.27,1.042c1.283.024-24.468-.8-25.676.278a3.879,3.879,0,0,0-.662,2.68c60.281.048,121.2,1.667,180.942,2,70.555,1.167,141.084,2.073,211.689,1.342,6.415-.067,12.828-.633,19.236-1.342H1634.5v-4l-15.038-1.171q-68,.753-135.914-.829a87.312,87.312,0,0,0-20.494,0c-.239-.786-2.24-.134-2.125-.141,7.281-.448,14.838-.6,22.29-.361.4.013.787.664,1.164,1.5q75.048.139,149.421-.663l.7-1.333v-3l-4.436-2.077c-108.741.891-217.27-1.044-325.955-.928l8.494,2.005h-30.991c-.225,1.76,2.258.949,3.489,1,24.313,1.011,49.572-.281,74.029-.041,2.361.023,4.552,1.058,6.914,1.082,26,.265,52.014-.279,78.013-.046v2.01l-597.8-1c-1.62-1.412,1.11-.984,1.979-1.007,2.627-.067,5.552.3,8.071.018a29.286,29.286,0,0,0,3.442-1.016q27.67-.145,55.938-2.784,55.1.547,110.009-1.216H610.826a408.406,408.406,0,0,0,76.559,1.6q45.135.176,89.388,2.4a29.468,29.468,0,0,0,3.442,1.016c2.52.282,5.444-.085,8.072-.018.869.023,3.6-.4,1.979,1.007l-597.8,1v-2.01c26-.233,52.015.311,78.014.046,2.362-.024,4.552-1.059,6.914-1.082,24.456-.24,49.715,1.052,74.028.041,1.232-.051,3.714.76,3.489-1h-30.99l8.494-2.005c-39,.226-78-.267-117-.036-69.481.412-139.322,1.924-208.96.962-1.607.216-2.042,3.4-5.439,2.081l0,2.994,167.463,0,3.488,1H149.973l.006.99c14.818.313,29.67.565,44.5,1.009.868.026,3.6-.41,1.979,1.006-45.988-.486-92.015.612-138,.043-18.7-.232-37.594-1.048-56.434-1.048C.53,328.954.564,334.638.856,334.654l67.9-.977q168.075,2.536,336.135-.282" transform="translate(0 172.605)" fill="#040304"/>
            <path id="Pfad_27815" data-name="Pfad 27815" d="M2.021,632.057c56.121,0,112.194,2.75,168.487,2.041,7.666-.1,17.211-2.01,24.9-2.089,62.647-.643,125.334.585,187.984.043l.5,1.005H357.907l.5,1.005c213.676.291,427.133-1.6,640.84-1.053,3.075.008,5.827,1.087,8.9,1.1,89.986.239,179.974-.283,269.959-.043l.5-1.005h-25.992l.5-1.005c62.65.542,125.337-.686,187.984-.043,7.693.079,17.238,1.993,24.9,2.089,55.289.7,110.38-2.041,165.488-2.041h3v-4c-3.483-1.365-7.062-1.423-10.734-1.434-34.532-.109-68.405-.017-102.1,1.537a3.945,3.945,0,0,0-2.359,1.476,366.352,366.352,0,0,1-37.753-.579,225.7,225.7,0,0,0,37.988,0c.968-.62,1.122-2.438.541-2.441-135.5-.728-275.888-.831-411.41.441-193.83.892-386.991.892-580.815,0-135.346-1.035-275.77-.923-411.25-.566-.42,0-.3,1.781.381,2.566a226,226,0,0,0,37.988,0,371.316,371.316,0,0,1-37.753.579,3.984,3.984,0,0,0-2.358-1.476c-37.3-2.03-75.007-3.281-112.281-1.375-2.208,1.177-3.111,4.51-.559,5.272" transform="translate(0 -433.057)" fill="#030604"/>
            <path id="Pfad_27816" data-name="Pfad 27816" d="M1634.5,216.167v-17c-38.812.365-77.682-.47-116.5-.041-2.363.026-4.552,1.052-6.915,1.082-18.861.238-38.275-.821-57.034-.041-1.231.051-3.713-.76-3.488,1h27.991l-13.455,2.041c-24.411.549-49.526-1.325-73.517.959q-67.349.534-133.346.6l.388,1.4,6.9,1.462q70.031.46,140.058,1.538l.423,1.087-176.125.258-2.039,1q-50.769-.444-100.17.656c-1.608,2.178-.5,2.586,1.874,2.543a466.094,466.094,0,0,1,64.263,1.169q21.948-.674,43.828.288Z" transform="translate(0 411.833)" fill="#010101"/>
            <path id="Pfad_27817" data-name="Pfad 27817" d="M1634.5,82.79v-4c-34.484-.231-69.012.291-103.508.041-2.6-.019-5.054-1.07-7.909-1.089-75.65-.5-151.32.472-226.972.053l-.5-1h44.986l-.5-1c-67.687-.025-135.424-.32-202.973.964-2.365.045-4.551,1.036-6.916,1.082-21.151.411-42.372-.4-63.516-.031l4.987,1.979c-30.083,2.3-60.706.383-90.964,1.011q69.4,1.3,138.955,2c42.5,2.782,85.82.121,128.412-.048,128.8-.51,257.634.481,386.424.048" transform="translate(0 667.21)" fill="#070707"/>
            <path id="Pfad_27818" data-name="Pfad 27818" d="M1634.5,113.037v-8l-.964-2q-42.2.143-85.5.189l-2.1.9q-183.207.479-364.285,1.907c-.164.177.153.754,0,1q-11.752.845-23.529.962l.536,1.038q52.13.908,105.3.5.522,1.732,2.668-.5c-1.935.334-4.483,2.969-2.106,3.491l117.07.509c.185.892.524.856,1,0l14.578,1.308q119.513,1.785,237.342-1.308" transform="translate(0 608.963)" fill="#07dd7a"/>
            <path id="Pfad_27819" data-name="Pfad 27819" d="M1634.5,7.411l-665.33.958c-10.858,3.359-21.469.947-31.947.949-5.141,0-10.981,2.07-16.49,1.1l1.989,1.98c-12.137.288-24.356-.354-36.5.009-.869.026-3.6-.41-1.98,1.006l157.014.074c7.056-3.569,20.194-2.3,28.965-2.12C1205.9,14.1,1342.157,9.831,1478.1,10.363c6.2.025,12.677,1.141,19.446,1.048a147.973,147.973,0,0,0,40,2.106q48.609,1.151,96.959-2.106Z" transform="translate(0 805.589)" fill="#27d593"/>
            <path id="Pfad_27820" data-name="Pfad 27820" d="M2.021,635.133c-2.071-3.031-.391-3.735,2.45-4.049,21.626-2.4,55.332-.4,78.066.008,9.456.17,20.423,1.825,29.908,2.082,12.525.34,26.558.478,39.039-.041,1.232-.051,3.713.76,3.488-1H116.984l.5-1.005,410.366-.995a7.653,7.653,0,0,0-3.38-1.073Q263.6,627.867,2.456,628.051L.022,631.133v4Z" transform="translate(0 -436.133)" fill="#54ca97"/>
            <path id="Pfad_27821" data-name="Pfad 27821" d="M1634.5,632.9v-3c-142.117.551-284.283-.715-426.411-.048-32.855.155-66.729,1.9-99.421,2.048l410.366.995.5,1.005h-37.988c-.225,1.76,2.256.949,3.488,1,12.481.519,26.514.381,39.04.041,9.483-.257,20.452-1.912,29.907-2.082,26.817-.482,53.707.444,80.516.041" transform="translate(0 -437.904)" fill="#54ca97"/>
            <path id="Pfad_27822" data-name="Pfad 27822" d="M1634.5,264.952v-2l-349.9.5,55.533.459,30.9,2.089c87.845-.2,175.758.478,263.464-1.048" transform="translate(0 298.048)" fill="#51d69d"/>
            <path id="Pfad_27823" data-name="Pfad 27823" d="M1634.5,119.9v-4l-3.85-1.031-71.764.1q.974-.516-1.361-1.064c-1,.009-2-.01-3,0-1.27-3.1-11.22-2.136-12,1l3.994,3c-36.662-.352-73.311.7-109.96,1-31.079-2.976-62.919-3.35-93.97,0-53.3.361-107.82.982-160.948,2Z" transform="translate(0 594.103)" fill="#d6fce9"/>
            <path id="Pfad_27824" data-name="Pfad 27824" d="M1408.572,306.068l79.492.932,1.482-2h-38.987l3.488-1H1634.5v-2l-507.349,2q138.777.918,282.18.51Z" transform="translate(0 218.002)" fill="#9de4cb"/>
            <path id="Pfad_27825" data-name="Pfad 27825" d="M1634.5,526.27v-1c-6.044-.087-11.422,1.321-16.035-3.46-120.494-1.854-241.359-.588-361.844-.54-.873.284-.861.618,0,1q130.26.215,255.918,1c-1.861.429-1.594,1.351.3,1.5q19.277-.528,37.686.5c-19.972-.953-41.17-.872-60.981,0l-1.185.767c32.549,1.667,67.809,2.158,101.153.233a158.831,158.831,0,0,0,42.519,1.39Z" transform="translate(0 -222.27)" fill="#dbfcf1"/>
            <path id="Pfad_27826" data-name="Pfad 27826" d="M1.021,325q2.664-.332,1.255-1.067A272.16,272.16,0,0,0,39.009,323a8.067,8.067,0,0,1,3.38-1.073c44.662-.769,89.405.73,134.073.068l-3.5,2.005q81.841,1.537,163.948,0c.245-.5.51-1.283.989-1.505,4.189-1.944,52.324-.381,61.5-.478,1.691-.017,4.447.639,5.484-1.017-134.43.753-268.916-.57-403.361.007L2.021,317h-2v8Z" transform="translate(0 185)" fill="#f0eeee"/>
            <path id="Pfad_27827" data-name="Pfad 27827" d="M1634.5,134.222v-5c-4.928-.806-9.78,1-14.448,1.048-64.961.682-130.4-2.452-195.485-1.048-2.848.736-3.708,2.489-.635,3.528a534.127,534.127,0,0,0,53.618-.528c31.515.59,63.039,1.506,94.429,2.041,20.824.355,41.706-.349,62.521-.041" transform="translate(0 563.778)" fill="#20d792"/>
            <path id="Pfad_27828" data-name="Pfad 27828" d="M1634.5,193.691v-3h-32.99l-4.12-1.008q-44,1.711-86.85.008c24.534,1.246,50.575,1.159,74.976,0l1.177-.763c-24.732-1.551-50.938-1.049-76.153-.237-20.427-.714-40.883-.755-61.326-.643-2.93.016,2.929,5.508,5.343,4.643l1.5,1.064,21.49-.064c52.3.25,104.652-.187,156.95,0" transform="translate(0 445.309)" fill="#111"/>
            <path id="Pfad_27829" data-name="Pfad 27829" d="M1634.5,9.863v-4c-39.484-.221-79.007.278-118.5.041-6.163-.037-12.468-.123-18.453-.041l6.495,1.005c-30.955.682-62.044-.932-92.984-.006-.869.026-3.6-.41-1.98,1.006,29.669.754,59.332.556,89.01.954,2.363.031,4.552,1.054,6.915,1.082,43.151.518,86.359-.472,129.5-.041" transform="translate(0 811.137)" fill="#2eda8a"/>
            <path id="Pfad_27831" data-name="Pfad 27831" d="M1528.534,103.628c35.348-.083,70.749.411,105.966-1v-1c-30.445.959-60.948,1.185-91.512,1.041-53.31-.25-106.952-1.009-160.407-1.041l-.672,1.139q72.69,3.982,146.625.861" transform="translate(0 620.372)" fill="#2dd5a1"/>
            <path id="Pfad_27832" data-name="Pfad 27832" d="M1539.53,521.279c.6,1.505,1.415,1.514,2,0,13.037,2.9,26.792,1.593,39.988,0l1.047.9q23.633-.771,47.814-.52l4.122-1.383v-3c-10.879.193-21.616,1.135-32.538,1.048-4.027-.033-7.979-1.014-12.448-1.048l-.619,1.11a79.367,79.367,0,0,1,8.617.89,401.722,401.722,0,0,0-61.481,0c-7.129,1.306-1.424,6.064,3.5,2" transform="translate(0 -213.279)" fill="#75e2b1"/>
            <path id="Pfad_27833" data-name="Pfad 27833" d="M1471.552,390.641l19.488,1.364q48.727-1.185,97.475-1.364H1634.5v-1l-190.436-.005c-1.621,1.416,1.111.98,1.979,1.006,8.475.253,17.039-.02,25.509,0" transform="translate(0 45.359)" fill="#5a534e"/>
            <path id="Pfad_27834" data-name="Pfad 27834" d="M71,525.063q-.263-2.508-5.432-1.994A20.692,20.692,0,0,1,55,522.049l-.282-1.338-16.682-.3.969-1.345h4c.873-.284.86-.618,0-1l-.673-2a299.976,299.976,0,0,0-41.314,2c-.357.293-.631.712-1,1v2l2.434,3.082c22.919-.784,45.753.514,68.543.918" transform="translate(0 -214.063)" fill="#aff2da"/>
            <path id="Pfad_27835" data-name="Pfad 27835" d="M1634.5,519.138v-3c-16.511.267-33.081-.327-49.6-.073a8.02,8.02,0,0,0-3.38,1.073,67.154,67.154,0,0,1-15.263,1.34c-.88.013-1.039.639-.732,1.66,6.971-.054,13.95-.94,20.452-1.041,16.164-.251,32.373.271,48.526.041" transform="translate(0 -209.138)" fill="#aef3d9"/>
            <path id="Pfad_27836" data-name="Pfad 27836" d="M1634.5,118.81v-2c-25.64.164-51.336-.221-76.975,0-.558,3.019,1.526,1.936,3.453,2,24.452.819,49.068-.61,73.522,0" transform="translate(0 591.19)" fill="#29da83"/>
            <path id="Pfad_27837" data-name="Pfad 27837" d="M1634.5,759v-1l-113.974.5Z" transform="translate(0 -690)" fill="#4b4b4b"/>
            <path id="Pfad_27838" data-name="Pfad 27838" d="M1634.5,152.631v-2a317.946,317.946,0,0,0-39.987,0c-.939-.888-3.441-.561-3,1Z" transform="translate(0 524.369)" fill="#0d100f"/>
            <path id="Pfad_27839" data-name="Pfad 27839" d="M1634.5,156.411v-2c-10.955.929-23.816-1.24-34.526-.037-1.5.169-3.084.209-3.462,2.027Z" transform="translate(0 516.589)" fill="#c4e1dc"/>
            <path id="Pfad_27840" data-name="Pfad 27840" d="M1634.5,319.137v-2c-11.176.264-22.423-.325-33.608-.073a8.256,8.256,0,0,0-3.38,1.073c-.873.284-.86.618,0,1Z" transform="translate(0 190.863)" fill="#313030"/>
            <path id="Pfad_27841" data-name="Pfad 27841" d="M2.021,153l.779-1.248,32.079.134A16.3,16.3,0,0,0,42.008,151c.873-.284.86-.618,0-1H.022v3Z" transform="translate(0 524)" fill="#c5e1dc"/>
            <path id="Pfad_27842" data-name="Pfad 27842" d="M1634.5,689.064v-2c-2.615.274-22.063-.935-22,1.5Z" transform="translate(0 -549.064)" fill="#0f0f0f"/>
            <path id="Pfad_27843" data-name="Pfad 27843" d="M1634.5,152.953v-1h-39.987c-.873.284-.86.618,0,1,13.3-.252,26.681.186,39.987,0" transform="translate(0 522.047)" fill="#c4e1dc"/>
            <path id="Pfad_27844" data-name="Pfad 27844" d="M2.021,199h-2v17h1l2.072-1.345a60.892,60.892,0,0,1,.4-13.785Z" transform="translate(0 412)" fill="#acacac"/>
            <path id="Pfad_27847" data-name="Pfad 27847" d="M661.81,709.059q-28.9-2.066-57.586-1.443l-2.4-.557q38.327-1.508,77.694-1.424l2.282-1.576-265.917,1c-.872.284-.859.618,0,1,6.131.017,12.374-.252,18.505,0,1.218.05,3.718-.754,3.483.99-13.8.416-27.721-.508-41.523-.032-4.657.161-10.227,1.877-14.912,2.084-10.46.462-21.066-.436-31.526-.032-.235,1.744,2.265.94,3.483.99,6.993.287,14.05-.254,21.045-.041,2.366.072,4.551,1.029,6.915,1.082,90.973,2.053,184.012.1,274.968-1.024,1.692-.021,4.446.641,5.484-1.017" transform="translate(-269.903 -619.059)" fill="#060607"/>
            <path id="Pfad_27848" data-name="Pfad 27848" d="M974.711,709.092c1.037,1.656,3.793,1,5.484,1.017,91.026.959,183.927,3.079,274.968,1.024,2.364-.053,4.549-1.01,6.915-1.082,6.995-.213,14.052.328,21.045.041,1.218-.05,3.718.754,3.483-.99-10.46-.4-21.066.494-31.526.032-4.685-.207-10.255-1.923-14.912-2.084-13.8-.476-27.724.448-41.523.032-.235-1.744,2.264-.94,3.483-.99,6.131-.252,12.374.017,18.505,0,.872-.284.86-.618,0-1l-265.916-1L957,705.668q39.359-.113,77.694,1.424l-2.667.564q-28.6-.644-57.314,1.436" transform="translate(244.013 -640.046)" fill="#060607"/>
            <path id="Pfad_27849" data-name="Pfad 27849" d="M1106.668,691.07h62.98c30.269.063,61.74,1.621,91.4-2.071l138.526.071Q1353.45,686.9,1308,687.617l-2.4-.547c-27.459.271-66.812-3.336-92.537-.079-1.914.242-.953,1.916-2.866,2.158-6.326.8-15.753-.153-22.56-.079q-62.414-1.557-123.563-.465l-2.4-.535c-2.632-1.552-5.9.6-2,2l44.986,1c.666.005,1.333-.005,2,0" transform="translate(0 -550.07)" fill="#757575"/>
            <path id="Pfad_27850" data-name="Pfad 27850" d="M466.873,691.093h64.979q21.878-.837,44.986-1c4.025-.916,1-3.71-2-2q-55.506,1.209-113.922-.07l-12.038,1.07c-6.807-.074-16.234.88-22.56.079-1.913-.242-.953-1.916-2.865-2.158-25.726-3.257-65.079.35-92.538.079l-2.667.553q-45.4-.742-91.3,1.447l138.527-.071c29.678,3.827,61.108,1.953,91.4,2.071" transform="translate(0 -550.093)" fill="#757575"/>
            <path id="Pfad_27851" data-name="Pfad 27851" d="M236.946,690.035c29.123-.229,59.059-.673,88.486-.983,1.691-.017,4.447.639,5.484-1.017-37.958-.375-76.382-.04-114.416.048-53.664.123-107.329-.188-160.993-.053l9.952,2.046c57.157-.411,114.346.408,171.487-.041" transform="translate(0 -551.035)" fill="#2b2b2b"/>
            <path id="Pfad_27852" data-name="Pfad 27852" d="M1399.575,690.034c57.141.452,114.33-.372,171.487.041l9.952-2.046c-53.664-.135-107.329.176-160.993.053-38.034-.088-76.458-.423-114.416-.048,1.038,1.658,3.792,1,5.484,1.017,29.411.365,59.372.753,88.486.983" transform="translate(0 -551.034)" fill="#2b2b2b"/>
            <path id="Pfad_27853" data-name="Pfad 27853" d="M1187.643,690.928c.557-3.028-1.526-1.924-3.453-2-17.8-.705-36.249-.823-53.981-1.048-55.311-.7-110.676.628-165.991.043-1.179.332-.626,2.187.5,2.005l90.252.463c7.751-1.049,10.853-1.344,6.717-.463,1.037,1.656,3.793,1,5.484,1.017,40.1.423,80.392.417,120.476-.017" transform="translate(0 -551.928)" fill="#929292"/>
            <path id="Pfad_27854" data-name="Pfad 27854" d="M574.838,689.9c-4.135-.884-1.033-.58,6.717.485l90.252-.485c1.123.182,1.675-1.673.5-2.005-55.315.58-110.679-.737-165.991-.043-17.765.223-36.126.45-53.98,1.048-1.928.064-4.012-1.019-3.454,2,40.074.434,80.391.515,120.476.017,1.692-.021,4.446.641,5.484-1.017" transform="translate(-105.497 -523.546)" fill="#929292"/>
            <path id="Pfad_27855" data-name="Pfad 27855" d="M985.707,689.749q36.974,1.077,73.976,0c-.278-2.7.07-1.811,2-2,23.12-.516,46.372.693,69.494,0,.868-.026,3.6.41,1.98-1.006-55,.644-110.054-.816-165.048-.058a7.263,7.263,0,0,0-3.4,1.063c4.38.3,9.186-.432,13.5-.008,2.749.27,5.144,1.859,7.494,2.008" transform="translate(0 -549.749)" fill="#030303"/>
            <path id="Pfad_27856" data-name="Pfad 27856" d="M650.814,689.269c2.34-.144,4.748-1.734,7.494-2.008,4.308-.429,9.122.315,13.5.008a7.263,7.263,0,0,0-3.4-1.063c-54.994-.758-110.05.7-165.048.058-1.62,1.416,1.111.98,1.98,1.006,23.122.692,46.374-.517,69.494,0,1.93.189,2.278-.7,2,2,24.515,1.073,49.492,1.616,73.976,0" transform="translate(-107.914 -521.886)" fill="#030303"/>
            <path id="Pfad_27859" data-name="Pfad 27859" d="M1034.691,712.055l-16.453-2.041c-21.083-.569-42.769,1.353-63.521-.959-3.837-.427-2.712,1.747-3.681,1.981-2.289.552-9.07.672-12.314,1.019Z" transform="translate(0 -594.055)" fill="#d7d7d7"/>
            <path id="Pfad_27860" data-name="Pfad 27860" d="M697.8,712.055c-3.244-.347-10.026-.467-12.315-1.019-.969-.234.157-2.408-3.68-1.981-20.752,2.312-42.438.39-63.521.959l-16.453,2.041Z" transform="translate(0 -594.055)" fill="#d7d7d7"/>
            <path id="Pfad_27861" data-name="Pfad 27861" d="M650.814,685.909c-23.582,1.446-50.053-.006-73.976,0-13.147,0-26.346-.181-39.5-.017-1.692.021-4.446-.641-5.484,1.017,37.792,0,75.68.487,113.478.017,1.692-.021,4.446.641,5.484-1.017" transform="translate(0 -545.909)" fill="#929292"/>
            <path id="Pfad_27862" data-name="Pfad 27862" d="M1104.669,687.028c-14.577-.113-30.072-.833-44.986-1-24.077-.269-50.251,1.5-73.976,0Z" transform="translate(0 -546.028)" fill="#929292"/>
            <path id="Pfad_27863" data-name="Pfad 27863" d="M415.889,710.916v-1l-117.972.5c39.27,1,78.671.392,117.972.5" transform="translate(0 -593.916)" fill="#636365"/>
            <path id="Pfad_27864" data-name="Pfad 27864" d="M1220.632,710.916c39.3-.108,78.7.5,117.972-.5l-117.972-.5Z" transform="translate(0 -593.916)" fill="#636365"/>
            <rect id="Rechteck_5296" data-name="Rechteck 5296" width="114.963" height="1" transform="translate(1.021 68)" fill="#4b4b4b"/>
            <path id="Pfad_27865" data-name="Pfad 27865" d="M529.853,685.963h-62.98c20.975.082,42,0,62.98,0" transform="translate(0 -544.963)" fill="#131313"/>
            <path id="Pfad_27866" data-name="Pfad 27866" d="M1169.648,685.945h-62.98c20.973.158,42.006-.043,62.98,0" transform="translate(0 -544.945)" fill="#131313"/>
            <path id="Pfad_27867" data-name="Pfad 27867" d="M24.014,689c.878-.4-1.875-2-2.5-2H2.521c-.174,0-1.575,1.351-1.5,2Z" transform="translate(0 -549)" fill="#0f0f0f"/>
            <path id="Pfad_27868" data-name="Pfad 27868" d="M384.9,510.43c-10.269,2.523-38.252,2.249-50.652,2.623-5.544.167-12.9-2.034-18.3-.1-.224.08-2.808,2.132-1.518,2.483q503.8.246,1007.671,0c1.29-.351-1.294-2.4-1.518-2.483-5.4-1.933-12.759.268-18.3.1-12.847-.388-39.736-.1-50.653-2.623q-4.02.318-5.388-2.05c-35.651-.362-72.17-.578-108.082.033q-52.617.251-104.46.017h7.531c.5,2.832,1.52,2.829,2.075,0q2.495,4.024,2.258,0,2.742,4.014,2.421,0c.444-.767,17.2-.721,17.715,0a8.328,8.328,0,0,1,.984,2c.713-2.9,3.221-2.9,3.927,0,.708-2.99,6.036-3.01,6.7,0,.773-2.859,2-2.863,2.75,0,.739-2.855,1.939-2.859,2.644,0,.554-2.869,2.83-2.875,3.325,0,.633-2.841,1.732-2.845,2.315,0,.335-2.912,3.9-2.938,4.077,0,.047-1.644.92-2.586,1.172-2,1.144,2.667,2.187,3.272,3.235,0,2.54-.2.073,1.505-1.4,2.048H540.638a16.485,16.485,0,0,1-2.473-2.048c3.4-.436,8.71-.576,10.028,2,.433-2.866,2.621-2.861,3.122,0q.817-3.9,1.663,0,3.285-4.3,4.4,0a8.769,8.769,0,0,1,.916-2c.379-.576,13-.644,12.537,2,.712-2.9,3.22-2.9,3.925,0,.709-2.99,6.035-3.01,6.7,0,.772-2.859,2-2.863,2.749,0,.739-2.855,1.938-2.859,2.644,0,.553-2.869,2.829-2.875,3.324,0,.633-2.841,1.732-2.845,2.315,0,.335-2.912,3.9-2.938,4.076,0,.441-2.808,1.349-2.809,1.719,0l4.542-2q-106.078-.216-212.542-.05-.961,2.025-5.388,2.05" transform="translate(0 -196.43)" fill="#030202"/>
            <path id="Pfad_27869" data-name="Pfad 27869" d="M602.829,525.944h-1.376l1.927,2h431.693c3.951-3.9,10.26-2.032,14.565,0l1.709-2c1.615,2.95,5.037,2.982,6.582,0h23.005q1.094,3.894,2.138,0a39.641,39.641,0,0,1,4.784,2q.87-3.894,1.683,0c.414-2.908,4.059-2.952,4.232,0q.038-2.907,4.9-2h-64.98l217.931,2c-1.5-.348-5.877-.738-4.993-2.995,57.722.617,115.283-.9,172.939-1.005h61.981c.872-.284.86-.618,0-1a788.377,788.377,0,0,0-125.96,0l-200.207.4-2.728.6c-1.53-2.352-2.648-1.753-3,1a21.3,21.3,0,0,1-10,0,39.367,39.367,0,0,0-24.992,0h-3Q800.521,521.6,489.338,523q-143.432-3.9-286.95-1.777-55.848.05-96.167.653-.206-2.637-5.232-2.93,8.713,3.219,20.075,2h28.231l1.178-2c3.654,2.981,4.608-4.5,0-3a135.917,135.917,0,0,0-25.491,0c372.675,1.7,757.116.74,1147.633-1h83.973c.208.779.542,1.949,1.141,2a168.476,168.476,0,0,0,22.424,0l1.427-2h51.984c.085.789.364,1.974.923,2,15.765.738,34.336.583,50.221,0,.356-.013.691-.557,1.021-1.253q12.983-.011,25.81-.747c.284.873.618.861,1,0,.005-.134,1.692-1.015.5-1-24.667-.235-49.351.311-74.016.045-60.721-.653-121.656-.12-182.4-.041q-571.356.215-1112.587-1.169-29.4,2.124-57.349,1.536c-2.027-.137-2.132,1.106-.69,2.633,19.247,1.491,41.164,1.029,60.981,0-19.133,1.132-40.5,1.181-60.494.694-12.687-2.268-26.885-2.838-39.475.306q-2.106.5-4,1c-1.331.038-2.667-.026-4,0l.283,1.338q29.595.541,59.232,1.011l-.545,1.351c-.682.539-1.916,1.221-3-.05a3.6,3.6,0,0,0-.15-1.336,328.783,328.783,0,0,0-39.131-.649c-.256.015-.48.588-.695,1.322-2.574,2.318-.25,1.948,1.484,2.013,4.636.174,10.283-.98,14.511,1,70.3,1.246,141.046-.152,211.385.048,35.67.1,71.341-.171,107.01-.053l.51,2c-2.141-.772-3.68.678-5.005,1Z" transform="translate(0 -213.944)" fill="#2bd68c"/>
            <path id="Pfad_27870" data-name="Pfad 27870" d="M1019.7,464.608c1.452-1.381.822-2-1-1q-37.357-1.094-75.984-.7a15.882,15.882,0,0,0-8.435-.972q27.693-1.061,55.429-1.33a9.9,9.9,0,0,0,9,0c5.277-2.572-2.849-2.727-5.935-2.5l-2.063-.5c-117.424-1.711-236.992-.952-352.692.919l-.2,2.081a11.66,11.66,0,0,0,10,0q27.45.268,54.855,1.33-42.768,1.16-84.846,1.67c-1.394-1.456-1.989-.828-1,1,.873.043,2.918,1.562,4.425,1.042,131.932-3.795,267.028,5.366,398.446-1.042" transform="translate(0 -96.608)" fill="#35d48e"/>
            <path id="Pfad_27871" data-name="Pfad 27871" d="M786.771,399.048l.914-1.005,61.715,0c2.308-1.327-1.27-.938.351,1.007h259.912V394.99H526.844v4.058Z" transform="translate(0 32.962)" fill="#4a4947"/>
            <path id="Pfad_27872" data-name="Pfad 27872" d="M637.818,466.248l3.5-1.954c116.27-1.731,232.981-1.291,349.387-1.046l11.984,1.467q45.081-.345,89.984-1.467c-1.038-1.658-3.792-1-5.484-1.017-179.573-2.23-359.3,1.741-538.885-.025-9.522,2.612-18.357,1.648-27.959,2.042-1.218.05-3.718-.754-3.483.99,28.3.18,56.665-.206,84.967.01a14.175,14.175,0,0,0,5.491,2.089c8.207.726,19.3.256,27.772-.128a6.262,6.262,0,0,0,2.726-.961" transform="translate(0 -102.248)" fill="#7dd1b2"/>
            <path id="Pfad_27873" data-name="Pfad 27873" d="M776.774,336.1c-8.746-.828-19.065.24-27.543-.948-43.952-6.157-91.187,2.309-135.022-1.98a11.835,11.835,0,0,1-3.382-1.072c-47.945-2.057-96.358-.5-144.5-1.048l-16.442,2.038c51.814.277,103.667-.314,155.493-.038,11.314.061,22.968.972,34.442,1.048q12.663.127.757.794l.242,1.206Z" transform="translate(0 159.896)" fill="#6d6b6c"/>
            <path id="Pfad_27874" data-name="Pfad 27874" d="M995.7,336.1c.029-.567.009-1.027-.18-1.113a9.9,9.9,0,0,0-3.166-.413c-16.352-.3-32.706-.187-49.063-.009L996.7,334.1c11.473-.076,23.128-.987,34.441-1.048,51.826-.276,103.68.315,155.493.038l-16.442-2.038c-48.144.545-96.556-1.009-144.5,1.048-45.109,1.935-94.095-3.155-138.4,3.052-8.478,1.188-18.8.12-27.544.948Z" transform="translate(0 159.896)" fill="#6d6b6c"/>
            <path id="Pfad_27875" data-name="Pfad 27875" d="M547.847,387.331c-8.837-.011-18.477-.042-27.45-.041-34.01,0-68.017.086-102.027.039l-1.481,2H660.811l0-.99c-4.082.86-8.372-.809-11.991-1.01q-50.46-.663-100.968,0" transform="translate(0 50.669)" fill="#55625d"/>
            <path id="Pfad_27876" data-name="Pfad 27876" d="M987.706,387.331c-3.619.2-7.909,1.87-11.991,1.01l-.005.99h243.922l-1.482-2c-34.009.047-68.016-.038-102.026-.039-8.973,0-18.613.03-27.45.041q-50.47-.663-100.968,0" transform="translate(0 50.669)" fill="#55625d"/>
            <path id="Pfad_27877" data-name="Pfad 27877" d="M1034.691,463.905c28.3-.216,56.665.17,84.968-.01.235-1.744-2.265-.94-3.484-.99-5.33-.219-10.715.247-16.042.042-2.539-.1-4.788-.973-7.46-1.042-33.885-.876-68.056.071-101.968,0,2.239,2.76,8.879-1.231,8,3a6.254,6.254,0,0,0,2.725.961c8.473.384,19.566.854,27.773.128a14.17,14.17,0,0,0,5.49-2.089" transform="translate(0 -100.905)" fill="#7dd1b2"/>
            <path id="Pfad_27878" data-name="Pfad 27878" d="M63,391.123q31.4-2,63.7-.907c1.81.363,5.549-1.075,5.277-1.083-.984-.028-3.709.814-2.994,1.99,9.8-.056,23.33,1.176,32.533.067,1.94-.234,1.819-2.326,3.455-3.063-37.832-.877-78.77-.879-116.962,0-.775,1.319-2.5,2.815.482,3,4.758.293,9.733-.05,14.513,0" transform="translate(0 47.877)" fill="#b7e4d7"/>
            <path id="Pfad_27879" data-name="Pfad 27879" d="M1507.541,390.568c.391-1.125-.656-1.025-.584-1.023,17.927.577,35.824.5,53.776-.035a32.35,32.35,0,0,1,12.787,1.058c4.78-.048,9.755.3,14.512,0,2.979-.184,1.258-1.68.483-3-38.97,0-77.994.089-116.963,0,1.636.741,1.516,2.833,3.456,3.067,9.942,1.2,22.307-1.023,32.533-.067" transform="translate(0 48.432)" fill="#b7e4d7"/>
            <path id="Pfad_27880" data-name="Pfad 27880" d="M616.825,463.954a5.668,5.668,0,0,1,1-1q39.082-.7,78.341-1.136l-.9-1.216q-23.913.244-47.447-.648c-3.323-.019-6.674.021-10,0-11.68-.073-24.051-.909-35.988-1l-1,4.993c5.3.2,10.7-.251,15.991.007" transform="translate(0 -95.954)" fill="#a0f4c1"/>
            <path id="Pfad_27881" data-name="Pfad 27881" d="M1019.7,463.954c5.293-.258,10.691.193,15.991-.007l-1-4.993c-11.937.091-24.308.927-35.988,1-2.992.019-6.006-.017-9,0q-24.622.6-49.495.926l1,1.371q38.891-.34,77.486.7a5.666,5.666,0,0,1,1,1" transform="translate(0 -95.954)" fill="#a0f4c1"/>
            <rect id="Rechteck_5297" data-name="Rechteck 5297" width="191.939" height="1.005" transform="translate(1.026 434.999)" fill="#5a534e"/>
            <path id="Pfad_27882" data-name="Pfad 27882" d="M1554.526,525.99c3.656-.015,7.34.028,10.995,0,4.229-1.98,9.875-.826,14.511-1,1.734-.065,4.058.3,1.484-2-13.282.176-26.7.2-39.986,0q-.774,1.591-2,0c-1.991-.054-4.005.05-5.995-.01-.88-.386,1.874-1.99,2.495-1.99h61.48l-.005-.99c-1.6-.75-6.59,1.26-7.991-1.01-31.819-.243-64.849,1.315-96.48,0-1.233-.051-3.713.76-3.488-1h60.979c.225-1.76-2.255-.949-3.488-1-11.294-.47-22.69.355-34-.009-.52-.13-.521-.55-.5-.991h-1q-12.836.727-25.786.682c-4.193.106-3.557,5.048.293,3.318,0,.777.193,1.978.673,2,11.3.52,32.28,1.44,42.763,0a20.053,20.053,0,0,0,6.048-2q-5.2.321-5.366,3.1l-41.108-.982a23.238,23.238,0,0,0-7.509,1.885v1Z" transform="translate(0 -214.99)" fill="#2ad68c"/>
            <rect id="Rechteck_5298" data-name="Rechteck 5298" width="163.948" height="1" transform="translate(289.929 325)" fill="#5f5f5f"/>
            <rect id="Rechteck_5299" data-name="Rechteck 5299" width="163.948" height="1" transform="translate(1182.644 325)" fill="#5f5f5f"/>
            <path id="Pfad_27883" data-name="Pfad 27883" d="M1554.526,517.018c-24.414.1-48.673-.968-72.978-1q-30.963-.04-61.98,0Z" transform="translate(0 -206.018)" fill="#aef3d9"/>
            <path id="Pfad_27884" data-name="Pfad 27884" d="M1573.519,389.519c-1.307-2.039-3.385-1.9-5.457-2.047-20.878-1.454-43.462,1.171-64.516.057-.388.9,3.772,1.965,3.994,1.99,18.624,2.1,46.4.2,65.979,0" transform="translate(0 49.481)" fill="#48dbb3"/>
            <path id="Pfad_27885" data-name="Pfad 27885" d="M128.98,390.256l3-1.99c-20.221.861-41.4-1.173-61.517-.052-2.612.145-5.452-.014-7.456,2.042,21.958.22,44.018.126,65.978,0" transform="translate(0 48.744)" fill="#47dbb2"/>
            <path id="Pfad_27886" data-name="Pfad 27886" d="M849.75,397.005l1.5-2.015H785.274l1.5,2.015Z" transform="translate(0 35.005)" fill="#2d2d2d"/>
            <path id="Pfad_27887" data-name="Pfad 27887" d="M995.7,332.871c2.505.548,2.3-.239,1-2-35.3.235-70.66-.184-105.961.01-.235,1.744,2.265.94,3.483.99,32.355,1.329,65.824-1.541,98.1-.073,1.991.091,2.568.895,3.381,1.073" transform="translate(0 163.129)" fill="#a2a1a1"/>
            <path id="Pfad_27888" data-name="Pfad 27888" d="M640.817,333.043c1.037-1.656,3.793-1,5.484-1.017,31.717-.334,64.462,1.312,95.994.017,1.218-.05,3.718.754,3.483-.99-35.3-.194-70.66.225-105.961-.01l-1,1.99Z" transform="translate(0 162.957)" fill="#a2a1a1"/>
            <path id="Pfad_27889" data-name="Pfad 27889" d="M648.815,389.793c-32.447-1.8-68.136.039-100.968,0Z" transform="translate(0 48.207)" fill="#141514"/>
            <path id="Pfad_27890" data-name="Pfad 27890" d="M1088.674,389.793c-32.832.039-68.521-1.8-100.968,0Z" transform="translate(0 48.207)" fill="#141514"/>
            <rect id="Rechteck_5300" data-name="Rechteck 5300" width="44.986" height="1" transform="translate(1424.567 439)" fill="#9adccb"/>
            <rect id="Rechteck_5301" data-name="Rechteck 5301" width="44.986" height="1" transform="translate(166.968 439)" fill="#9adccb"/>
            <rect id="Rechteck_5302" data-name="Rechteck 5302" width="30.99" height="1" transform="translate(1527.534 429)" fill="#555f64"/>
            <rect id="Rechteck_5303" data-name="Rechteck 5303" width="30.99" height="1" transform="translate(77.997 429)" fill="#555f64"/>
            <path id="Pfad_27891" data-name="Pfad 27891" d="M398.894,215.985l108.82-1.978,1.145-2.022q-49.124-1.11-100.17-.655l-2.039-1-176.125-.258.423-1.087q74.4-.381,146.108-1.45l.845-1.55-2.635-1.205q-65.2,1.082-130.323-.795c-23.9-2.59-49.175-.182-73.518-.959l-13.454-2.041h27.991c.225-1.76-2.257-.949-3.489-1-18.759-.78-38.172.279-57.033.041-41.019-.516-82.253-1.041-123.419-1.041-2.087,5.2-.554,11.44-1,17q198.911-.051,397.873,0" transform="translate(0 412.015)" fill="#010101"/>
            <path id="Pfad_27892" data-name="Pfad 27892" d="M1015.7,191.191q-1.248-.953,0-1.007c-1.039-1.658-3.792-1-5.484-1.017-21.641-.269-43.388.665-65.011.018-.868-.026-3.6.41-1.979-1.006,65.377.389,130.551.915,195.975,1.046,38.05.076,76.807.014,114.874.007,67.365-.014,136.958,2.2,204.031,0,6.282-.206,12.88-1.9,19.447-1.048-7.149-.034-15.4-.969-22.994-1-55.593-1.708-111.351-1.63-166.947,0a80.28,80.28,0,0,0-19.992,0,122.24,122.24,0,0,0-33.991,0,16.181,16.181,0,0,0-9,0q-65.852-1.618-131.736-1.078,26.664.768,53.762-.922c-1.038-1.658-3.791-1-5.484-1.017-59.58-.74-119.492.006-178.917,1.058-13.326.236-32.708-1.82-45.034-.048-3.289.473-2.192,3.007-.992,3.007h19.994c2.821,0,2.29,3.85,3.063,4.066,23.636-.325,47.291.2,70.928-.049,1.69-.018,4.447.639,5.484-1.01" transform="translate(0 450.816)" fill="#e8e8e7"/>
            <path id="Pfad_27893" data-name="Pfad 27893" d="M620.823,191.232l76.378,1.083c.967-.127.781-4.083,2.1-4.083h20.994c1.2,0,2.3-2.534-.993-3.007-12.325-1.772-31.707.284-45.033.048-59.425-1.052-119.336-1.8-178.917-1.058-1.692.021-4.445-.641-5.484,1.017q38.278,1.7,76.219.872-76.609-.471-153.195,1.128a19.866,19.866,0,0,0-10,0,95.353,95.353,0,0,0-29.991,0,116.878,116.878,0,0,0-23.992,0c-53.3-.855-106.653-1.187-159.949,0-1.54-1.962-3.311-1.792-5,0-.5-1.194-1.134-.864-2,0-5.741-3.139-17.3-2.26-22.994,1,6.57-.85,13.157.834,19.447,1.048,67,2.275,136.711-.014,204.03,0,78.47.015,157.248-.369,235.837-1.089,25-.229,50.013.26,75.013.036,1.62,1.416-1.111.98-1.979,1.006-21.619.647-43.373-.246-65.011-.018-1.69.017-4.447-.639-5.484,1.01q1.248.953,0,1.007" transform="translate(0 450.768)" fill="#e6e6e6"/>
            <path id="Pfad_27894" data-name="Pfad 27894" d="M1224.631,194.6a15.974,15.974,0,0,1,9,0c11.314.012,22.675-.016,33.989,0a78.934,78.934,0,0,1,19.994,0c55.63.084,111.317-.226,166.947,0l-5-3.99c20.311-.036,40.67.014,60.981-.01.873-.284.86-.618,0-1-74.055-.193-148.428-1.271-222.471-.041-2.363.039-4.55,1.034-6.915,1.082-11.32.231-22.735-.505-34.04-.041-1.219.05-3.719-.754-3.484.99,14.978.033,30-.009,44.98.01h157.95l1.5,1.005q-111.484.09-222.967-.046c-25.938.011-52.55.016-78.434.041-58.781.058-117.706-.846-176.485-.041-2.363.032-4.551,1.044-6.915,1.082-14.663.238-29.39-.48-44.044-.042-.869.026-3.6-.41-1.98,1.006q153.7.085,307.4-.005" transform="translate(0 443.397)" fill="#181818"/>
            <path id="Pfad_27895" data-name="Pfad 27895" d="M188.961,194.995q78.54-.885,159.949-1,11.887.425,23.992,1c9.981-.014,20.01.01,29.991,0a19.592,19.592,0,0,1,10,0q153.176-.126,306.4.005c1.62-1.416-1.111-.98-1.98-1.006-14.654-.438-29.381.28-44.044.042-2.364-.038-4.552-1.05-6.915-1.082-58.78-.8-117.7.1-176.485.041-25.884-.025-52.5-.03-78.434-.041q-111.484-.05-222.967.046l1.5-1.005H347.91c13.658-.018,27.914.558,41.5,0,1.219-.05,3.719.754,3.484-.99-12.484-.251-25.031.285-37.524.031-2.625-.053-5.056-1.043-7.909-1.089-96.641-1.56-195.27-.988-291.969.031-1.691.017-4.447-.639-5.484,1.017.482,1.81,4.193,1.573,6,1l3-1a2.314,2.314,0,0,0,3,0l3,1c18.926.644,38.266,1.072,56.981-1,19.111,2.736,39.067,2.594,58.44,2.03,7.253-.211,6.9-2.638,3.925-1.121-.249.127-.339.565-.384,1.091-.851.949-1.376,1.666,0,2,1.666-.006,3.332.006,5,0" transform="translate(0 443.005)" fill="#181818"/>
            <path id="Pfad_27896" data-name="Pfad 27896" d="M700.8,134.436h7c72.708,2.189,148.185,2.184,220.929,0h199.931V132.36l-620.791,0v2.078l427.858,0h122.961l-480.847,0Z" transform="translate(0 558.567)" fill="#282e2c"/>
            <path id="Pfad_27897" data-name="Pfad 27897" d="M426.885,211.307c4.652-.042,9.344.066,14,0,9.629.707,19.437,1.118,28.99,0,37-.9,74.777-3.4,111.965-4q3.216-.552,2-2l-338.892,1c39.712,4.3,91.782,1.529,132.958,2,12.7,2.955,26.149,1.71,38.987,0q3.081.476,0,1c-2.541-1.233-12.9-.9-8,2a74.8,74.8,0,0,0,17.994,0" transform="translate(0 409.693)" fill="#0c100f"/>
            <path id="Pfad_27898" data-name="Pfad 27898" d="M1195.64,211.315c4.319.061,8.676-.04,13,0a71.434,71.434,0,0,0,18.994,0c4.917-2.943-5.45-3.234-8-2q-3.076-.525,0-1c12.783,1.833,26.306,2.707,38.988,0,1.037-1.656,3.793-1,5.484-1.017,42.408-.447,85.48,1.2,127.473-.983l-338.891-1q-2.264,1.043,2,2c37.188.6,74.963,3.1,111.964,4a153.852,153.852,0,0,0,28.991,0" transform="translate(0 409.685)" fill="#0c100e"/>
            <rect id="Rechteck_5304" data-name="Rechteck 5304" width="350.888" height="3.048" transform="translate(1.016 561)" fill="#48d59a"/>
            <path id="Pfad_27899" data-name="Pfad 27899" d="M227.949,306.071l-.173-1.333q142.484.012,282.063-.737c-2.016-1.655-4.772-1-6.464-1.017-167.005-1.759-333.882.5-500.872-.986l-1.482,2H185.962v1H146.975l1.482,2Z" transform="translate(0 217.999)" fill="#9de4cb"/>
            <path id="Pfad_27900" data-name="Pfad 27900" d="M158.971,193.006c7.145-.03,15.4-.972,22.993-1a2.513,2.513,0,0,0,2-2c.9-.487,2.81-.1,3-1.99-21.641.154-43.34-.242-64.979-.01q-.923,1.556,3.5,2.005c-30.1-1.165-60.395-1.006-90.468-.005-11.316.044-22.679-.036-34,0l.6,3.011c52.446-.194,104.923.207,157.359-.015" transform="translate(0 445.994)" fill="#121212"/>
            <rect id="Rechteck_5305" data-name="Rechteck 5305" width="321.872" height="3.118" transform="translate(187.967 520.942)" fill="#1edb7f"/>
            <rect id="Rechteck_5306" data-name="Rechteck 5306" width="321.403" height="3.118" transform="translate(1127.151 520.942)" fill="#1edb7f"/>
            <path id="Pfad_27901" data-name="Pfad 27901" d="M666.809,214.819l-295.915-.51c6.047,1.2,12.378.1,18.494.51,90.471,6.091,182.187-.461,272.975,2.043Z" transform="translate(0 395.191)" fill="#ace0d4"/>
            <rect id="Rechteck_5307" data-name="Rechteck 5307" width="3.903" height="295.893" transform="translate(1265.598 607.901) rotate(89.592)" fill="#abdfd4"/>
            <path id="Pfad_27902" data-name="Pfad 27902" d="M1127.662,206.63l317.4-.995c1.62-1.416-1.112-.98-1.98-1.006-10.333-.309-22.024.929-32.056.041-1.948-.173-4-.978-5.449-1.04q-81.546-1.544-163.115-1.265l-14.828,1.265c-6.316-.037-12.678.059-18.994,0,5.2,2.016,11.87.769,17.505,1,1.218.05,3.718-.754,3.483.99-32.472.292-64.995-.349-97.478-.007-1.691.017-4.447-.639-5.484,1.017.186.888.525.851,1,0" transform="translate(0 417.37)" fill="#dfe0de"/>
            <path id="Pfad_27903" data-name="Pfad 27903" d="M508.859,206.608c.185.894.524.858,1,0-1.038-1.658-3.792-1-5.484-1.017-32.48-.4-65.008.345-97.478.007l19.988-1.99c-5.983.054-12.01-.035-17.994,0l-14.828-1.265q-81.547.37-163.115,1.265c-1.447.062-3.5.867-5.449,1.04-10.033.888-21.723-.35-32.056-.041-.869.026-3.6-.41-1.98,1.006Z" transform="translate(0 417.392)" fill="#dfe0de"/>
            <path id="Pfad_27904" data-name="Pfad 27904" d="M1463.555,320.3c-.1-1.93-2.915-.531-3.994-1.01-.389-1.66,1.9-.607,2.994-1.99-76.95,0-153.978.429-230.926,0,1.038,1.658,3.792,1,5.484,1.017,17.934.223,42.091-2.081,59.038-.06,1.854.221,2.734.116,3.456,2.043,53.334.674,110.073,1.159,163.948,0" transform="translate(0 188.699)" fill="#f0efef"/>
            <path id="Pfad_27905" data-name="Pfad 27905" d="M1050.686,327c1.034-1.672,2.708-1.882,4.478-2.023,8.213-.654,17.212.536,25.512.013l-3.462-2.027q-121.227.084-242.459.037c1.038,1.658,3.791,1,5.484,1.017,69.3.861,138.655-.679,207.958-.017l3.489,1H948.719l3.462,2.037q49.251-.07,98.505-.037" transform="translate(0 177)" fill="#6b6b6b"/>
            <path id="Pfad_27906" data-name="Pfad 27906" d="M585.835,327q49.23-.039,98.505.037L687.8,325H584.835l3.489-1c69.308-.565,138.654.747,207.958.017,1.691-.017,4.448.639,5.484-1.017q-121.207.024-242.459-.037l-3.462,2.027c8.235.6,17.4-.765,25.512-.013,1.769.164,3.443.336,4.478,2.023" transform="translate(0 177)" fill="#6b6b6b"/>
            <path id="Pfad_27907" data-name="Pfad 27907" d="M801.766,148H716.793v2.005h202.94V148H834.755a152.1,152.1,0,0,1-32.989,0" transform="translate(0 528.995)" fill="#91908d"/>
            <path id="Pfad_27908" data-name="Pfad 27908" d="M398.894,203q66.951-.022,133.952-.005c1.624-1.235-.019-1.811-1.476-2-4.06-.518-9.141.6-13.082.081-1.659-.218-2.83-1.855-8.429-2.079-.333-.013-.667.01-1,0Z" transform="translate(0 424.998)" fill="#828282"/>
            <path id="Pfad_27909" data-name="Pfad 27909" d="M1237.627,203c-14.667-3.3-32.859.939-47.552-.921-1.912-.242-.952-1.916-2.865-2.158-15.138-1.917-37.88.3-54.064.1-1.692-.021-4.446.641-5.484-1.017-.333.01-.667-.013-1,0-5.6.224-6.77,1.861-8.429,2.079-3.941.517-9.022-.6-13.082-.081-1.457.186-3.1.763-1.476,2Z" transform="translate(0 424.996)" fill="#828282"/>
            <path id="Pfad_27910" data-name="Pfad 27910" d="M701.8,204.658c32.467.327,64.984-.248,97.465.005.9-1.966-2.8-2.154-3.942-2.058-55.473.3-111.332-.671-166.5,1.053q36.761,2.18,72.977,1" transform="translate(0 419.342)" fill="#6d6d6d"/>
            <path id="Pfad_27911" data-name="Pfad 27911" d="M934.723,204.658q36.159,1.181,72.977-1c-55.168-1.724-111.027-.748-166.5-1.053-1.145-.1-4.842.092-3.942,2.058,32.481-.253,65,.322,97.465-.005" transform="translate(0 419.342)" fill="#6d6d6d"/>
            <rect id="Rechteck_5308" data-name="Rechteck 5308" width="110.965" height="2" transform="translate(762.778 519)" fill="#afe6da"/>
            <path id="Pfad_27912" data-name="Pfad 27912" d="M701.8,202.634a7.848,7.848,0,0,0-3.38-1.073c-23.191-.25-46.419.338-69.6.073-2.088.065-4.21.866-6.456,1.041-16.536,1.29-35.148-.547-52.042-.042-.868.026-3.6-.41-1.979,1.006,42.588-1.166,85.446,1.525,128.006.036,1.9-.066,3.784.1,5.448-1.041" transform="translate(0 421.366)" fill="#0d0d0d"/>
            <path id="Pfad_27913" data-name="Pfad 27913" d="M934.723,202.634c1.664,1.14,3.547.975,5.448,1.041,42.56,1.489,85.418-1.2,128.006-.036,1.621-1.416-1.111-.98-1.979-1.006-16.894-.5-35.506,1.332-52.042.042-2.246-.175-4.368-.976-6.456-1.041-23.178.265-46.406-.323-69.6-.073a7.848,7.848,0,0,0-3.38,1.073" transform="translate(0 421.366)" fill="#0d0d0d"/>
            <path id="Pfad_27914" data-name="Pfad 27914" d="M1586.515,152.855c1.666-.024,3.334.028,5,0a6.592,6.592,0,0,1,3-1v-1q-52.456,0-104.962.005l1.477,2c31.818-.347,63.686.458,95.487,0" transform="translate(0 523.145)" fill="#7e7e7e"/>
            <path id="Pfad_27915" data-name="Pfad 27915" d="M50.006,152.868c31.8.418,63.668-.313,95.487,0l1.477-2q-52.457-.014-104.961-.005v1q.612,1.03,3,1c1.664.025,3.332-.022,5,0" transform="translate(0 523.132)" fill="#7e7e7e"/>
            <rect id="Rechteck_5309" data-name="Rechteck 5309" width="192.938" height="1" transform="translate(721.791 641)" fill="#474747"/>
            <path id="Pfad_27916" data-name="Pfad 27916" d="M1601.51,193.472c.558-3.022-1.525-1.931-3.453-2-29.186-1.054-58.29-.924-87.517-1v1c23.474-.028,48.153-.97,71.486,0,1.233.051,3.714-.76,3.49,1H1510.54c-.224,1.76,2.257.949,3.488,1,28.566,1.187,58.741,0,87.482,0" transform="translate(0 442.528)" fill="#a0a0a0"/>
            <path id="Pfad_27917" data-name="Pfad 27917" d="M1463.555,316.811H1299.607c.02.052-1.868.814-.5,1.005,52.978-.445,105.986.57,158.961.012,1.691-.017,4.447.639,5.484-1.017" transform="translate(0 192.189)" fill="#5c5a5a"/>
            <path id="Pfad_27918" data-name="Pfad 27918" d="M336.914,316.288H172.966c-.018,1.62,3.217.956,4.5,1,52.783,1.912,107.011-.608,159.451-1" transform="translate(0 192.712)" fill="#5c5a5a"/>
            <path id="Pfad_27919" data-name="Pfad 27919" d="M1446.56,191.992H1288.61c52.633.068,105.318-.051,157.95,0" transform="translate(0 443.008)" fill="#161616"/>
            <path id="Pfad_27920" data-name="Pfad 27920" d="M347.911,191.991H189.961c52.633-.052,105.318.07,157.95,0" transform="translate(0 443.009)" fill="#161616"/>
            <rect id="Rechteck_5310" data-name="Rechteck 5310" width="70.977" height="2" transform="translate(782.772 680)" fill="#8c8c8c"/>
            <path id="Pfad_27921" data-name="Pfad 27921" d="M385.9,231.95l2.433,1.05,117.528-.06c-.549-2.223-1.437-1.356-2.751-1.344-33.915.327-67.863.639-101.788.4-1.893-.013-3.747-1.037-4.425-1.042q-5.6.564-11,1" transform="translate(0 363.05)" fill="#767575"/>
            <path id="Pfad_27922" data-name="Pfad 27922" d="M1250.623,231.95q-5.387-.451-11-1c-.677.005-2.532,1.029-4.425,1.042-33.925.243-67.872-.069-101.788-.4-1.314-.012-2.2-.879-2.751,1.344l117.529.06Z" transform="translate(0 363.05)" fill="#767575"/>
            <path id="Pfad_27923" data-name="Pfad 27923" d="M35.011,193.2c30.139-.116,60.315.083,90.468.005l-3.5-2.005c-18.769.2-37.939,1.251-56.981,1a2.4,2.4,0,0,0-3,0,2.27,2.27,0,0,0-3,0,2.36,2.36,0,0,0-3,0c-2.549-.062-4.922-.956-6-1-2.226-.091-14.4-.448-15,0-.164.123.1,1.438.008,2" transform="translate(0 442.803)" fill="#a0a0a0"/>
            <path id="Pfad_27924" data-name="Pfad 27924" d="M1250.623,233.017c33.63.159,67.377.3,100.978-.5-33.6-.742-67.351-.731-100.978-.5-.873.284-.86.618,0,1" transform="translate(0 361.983)" fill="#6a6a6a"/>
            <path id="Pfad_27925" data-name="Pfad 27925" d="M385.9,233.02c.873-.284.86-.618,0-1-33.627-.231-67.38-.242-100.977.5,33.6.806,67.347.646,100.977.5" transform="translate(0 361.98)" fill="#6a6a6a"/>
            <rect id="Rechteck_5311" data-name="Rechteck 5311" width="96.964" height="1.005" transform="translate(769.781 515.997)" fill="#93e0d0"/>
            <path id="Pfad_27926" data-name="Pfad 27926" d="M865.745,310l-94.97,0Z" transform="translate(0 207.003)" fill="#defefa"/>
            <rect id="Rechteck_5312" data-name="Rechteck 5312" width="93.97" height="1" transform="translate(406.892 689)" fill="#646464"/>
            <rect id="Rechteck_5313" data-name="Rechteck 5313" width="93.97" height="1" transform="translate(1135.659 689)" fill="#646464"/>
            <path id="Pfad_27927" data-name="Pfad 27927" d="M39.009,319.16c.873-.284.86-.618,0-1v-1c-11.472.227-23.065-.454-34.534,0-1.928.076-4.011-1.028-3.454,2Z" transform="translate(0 190.84)" fill="#323030"/>
            <path id="Pfad_27928" data-name="Pfad 27928" d="M40.009,156c.076-.649-1.325-2-1.5-2H2.521c-.174,0-1.575,1.351-1.5,2Z" transform="translate(0 517)" fill="#c5e1dc"/>
            <rect id="Rechteck_5314" data-name="Rechteck 5314" width="72.952" height="1.007" transform="translate(943.725 640.998)" fill="#4b4b4b"/>
            <rect id="Rechteck_5315" data-name="Rechteck 5315" width="72.952" height="1.007" transform="translate(619.843 640.995)" fill="#4b4b4b"/>
            <path id="Pfad_27929" data-name="Pfad 27929" d="M577.837,134" transform="translate(0 559.006)" fill="#565656"/>
            <path id="Pfad_27930" data-name="Pfad 27930" d="M1058.684,133.995" transform="translate(0 559.01)" fill="#565656"/>
            <path id="Pfad_27931" data-name="Pfad 27931" d="M581.836,211.95c16.968-.273,34.008.211,50.979-.01.235-1.744-2.265-.94-3.484-.99-15.1-.62-30.611,1.261-45.5-1Z" transform="translate(0 405.05)" fill="#454c4a"/>
            <path id="Pfad_27932" data-name="Pfad 27932" d="M1054.685,211.95l-2-2c-14.885,2.261-30.4.38-45.5,1-1.219.05-3.719-.754-3.484.99,16.971.221,34.011-.263,50.979.01" transform="translate(0 405.05)" fill="#454c4a"/>
            <path id="Pfad_27933" data-name="Pfad 27933" d="M1597.512,317.988v-1c-16.637.328-33.392-.657-49.994.5,16.6.914,33.356.5,49.994.5" transform="translate(0 192.012)" fill="#666464"/>
            <path id="Pfad_27934" data-name="Pfad 27934" d="M39.009,317.906c16.638,0,33.392.414,49.994-.5l-49.994-.5Z" transform="translate(0 192.094)" fill="#666464"/>
            <path id="Pfad_27935" data-name="Pfad 27935" d="M834.755,148.869H801.766c1.037,1.661,3.793,1.005,5.483,1.022,7.327.077,14.7.091,22.022,0,1.692-.021,4.445.641,5.484-1.022" transform="translate(0 528.126)" fill="#0f1010"/>
            <path id="Pfad_27936" data-name="Pfad 27936" d="M1195.64,204.826c-9.64-.137-19.355.234-28.991,0,7.219,1.76,15.948,1.1,23.507,1.017,1.69-.017,4.446.639,5.484-1.017" transform="translate(0 416.174)" fill="#dfe0de"/>
            <path id="Pfad_27937" data-name="Pfad 27937" d="M469.872,204.826c-9.636.234-19.35-.137-28.991,0,7.219,1.76,15.948,1.1,23.507,1.017,1.69-.017,4.446.639,5.484-1.017" transform="translate(0 416.174)" fill="#dfe0de"/>
            <path id="Pfad_27938" data-name="Pfad 27938" d="M1250.623,232.822v-1c-3.655.025-7.341-.025-11,0,2.634,1.839,7.541.984,11,1" transform="translate(0 362.178)" fill="#1b1a1a"/>
            <path id="Pfad_27939" data-name="Pfad 27939" d="M396.895,231.822c-3.655-.025-7.341.025-11,0v1c3.455-.015,8.363.838,11-1" transform="translate(0 362.178)" fill="#1b1a1a"/>
            <path id="Pfad_27940" data-name="Pfad 27940" d="M655.812,79.858c-30.258-.628-60.881,1.293-90.965-1.011l4.987-1.979c-21.143-.369-42.364.442-63.516.031-2.364-.046-4.55-1.037-6.915-1.082-67.549-1.284-135.286-.989-202.973-.964l-.5,1h44.985l-.5,1c-75.651.433-151.323-.575-226.973-.053-2.854.02-5.306,1.07-7.908,1.089-34.831.263-69.694-.277-104.513-.046-.083,5.7-1.347,6.717,5,5.995l-3.49-1.995c128.637.442,257.284-.552,385.921-.043,42.592.169,85.912,2.83,128.411.048q69.553-.7,138.956-2" transform="translate(0 668.142)" fill="#070707"/>
            <path id="Pfad_27941" data-name="Pfad 27941" d="M140.977,12c6.058.019,11.929-1.026,17.447-1.048,135.941-.537,272.195,3.74,407.876,1.007,8.771-.177,21.909-1.449,28.965,2.12l157.014-.074c1.62-1.416-1.111-.98-1.98-1.006-12.144-.363-24.363.279-36.5-.009l1.99-1.98c-14.49.148-29.205-.04-43.479-.511C586.124,7.658,498,8.274,411.438,7.955c-136.621-.5-273.253.486-409.873.036-1.9.249.455,3.8.456,4.012L12.7,13.293q59.309,1.319,117.62.707,3.771-2.82,10.655-2" transform="translate(0 804.997)" fill="#27d692"/>
            <path id="Pfad_27942" data-name="Pfad 27942" d="M1070.68,110.009c2.655-.319,2.54-1.239,0-2-21.961-3.545-44.87-3.016-66.979-1a6.128,6.128,0,0,0-2.7-.985c-29.11-1.49-19.489.834,1.721,0a3.522,3.522,0,0,0,1.978-1.014c4.175,1.41,12.569,1.821,15.995-1H614.826a4.914,4.914,0,0,0,1.07,1.367c1.234,1.016,13.881,1,15.924-.367,2.4.422,2.9,1.069,1,2-6.164-.89-22.945-2.861-27.958-.365a11.3,11.3,0,0,0-2.033,1.365,735.6,735.6,0,0,0,105.967,0,220.288,220.288,0,0,0,46.985,0q26.539-1.157,53.519-1.475a18.721,18.721,0,0,1,17.924,0q19.236.48,38.521.477c-1.841,4.228,5.868,3.354,8.592,2.461l-.594,1.539c64.618,2.058,131.3,3.175,194.492.04a4.944,4.944,0,0,0,2.445-1.04" transform="translate(0 609.991)" fill="#43d998"/>
            <path id="Pfad_27943" data-name="Pfad 27943" d="M107.987,112.888q73.721,2.775,146.18-.714l-.227-1.286-13.288-1.312q-119.164.451-236.637-.271a15.258,15.258,0,0,1,0-4.546c34.565-.132,69.283-.055,103.913.041q173.331,2.178,346.948.088c-100.044-.8-201.094-2.5-301.362-3.041-50.828-.272-101.683.293-152.5.036v10.01c35.559,1.388,71.284.884,106.971,1" transform="translate(0 611.112)" fill="#2dd5a1"/>
            <path id="Pfad_27944" data-name="Pfad 27944" d="M159.971,131.55c7.811.611,52,2.151,53.934.01,1.475-1.633-.124-2.517-1.951-3.01-64.008-1.381-128.492.67-192.391,1.048-6.237.037-12.279-1.663-18.545-1.044-.213,3.681-.223,4.6,3.454,5.044,19.59,2.358,46.862-.763,66.986-1.089,29.549-.479,58.965-.421,88.513-.959" transform="translate(0 564.45)" fill="#21d792"/>
            <path id="Pfad_27945" data-name="Pfad 27945" d="M2.021,5.859c.006.7-1.533,2.609-1,3.995,43.142-.426,86.351.566,129.5.053,2.853-.034,5.3-1.054,7.908-1.089,29.842-.4,59.688-.2,89.508-.969.235-1.744-2.265-.94-3.484-.99-30.363-1.247-61.528.926-91.978.005-1.621-1.421,1.126-.977,2-1.006,2.166-.07,4.342.049,6.5,0-6.893-.021-14.382,0-21.452.041-39.163.238-78.354-.263-117.5-.041" transform="translate(0 811.141)" fill="#2fda8a"/>
            <path id="Pfad_27946" data-name="Pfad 27946" d="M834.755,108.325c.873-.284.86-.618,0-1-27.734-2.332-55.375-1.789-83.125-.863-.609.021,11.917.218,11.148-2.137q-98.293-1.584-194.449-1.987l-2.488.987a46.322,46.322,0,0,0-21.993,0,141.3,141.3,0,0,0,25.793,3.014l31.408-.26.78,1.246c77.948.252,155.1.686,232.926,1" transform="translate(0 616.675)" fill="#a9f3d7"/>
            <path id="Pfad_27947" data-name="Pfad 27947" d="M1034.691,107.282l.78-1.246,31.407.26a141.481,141.481,0,0,0,25.795-3.014,46.3,46.3,0,0,0-21.993,0c-9.867.015-19.735.933-29.443,1.048-55.812.661-111.691-.594-167.5-.048l.5,1.529a334.085,334.085,0,0,0-39.485,1.471v1c66.443.268,133.011-.784,199.936-1" transform="translate(0 616.718)" fill="#a9f3d7"/>
            <path id="Pfad_27948" data-name="Pfad 27948" d="M928.725,131.1H707.795c10.782,3.729,23.958,1.662,35.53,1.956q74.894,1.9,149.87,0c11.571-.289,24.749,1.77,35.53-1.955" transform="translate(0 561.904)" fill="#93d2c5"/>
            <path id="Pfad_27949" data-name="Pfad 27949" d="M470.871,104.95l-48.982-.635,44.668.192q3.372.195,2.315-1.557c-29.893-1.373-60.105-1.874-89.972,0-15.973-.847-31.995-.53-47.984,0q-2.653.327-1.259,1.067c-23.091.589-47.111.383-70.437-.1-.1,0-.192-.423-.281-.963h-4c-.185-.892-.524-.856-1,0-1.306,2.027-3.383,1.92-5.457,2.047-44.56,2.719-95.287.094-140.5-.047Z" transform="translate(0 619.05)" fill="#78dfa9"/>
            <path id="Pfad_27950" data-name="Pfad 27950" d="M1528.534,104.805c-44.8.106-96.535,3.109-140.5.047-2.072-.145-4.15-.008-5.456-2.047h-5c-1,1.144.332,1.116.249,1.116-17.649-.161-35.32-.174-52.986.144a60.328,60.328,0,0,1-20.239-1.26c-15.656-.537-31.346-.847-46.986,0-29.866-1.874-60.078-1.373-89.971,0q-1.764,1.668,2.627,1.564l44.356-.209-48.982.645Z" transform="translate(0 619.195)" fill="#77dfa8"/>
            <path id="Pfad_27953" data-name="Pfad 27953" d="M1477.55,131.964c-16.652-.312-34.678-.184-51.5-1-2.455-.119-3.269.724-1.485-2-3.827.083-7.07.926-10.456,1.041-6.661.228-18.3-1.223-23.985-.11-1.2.236.107,2.9-1.095,3.138-29.8.785-60.208-1.29-89.934-.069-1.219.05-3.719-.754-3.484.99l172.476.046Z" transform="translate(0 564.036)" fill="#8be5c7"/>
            <path id="Pfad_27954" data-name="Pfad 27954" d="M159.971,131.964,168.434,134l172.474-.046c.235-1.744-2.265-.94-3.483-.99-29.726-1.221-60.138.854-89.934.069-1.2-.236.107-2.9-1.1-3.138-5.688-1.113-17.324.338-23.986.11-3.386-.115-6.629-.958-10.456-1.041,1.784,2.721.972,1.884-1.485,2-16.544.781-34.122.7-50.5,1" transform="translate(0 564.036)" fill="#8be5c7"/>
            <path id="Pfad_27955" data-name="Pfad 27955" d="M1070.68,113.6a47.387,47.387,0,0,0,19.994,0c2.949.819,8.571,1.539,10-1-1.66-.049-3.34.046-5-.009l1.008-2.981c-1.524-.259-2.927-.868-4.5-1.017-19.021-1.8-39.511.593-58.488,1.007a4.044,4.044,0,0,1-4,0c-2.99.061-6.008-.071-9,0-4.865.115-10.709.873-15.995,1-1.691.481-2.7.785-1,2,22.338.246,44.632,1.018,66.979,1" transform="translate(0 604.399)" fill="#d6fbf2"/>
            <path id="Pfad_27956" data-name="Pfad 27956" d="M545.847,113.044a47.339,47.339,0,0,0,19.994,0c12.136,1.626,25,2.649,36.988,0,9.568-.1,20.048-.89,29.99-1,2.128-1.04.865-1.462-1-2-5.609-.142-11.8-.881-16.995-1-2.658-.061-5.339.055-8,0a4.044,4.044,0,0,1-4,0c-18.976-.415-39.468-2.806-58.488-1.007-1.575.149-2.978.758-4.5,1.017l1.008,2.981c-1.657.055-3.337-.04-5,.009.89,2.46,7.093,1.847,10,1" transform="translate(0 604.956)" fill="#d6fbf2"/>
            <path id="Pfad_27957" data-name="Pfad 27957" d="M470.871,107.56c43.634.019,87.324-.141,130.958,0,1.777-2.705.981-1.9-1.484-2-10.979-.442-22.056.3-33.046.041l-23.451-2.041c-1.266-.818-3.754-.981-3.881,1.156q-33.336-.949-66.415.945-3.418-1.254-4.68-.1c-1.038,1.658-3.792,1-5.484,1.017-28.764.357-58.4-1.192-87-.017-1.219.05-3.719-.754-3.484.99q48.957.043,97.964.01" transform="translate(0 616.44)" fill="#43da98"/>
            <path id="Pfad_27958" data-name="Pfad 27958" d="M1165.65,107q48.957-.021,97.964-.01c.235-1.744-2.265-.94-3.484-.99-28.579-1.174-58.25.32-87,.017-1.691-.017-4.447.639-5.484-1.017q-.608-1.467-3.085-.123-36.4-.672-71.891-1.877l-23.451,2.041c-10.99.255-22.067-.483-33.046-.041-2.465.1-3.261-.705-1.484,2,43.634-.141,87.323.019,130.958,0" transform="translate(0 617.002)" fill="#43d998"/>
            <path id="Pfad_27959" data-name="Pfad 27959" d="M516.857,79.272c68.051.556,135.968-.661,203.93-1.01.235-1.744-2.265-.94-3.484-.99-19.963-.82-41.42-.208-61.49,0-45.466.471-93.723-.961-138.956,2" transform="translate(0 670.728)" fill="#606060"/>
            <path id="Pfad_27960" data-name="Pfad 27960" d="M1119.664,79.272c-45.232-2.961-93.49-1.529-138.956-2-20.07-.208-41.527-.82-61.49,0-1.219.05-3.719-.754-3.484.99,67.962.349,135.879,1.566,203.93,1.01" transform="translate(0 670.728)" fill="#606060"/>
            <path id="Pfad_27963" data-name="Pfad 27963" d="M1304.6,109.712c24.273,2.129,48.666,1.249,72.977,0h4l-116.962-1.01,2-2.99H1158.652c-.225-1.76,2.256-.949,3.488-1,3.423-.142,18.313.9,19.5-1-26.942.243-53.939,1.8-80.974,1-2.3,1.827-6.862.984-10,1q-.547,1.958,3.6,1.58l1.269,1.45a445.514,445.514,0,0,1,53.94-.5l5.169-1.53c36.113,1.213,73.314.625,109.462,0,.336-.03-6.285.171-6.495,1-2.655.319-2.54,1.239,0,2,15.645-.046,31.34.031,46.985,0" transform="translate(0 612.288)" fill="#43d998"/>
            <path id="Pfad_27964" data-name="Pfad 27964" d="M258.939,109.79c23.969,1.4,48.025,1.812,71.977,0,15.978.031,32.006-.047,47.985,0,2.655-.319,2.54-1.239,0-2q51.365-.379,102.967-1l5.363,1.51a405.551,405.551,0,0,1,54.33.54l.678-1.461q4.161.362,3.608-1.589c-3.135-.018-7.7.828-10-1-27.044.8-54.028-.814-80.975-1l.482,1.119q11.472.291,22.511.881c-35.131-1.192-71.87-1.7-107.276-1.276-.235,0-.463.56-.689,1.276l-1.634,1.021-112.128.969-1.2,2.01h4" transform="translate(0 612.21)" fill="#43da98"/>
            <rect id="Rechteck_5316" data-name="Rechteck 5316" width="78.975" height="2" transform="translate(1.021 708)" fill="#29da83"/>
            <path id="Pfad_27965" data-name="Pfad 27965" d="M793.268,15h49.985c1.479,0,1.479-3,0-3H793.268c-1.073,0-1.94,2.237,0,3" transform="translate(0 800)" fill="#abeace"/>
            <rect id="Rechteck_5317" data-name="Rechteck 5317" width="68.978" height="2" transform="translate(1439.562 707)" fill="#a7e3d1"/>
            <rect id="Rechteck_5318" data-name="Rechteck 5318" width="68.978" height="2" transform="translate(127.981 707)" fill="#a6e3d1"/>
            <path id="Pfad_27966" data-name="Pfad 27966" d="M996.7,30V28H929.226c-.175,0-1.576,1.351-1.5,2Z" transform="translate(0 769)" fill="#9ee5c2"/>
            <path id="Pfad_27967" data-name="Pfad 27967" d="M708.795,30c.076-.649-1.325-2-1.5-2H639.818v2Z" transform="translate(0 769)" fill="#9ee5c2"/>
            <rect id="Rechteck_5319" data-name="Rechteck 5319" width="97.969" height="1" transform="translate(1252.622 692)" fill="#8cd4bf"/>
            <rect id="Rechteck_5320" data-name="Rechteck 5320" width="97.969" height="1" transform="translate(285.93 692)" fill="#8cd4bf"/>
            <path id="Pfad_27970" data-name="Pfad 27970" d="M45.007,151.134a6.549,6.549,0,0,0-3-1c-12.43-.212-26.158-.6-38.5,0-2.454.119-3.269-.724-1.484,2,14.231,0,28.973.825,42.986-1" transform="translate(0 524.866)" fill="#0d100f"/>
            <rect id="Rechteck_5321" data-name="Rechteck 5321" width="76.975" height="1" transform="translate(1481.549 743)" fill="#070707"/>
            <rect id="Rechteck_5322" data-name="Rechteck 5322" width="76.975" height="1" transform="translate(77.997 743)" fill="#070707"/>
            <rect id="Rechteck_5323" data-name="Rechteck 5323" width="32.989" height="2" transform="translate(801.766 731)" fill="#a1e2cf"/>
            <path id="Pfad_27979" data-name="Pfad 27979" d="M1033.692,111.907c-1.332.029-2.667-.027-4,0,.578,1.693,3.017,1.222,4,0" transform="translate(0 602.093)" fill="#43d998"/>
            <path id="Pfad_27980" data-name="Pfad 27980" d="M606.828,111.907c-1.332-.027-2.667.029-4,0,.983,1.222,3.421,1.693,4,0" transform="translate(0 602.093)" fill="#43da98"/>
            <path id="Pfad_27981" data-name="Pfad 27981" d="M43.008,527.692c.548.979,2.813.626,4,0,31.7,0,64.979,1.31,96.479,0,1.232-.051,3.714.76,3.489-1H85.994c-.224-1.76,2.257-.949,3.489-1,9.954-.414,22.73,1.261,32.067.079,1.913-.242.952-1.916,2.865-2.158,20.467-2.591,51.243.392,73.085.12,58.932-.734,117.972-.068,176.855.007q441.12.56,882.266-.048v-1c-412.108.163-824.23-.717-1236.15-.044-3-.2-4.866,3.184-7.194,3.8-3.863,1.027-9.446-1.06-12.256,1.241Z" transform="translate(0 -223.692)" fill="#dafcf1"/>
            <rect id="Rechteck_5326" data-name="Rechteck 5326" width="86.972" height="1" transform="translate(43.008 219)" fill="#585757"/>
            <rect id="Rechteck_5327" data-name="Rechteck 5327" width="86.972" height="1" transform="translate(1506.541 219)" fill="#585757"/>
            <path id="Pfad_27982" data-name="Pfad 27982" d="M538.85,607.674c1.67,3.006,9.566,2.376,12.513,2,1.827-.231,1.615.336,1.482-2Z" transform="translate(0 -390.674)" fill="#c8c8c8"/>
            <path id="Pfad_27983" data-name="Pfad 27983" d="M1097.671,607.674h-14c-.132,2.338-.344,1.771,1.482,2,2.948.374,10.844,1,12.514-2" transform="translate(0 -390.674)" fill="#c8c8c8"/>
            <path id="Pfad_27985" data-name="Pfad 27985" d="M1405.573,209.012c-48.438-2.078-98.615-2.053-146.953-3-12.955-.254-26.027-.041-38.988,0-.873.284-.86.618,0,1,3.031.072,8.99-1.269,8,2,59.293.347,118.649-.26,177.943,0" transform="translate(0 411.988)" fill="#33a375"/>
            <path id="Pfad_27986" data-name="Pfad 27986" d="M935.718,9.99c.231-1.751-2.263-.931-3.482-.99-2.16-.1-4.353.059-6.505.01-.231,1.751,2.263.931,3.483.99,2.159.1,4.353-.059,6.5-.01" transform="translate(0 808)" fill="#fff"/>
            <path id="Pfad_27987" data-name="Pfad 27987" d="M1539.53,516.895c-.444,2.669.63,2.081,3,1.99l-1-1.99c-.666-.01-1.333.018-2,0" transform="translate(0 -208.895)" fill="#04dc78"/>
            <path id="Pfad_27988" data-name="Pfad 27988" d="M94.981,521.768c.062,1.107,2.369,1.173,3,.05l5,.083.045-2.722L39.01,518.118l-37.977-.631-.045,2.721,54.017.9Z" transform="translate(0 -213.117)" fill="#74e2b0"/>
            <path id="Pfad_27989" data-name="Pfad 27989" d="M1111.667,525.4h3c8.353,0,16.643.064,24.992,0a21.273,21.273,0,0,0,10,0c.893-.224,1.91-.715,3-1q99.639-1.152,202.935-1c41.961.023,84-.364,125.96,0,16.194.141,32.3,1.068,48.5,1.02,2.718.225,1.973-3.225,2.689-3.837.859-.735,3.114.719,2.793-1.183h-49.485c-.115,0-2-1.454-1.01-2,2.058-2.894,22.39.856,26.5-2H128.471l-3.489,1h25.492c1.48,0,1.48,3,0,3H100.99c-.321,1.9,1.931.448,2.792,1.183.56.477.184,2.666,1.132,3.368,2.311,1.712,25.878.083,30.517-.6,117.849,1.461,236.5-2.7,353.881,2.1q311.161-.016,622.355-.054" transform="translate(0 -214.405)" fill="#04dc78"/>
            <path id="Pfad_27990" data-name="Pfad 27990" d="M1355.589,517.2c-66.5-.036-133.034.087-199.553-.072-1.46-.57-2.722.9-3.382,1.072Z" transform="translate(0 -208.203)" fill="#2ad68c"/>
            <path id="Pfad_27991" data-name="Pfad 27991" d="M1149.655,514.747c-3.324.018-6.673-.025-10,0,2.786,2.409,6.958.762,10,0" transform="translate(0 -203.747)" fill="#2ad68c"/>
            <path id="Pfad_27992" data-name="Pfad 27992" d="M94.981,516.813l-.989,1.34c2.383-.113,4.619,1.064,3.987-1.29Z" transform="translate(0 -208.162)" fill="#04dc78"/>
            <path id="Pfad_27993" data-name="Pfad 27993" d="M1114.666,516h0" transform="translate(0 -205)" fill="#2ad68c"/>
            <path id="Pfad_27994" data-name="Pfad 27994" d="M617.825,463.061l198.93-1.005-1.475-2c-55.817-.232-111.662.318-167.465,0,1.039,1.658,3.792,1,5.484,1.017,12.635.157,25.4-.535,38.013-.017,1.217.05,3.718-.755,3.483.99L620.214,462c-1.252-.334-1.777.7-2.389,1.059" transform="translate(0 -96.061)" fill="#76f0a8"/>
            <path id="Pfad_27995" data-name="Pfad 27995" d="M1018.7,463.062c-.612-.358-1.137-1.393-2.389-1.059l-74.581.049c-.235-1.745,2.265-.94,3.483-.99,12.944-.531,26.046.178,39.012.017,1.692-.021,4.446.641,5.484-1.017-55.8.319-111.647-.237-167.464,0l-1.477,2Z" transform="translate(0 -96.062)" fill="#76efa8"/>
            <path id="Pfad_27996" data-name="Pfad 27996" d="M408.891,208.9c-.992-3.269,4.967-1.928,8-2,.873-.284.861-.618,0-1-12.976-.041-26.012.148-38.987,0-8.68,2.058-18.522.718-27.533.959-39.638,1.059-79.98.349-119.42,2.041,59.294-.26,118.65.347,177.943,0" transform="translate(0 412.104)" fill="#33a375"/>
            <path id="Pfad_27997" data-name="Pfad 27997" d="M1287.611,190.254a40.393,40.393,0,0,0-19.994,0c6.65.01,13.344-.01,19.994,0" transform="translate(0 447.746)" fill="#111"/>
            <path id="Pfad_27998" data-name="Pfad 27998" d="M1233.628,190.263c-1.864-1.685-7.133-1.685-9,0,2.992,0,6.005,0,9,0" transform="translate(0 447.737)" fill="#111"/>
            <path id="Pfad_27999" data-name="Pfad 27999" d="M348.91,190.292c.873-.284.86-.618,0-1-51.445-.039-103.017-.656-154.465-.017-1.692.021-4.446-.641-5.484,1.017,53.3-.185,106.651.073,159.949,0" transform="translate(0 447.708)" fill="#161616"/>
            <path id="Pfad_28000" data-name="Pfad 28000" d="M372.9,190.187c-7.42-1.842-16.234-.994-23.992-1v1c7.982-.011,16.01.011,23.992,0" transform="translate(0 447.813)" fill="#121212"/>
            <path id="Pfad_28001" data-name="Pfad 28001" d="M412.89,190.263c-2.214-1.709-7.975-1.661-10,0,3.324,0,6.673,0,10,0" transform="translate(0 447.737)" fill="#121212"/>
            <path id="Pfad_28002" data-name="Pfad 28002" d="M183.963,191v-2a3.379,3.379,0,0,0-2,2c.666,0,1.333,0,2,0" transform="translate(0 447.001)" fill="#161616"/>
            <path id="Pfad_28003" data-name="Pfad 28003" d="M59,193c.873-.284.86-.618,0-1-1.095.045-2.515-.306-3,1,1,.024,2-.019,3,0" transform="translate(0 441.996)" fill="#161616"/>
            <path id="Pfad_28004" data-name="Pfad 28004" d="M62,193.029c.873-.284.86-.618,0-1-.982-.052-2.015-.04-3,0v1c1,.019,2-.016,3,0" transform="translate(0 441.971)" fill="#121212"/>
            <path id="Pfad_28005" data-name="Pfad 28005" d="M65,193c-.486-1.316-1.906-.943-3-1v1c1,.016,2-.013,3,0" transform="translate(0 441.997)" fill="#161616"/>
            <path id="Pfad_28006" data-name="Pfad 28006" d="M416.889,209.011c8.968-.213,18.085.57,27-.5-8.912-.934-18.037-.472-27-.5Z" transform="translate(0 409.989)" fill="#aeb2b1"/>
            <path id="Pfad_28007" data-name="Pfad 28007" d="M1219.632,209.011v-1c-8.964.028-18.09-.434-27,.5,8.915,1.07,18.033.287,27,.5" transform="translate(0 409.989)" fill="#aeb2b1"/>
            <path id="Pfad_28008" data-name="Pfad 28008" d="M834.755,112.777q39.461-.018,78.97-.01c.235-1.744-2.266-.94-3.484-.99-6.313-.259-12.677.215-18.994-.01l-17.5-1.99,4.5-1c15.049-1.392,33.373,1.872,48,0,1.38-.176,3.121-.74,1.477-2l-59.582.054c-1,.429-2.213-1.039-2.394-1.059q-19.176-.007-38.314-.467a19.243,19.243,0,0,0-18.192-.06q-26.709.533-53.459,1.527c-15.635.234-31.345-.073-46.985,0-3.27.676-2.115,2.52,1.056,2.521q26.7-.674,52.927.479l-17.505,1.99c-6.317.225-12.681-.249-18.994.01-1.218.05-3.718-.754-3.483.99q55.954.009,111.959.01" transform="translate(0 611.223)" fill="#0dda7f"/>
            <path id="Pfad_28009" data-name="Pfad 28009" d="M1167.649,108.043c29.969-.227,60,.088,89.971,0v-2q-45.469-1.167-90.971,0a9.664,9.664,0,0,1-7,0,10.726,10.726,0,0,0-5-1c-19.149-2.045-39.052-.913-58.447.064-1.623.081-4.542.483-5.532-1.064-6.651.034-13.344,0-19.994,0v2c7.034-.011,15.126-.544,21.993,0,.659.052,1.34-.046,2,.01,2.381,2.523-12.339,1.955-13.51,1.99-.867.026-3.6-.412-1.98,1,27.67-.217,55.351.258,83.021.033,2.035-.017,4.01-1.027,5.448-1.038" transform="translate(0 613.957)" fill="#0ed67e"/>
            <path id="Pfad_28010" data-name="Pfad 28010" d="M762.778,108.786c-.386-1.7-3.114-.945-4.5-1-15.3-.6-30.723.513-46.03,0-1.928-.064-4.012,1.019-3.454-2-35.3.164-70.662-.123-105.966,0-12.307.134-24.679.008-36.988,0-2.655.319-2.54,1.239,0,2,9.866.015,19.734.933,29.443,1.048,55.812.661,111.69-.594,167.494-.048" transform="translate(0 612.214)" fill="#43da98"/>
            <path id="Pfad_28011" data-name="Pfad 28011" d="M865.745,112.18c-12.2-1.323-25.631.588-37.555-.921-1.913-.242-.952-1.915-2.865-2.158a92.313,92.313,0,0,0-14.13,0c-1.912.243-.952,1.916-2.864,2.158-10.3,1.3-23.459-1.1-34.1-.12L755.78,113.18c15.2-.227,40.713.985,54.535-.948,2.576-.36,3.784-1.934,6.9-2.142,4.626-.308,5.644,1.671,9,2.142,11.762,1.653,27.342-1.334,39.539-.052" transform="translate(0 604.82)" fill="#43da98"/>
            <path id="Pfad_28012" data-name="Pfad 28012" d="M632.82,111.856c15.416-.171,31.111.631,46.495,0,1.219-.05,3.719.755,3.484-.99-16.844-2.022-34.008-.581-50.979-1.01Z" transform="translate(0 605.144)" fill="#3bdda4"/>
            <path id="Pfad_28013" data-name="Pfad 28013" d="M1003.7,112.319l1-2c-13.852.332-28.931-1-42.54-.053-1.711.119-3.306-.1-4.44,1.558,15.265,1.029,30.677.327,45.98.5" transform="translate(0 604.681)" fill="#3adda4"/>
            <path id="Pfad_28014" data-name="Pfad 28014" d="M253.941,112.025h1l116.962-1.01-2-2.99H477.87c.224-1.76-2.257-.949-3.489-1-6.344-.263-13.768,1.041-19.5-1-112.413-.775-224.092-1.372-336.352-2.041-38.831-.232-77.69.263-116.509.036v8.01c30.776.966,61.612,1.174,92.517,1.036,52.975-.236,106.287-1.018,159.408-1.041" transform="translate(0 609.975)" fill="#07de7d"/>
            <path id="Pfad_28015" data-name="Pfad 28015" d="M468.872,108.119c1.438.011,3.413,1.021,5.448,1.038,27.67.225,55.351-.25,83.021-.033,1.62-1.417-1.112-.979-1.98-1-1.171-.035-15.891.533-13.51-1.99.657-.056,1.338.042,2-.01,6.867-.544,14.959-.011,21.993,0v-2c-6.65,0-13.344.037-19.994,0-.975,1.531-3.933,1.168-5.532,1.064-19.244-1.25-39.473-2.09-58.447-.064a10.425,10.425,0,0,0-5,1,9.664,9.664,0,0,1-7,0q-45.5-1.167-90.971,0v2c29.971.088,60-.227,89.971,0" transform="translate(0 613.881)" fill="#0dd67f"/>
            <path id="Pfad_28018" data-name="Pfad 28018" d="M1159.652,107.338a9.52,9.52,0,0,0,7,0c30.258.864,60.7-.644,90.971,0l6.495-1-109.462,0c1.036.111,2.767.817,5,1" transform="translate(0 612.662)" fill="#86f7c8"/>
            <path id="Pfad_28019" data-name="Pfad 28019" d="M378.9,107.338c30.271-.644,60.713.864,90.971,0a9.519,9.519,0,0,0,7,0c2.231-.183,3.962-.889,5-1l-109.462,0Z" transform="translate(0 612.662)" fill="#86f7c8"/>
            <path id="Pfad_28020" data-name="Pfad 28020" d="M47.007,521.934h-4v1c1.315-.037,3.3.506,4-1" transform="translate(0 -217.934)" fill="#74e2b0"/>
            <path id="Pfad_28021" data-name="Pfad 28021" d="M1356.589,526h0Z" transform="translate(0 -225)" fill="#2ad68c"/>
            <path id="Pfad_28022" data-name="Pfad 28022" d="M1433.564,526h0Z" transform="translate(0 -225)" fill="#2ad68c"/>
            <path id="Pfad_28023" data-name="Pfad 28023" d="M1166.649,105.771c-2.311-.066-4.7.188-7,0,1.263,1.654,5.735,1.654,7,0" transform="translate(0 614.229)" fill="#43d998"/>
            <path id="Pfad_28024" data-name="Pfad 28024" d="M476.87,105.771c-2.294.188-4.688-.066-7,0,1.263,1.654,5.735,1.654,7,0" transform="translate(0 614.229)" fill="#43da98"/>
          </g>
        </g>
      </g>
    </g>
  </g>
</svg>
