<svg xmlns="http://www.w3.org/2000/svg" width="448.792" height="512" viewBox="0 0 448.792 512">
  <path id="taxes" d="M321.473,196.129c-87.081,0-157.935,70.854-157.935,157.936S234.392,512,321.473,512s157.935-70.854,157.935-157.936S408.555,196.129,321.473,196.129ZM287.533,291.4a21.946,21.946,0,1,1-21.946,21.935A21.966,21.966,0,0,1,287.533,291.4Zm67.881,125.337A21.946,21.946,0,1,1,377.36,394.8,21.966,21.966,0,0,1,355.414,416.733Zm18.467-91.716-81.456,81.454a16.518,16.518,0,0,1-23.36-23.36l81.456-81.454a16.518,16.518,0,0,1,23.36,23.36ZM277.086,0H169.731a16.524,16.524,0,0,0-14.483,24.454l31.546,57.569a47.463,47.463,0,0,0-17.125,64.145A167.552,167.552,0,0,0,59.146,273.032L32.121,413.853A82.587,82.587,0,0,0,113.226,512h68.789a13.813,13.813,0,0,0,9.582-23.757C85.741,385.762,135.088,207.917,276.344,172.752a13.806,13.806,0,0,0,.8-26.585,47.462,47.462,0,0,0-17.125-64.145l31.546-57.569A16.523,16.523,0,0,0,277.086,0ZM235.8,137.29H211.022a14.506,14.506,0,0,1-13.708-19.138,14.3,14.3,0,0,1,13.708-9.765H235.8a14.3,14.3,0,0,1,13.708,9.765A14.506,14.506,0,0,1,235.8,137.29Z" transform="translate(-30.616)" fill="#0ecf72"/>
</svg>
